/* XPM */
static char * porsche_xpm[] = {
"64 64 4 1",
" 	c #background",
".	c #000000000000",
"X	c #ffd100",
"o	c #FFFF00000000",
"                                                                ",
"                   ..........................                   ",
"              .....................................             ",
"        ............XXXXXXXXXXXXXXXXXXXXXXXX............        ",
"        ......XXXXXXX...XX...XXXXXXXX...XXXXXXXXXX......        ",
"        ..XXXXXXXXXX..X..XX..XXXX.XXXX..XXXXXXXXXXXXXX..        ",
"        ..XXXXXXXXXX..X..XX..XXX..XXXX..X...XXXXXXXXXX..        ",
"        ..XXXXXXXXXX..XXXXX..XX.....XX..XX.XXXXXXXXXXX..        ",
"        ..XXXXXXXXX.....XXX..XXX..XXXX..X.XXXXXXXXXXXX..        ",
"        ..XXXXXXXXXX..XXXXX..XXX..XXXX....XXXXXXXXXXXX..        ",
"        ..XXXXXXXXXX..XXXXX..XXX..XXXX..X..XXXXXXXXXXX..        ",
"        ..XXXXXXXXXX..XXXXX..XXX..X.XX..XX..XXXXXXXXXX..        ",
"        ..XXXXXXXXX....XXX....XXX..XX....XX..XXXXXXXXX..        ",
"        ..XXXXXXXXXXXXXXXXXXXXXXXXXXXXXXXXXXXXXXXXXXXX..        ",
"        ..XXXXXXXXX..........................XXXXXXXXX..        ",
"        ..XXX.......XXXXXXXXXXX...................XXXX..        ",
"        ......XX.XXX.XXX..XXXXX.........................        ",
"        ..XXXXX.XXX.XXX.XXXX.XX.........................        ",
"        ..XXXX.XXX.XX.......XXX.........................        ",
"        ..XXXX.......XXXXXX..XX..ooooooooooooooooooooo..        ",
"        ..X.....XXXXXXXXXXXXXXX..ooooooooooooooooooooo..        ",
"        ..X...XXXXXXXXXXXXXXXXX..ooooooooooooooooooooo..        ",
"        ..X..XXXXXXX.XX.XXXXXXX..ooooooooooooooooooooo..        ",
"        ..XXXXX.XXX.XX.XXXXXXXX..ooooooooooooooooooooo..        ",
"        ..XXXX.XXX.XX.XX................................        ",
"        ..XXXX.X.........X....X.X.X.....................        ",
"        ..XXXX...XXXXXXX.X..X...X.X.X.X.................        ",
"        ..X....XXXXXXXXXX.X...X.X.X.....................        ",
"        ..X...XXXXXXXXXX.XXXXXXXXXXXXXX.................        ",
"        ..X..XXXXXX.XX.X.XXX...XXXXXXXX.................        ",
"        ..XXXXX.XX.XX.XX.XX.....XXXXXXX.oooooooooooooo..        ",
"        ..XXXX.XX.XX.XX..XX.X...XXXXX.X.oooooooooooooo..        ",
"        ..XXXX.X.......X.XXXX...XXXX..X.oooooooooooooo..        ",
"        ..X......XXXXXX..XXXX...XXXX..X.oooooooooooooo..        ",
"        ..X...XXXXXXXXXX.XXX.....XXX.XX.oooooooooooooo..        ",
"        ..X..XXXXXXXXXXX.X...........XX.oooooooooooooo..        ",
"        .................X.X.........XX.................        ",
"        .................X.X.XXXX....XX.XXXXXXXXXXXXXX..        ",
"        .................XXX.XXXXX.X.XX.XXX.XX.XXXXXXX..        ",
"         ................XXXX.XXX..X..X.XX.XX.XXX.XXX..         ",
"         ................XXXXXXXX.XX.XX.X.XX.XXX.XXXX..         ",
"         .................XXXXXX.XX.XX.X..........XXX..         ",
"          ..oooooooooooooo.XXXXXXXXXX....XXXXXXXX..X..          ",
"          ..ooooooooooooooo.XXXXXXXX....XXXXXXXXXXXX..          ",
"           ..ooooooooooooooo........XXXXXXX.XX.XXXX..           ",
"           ..oooooooooooooooooo..XXXXX.XXX.XX.XX.XX..           ",
"            ..ooooooooooooooooo..XXXX.XXX.XX.XX.XX..            ",
"            ..ooooooooooooooooo..XXX.XX........XXX..            ",
"             ....................XXX....XXXXXX..X..             ",
"              ...................XX...XXXXXXXXXXX.              ",
"              ...................X...XXXXXXXXXXX..              ",
"               ..................X..XXXX.XXXXXX..               ",
"                .................XXX.XX.XX.XXX..                ",
"                 ................XX.XX.XX.XXX..                 ",
"                  ..ooooooooooo..XX.......XX..                  ",
"                   ..oooooooooo..X...XXXX.X..                   ",
"                    ..ooooooooo..X..XXXXXX..                    ",
"                     ...ooooooo..X..XXXX...                     ",
"                      ....ooooo..XXXXX....                      ",
"                        ....ooo..XXX....                        ",
"                          ....o..X....                          ",
"                            ........                            ",
"                              ....                              ",
"                                                                "};
