/* XPM */
static const char * const fluid_32_xpm[] = {
"32 32 32 1",
" 	c None",
".	c #000200",
"+	c #01162D",
"@	c #01356A",
"#	c #2F312E",
"$	c #035FB1",
"%	c #0061C0",
"&	c #0071E1",
"*	c #007FFF",
"=	c #247ABD",
"-	c #626E6F",
";	c #777976",
">	c #2A90E9",
",	c #3291D2",
"'	c #2690FC",
")	c #449EAD",
"!	c #5A9D87",
"~	c #70AD78",
"{	c #7EA3C4",
"]	c #87B556",
"^	c #6EB8FF",
"/	c #A8ABA9",
"(	c #A2C443",
"_	c #8BC3F9",
":	c #BED831",
"<	c #CDDF1B",
"[	c #CACDCB",
"}	c #ACD7FF",
"|	c #ECF408",
"1	c #E5E7E4",
"2	c #DDEDFD",
"3	c #FCFFFC",
"                                ",
"             .......            ",
"            .-//[//.            ",
"            ./^^333.            ",
"            .{''231.            ",
"            .[^^331.            ",
"            .[33331.            ",
"            .[33331.            ",
"            .[33^'_.            ",
"            .[33^',.            ",
"            .[332}2.            ",
"            .133331.            ",
"            .133331.            ",
"           .-333333;.           ",
"          .#1332_333#.          ",
"          .[333''^333.          ",
"         ./3333>'}333/.         ",
"        .-333333232_}3;.        ",
"       .#132}23333_'>33#.       ",
"       .[33^'^33332>^331.       ",
"      .$'''*'*''''''''''$.      ",
"     .@*')>{******,***>)&@.     ",
"    .+&':~(:&*****:)**)|&*+.    ",
"    .%*!:&~(&,'>'*>**,~(**&.    ",
"   .$*':]>:!!|&|=~<&]~<!&**$.   ",
"  .@***:-'|%~()<&]])<%|=****@.  ",
" .+***'|%):=(!(]>:!(]!:%*****+. ",
" .&***):&!:=<]((&|!~:]<=*****&. ",
".$&**)~!**&**&&&*&&*&*&*******$.",
".%***]~%*****************'****%.",
".@%%%%%%%%%%%%%%%%%%%%%$%%%$%%@.",
" .............................. "};
