/* XPM */
static const char *flCounter_xpm[] = {
/* width height ncolors chars_per_pixel */
"16 16 6 1",
/* colors */
"a c #606060",
"' c #000000",
"c c none",
"d c #c0c0c0",
"e c #ffffff",
"f c #e0e0e0",
/* pixels */
"cccccccccccccccc",
"cccccccccccccccc",
"cccccccccccccccc",
"cccccccccccccccc",
"fffffffffffffffc",
"fdddaeeeeefdddac",
"fd'daee'eefd'dac",
"f''dae''eefd''ac",
"f''daee'eefd''ac",
"fd'dae'''efd'dac",
"fdddaeeeeefdddac",
"aaaaaaaaaaaaaaac",
"cccccccccccccccc",
"cccccccccccccccc",
"cccccccccccccccc",
"cccccccccccccccc"
};
