/* XPM */
static const char *flCodeBlock_xpm[] = {
/* width height ncolors chars_per_pixel */
"16 16 4 1",
/* colors */
". c none",
"a c #000000",
"b c #c0e0c0",
"c c #000000",
/* pixels */
".......aa.......",
"......abbc......",
".....abbbbc.....",
"....abbbbbbc....",
"...abbbbbbbbc...",
"..abbbbbbbbbbc..",
".abbbbbbbbbbbbc.",
"abbbbbbbbbbbbbbc",
"abbbbbbbbbbbbbbc",
".abbbbbbbbbbbbc.",
"..abbbbbbbbbbc..",
"...abbbbbbbbc...",
"....abbbbbbc....",
".....abbbbc.....",
"......abbc......",
".......ac.......",
};
