/* XPM */
static const char *flRoller_xpm[] = {
/* width height ncolors chars_per_pixel */
"16 16 6 1",
/* colors */
"a c #e0e0e0",
"' c #000000",
"c c none",
"d c #c0c0c0",
"e c #ffffff",
"f c #606060",
/* pixels */
"cccccccccccccccc",
"cccccccccccccccc",
"cccccccccccccccc",
"cccccccccccccccc",
"aaaaaaaaaaaaaaac",
"a'f'ee'ddd'dd'f'",
"a'f'ee'ddd'dd'f'",
"a'f'ee'ddd'dd'f'",
"a'f'ee'ddd'dd'f'",
"a'f'ee'ddd'dd'f'",
"a'f'ee'ddd'dd'f'",
"''''''''''''''''",
"cccccccccccccccc",
"cccccccccccccccc",
"cccccccccccccccc",
"cccccccccccccccc"
};
