/* XPM */
static const char *_bae769a99384303e21a66e415de0b1aBvKpx6NXTDEGsJa6[] = {
/* columns rows colors chars-per-pixel */
"32 32 32 1 ",
"  c #1A1C1C",
". c #2D3746",
"X c #393B38",
"o c #334E74",
"O c #595C5C",
"+ c #6A6135",
"@ c #4D6D9E",
"# c #6A7891",
"$ c #777976",
"% c #5885C6",
"& c #7F817F",
"* c #948539",
"= c #598ED7",
"- c #6D8BBB",
"; c #888A87",
": c #5D97E7",
"> c #90928F",
", c #999C99",
"< c #60A6FF",
"1 c #9EA19E",
"2 c #AAA27A",
"3 c #BAA63E",
"4 c #C4B367",
"5 c #D9C351",
"6 c #C9CBC6",
"7 c #F7E14C",
"8 c black",
"9 c black",
"0 c black",
"q c black",
"w c black",
"e c black",
/* pixels */
"$$$$$$$$$$$$$$$$$$$$$$$$$$$$$$$$",
"$$$$$$$$$$$$$$$$$$$$$$$$$$$$$$$$",
"$$$$$$$$$$$&$$$$$$$$$$$$$$$$$$$$",
"$$$$$$$$$$::#$$$-:#$$$$$$$$$$$$$",
"$$$$$$$$$#<<=$$-<<-$$$$$$$$$$$$$",
"$$$$$#$$$#<<:$$:<<-$$$$$$$$$$$$$",
"&&&&-<:-&&:<<-#:<<#&&--#&&&&&&&&",
"&&&&-<<<##:<<<<<<:&&=<<=&&&&&&&&",
"&&&&$:<<<<<<<<<<<<:=<<<#&&&&&&&&",
"&&&&&#:<<<<<<<<<<<<<<<%$&&&&&&&&",
"&&&&&&%<<<<<<:<<<<<<<%$&&&&&&&&&",
"&-:<:-<<<<<%#O@:<<<<<=&##&&&&&&&",
";=<<<<<<<<:#;;;$@<<<<<:<<<-;;;;;",
";$=<<<<<<<#;;;;;&%<<<<<1<<-;;;;;",
";;$O@<<<<=;;;;;;;#:<:577-@&;;;;;",
";;;;;<<<<-;;;;245776<5772;;;;;;;",
";;--:<<<<-;257777774<4774;;;;;;;",
";-<<<<<<<:;&77777774<6775>;;;;;;",
";<<<<<<<<<-;57752-:<<:7776>>>>>>",
">#%%@@<<<<<:4774::1<<:7776,>>>>>",
">>;;>;:<<<<<6777777<<#5774;>>>>>",
">>>>>=<<<<<<:7777776<-4775>>>>2>",
">>>>-<<<:<<<<5777751<<,77745775>",
">>>><<<%$%<<<4774%@:<<=77777777>",
">>>>:=@;>-<<:2774->#:<<57777775>",
",,,,&&,,,:<<-2777-,,$@@47753*O$>",
",,,,,,,,,:<:>>7771,,,,>&+O$;>,,,",
",,,,,,,,,:<-,,5772,,,,,,,,,,,,,,",
",,,,,,,,,&#>,,2*O&,,,,,,,,,,,,,,",
",,,,,,,,,,,,,,>,,,,,,,,,,,,,,,,,",
"11111111111111111111111111111111",
"11111111111111111111111111111111"
};
