/* XPM */
static const char *_e101498a8b740e7b97aa74122d70714MqWFs5PhLjx31lZ1[] = {
/* columns rows colors chars-per-pixel */
"96 96 32 1 ",
"  c #1A1C1C",
". c #2D3746",
"X c #393B38",
"o c #334E74",
"O c #595C5C",
"+ c #6A6135",
"@ c #4D6D9E",
"# c #6A7891",
"$ c #777976",
"% c #5885C6",
"& c #7F817F",
"* c #948539",
"= c #598ED7",
"- c #6D8BBB",
"; c #888A87",
": c #5D97E7",
"> c #90928F",
", c #999C99",
"< c #60A6FF",
"1 c #9EA19E",
"2 c #AAA27A",
"3 c #BAA63E",
"4 c #C4B367",
"5 c #D9C351",
"6 c #C9CBC6",
"7 c #F7E14C",
"8 c black",
"9 c black",
"0 c black",
"q c black",
"w c black",
"e c black",
/* pixels */
"$$$$$$$$$$$$$$$$$$$$$$$$$$$$$$$$$$$$$$$$$$$$$$$$$$$$$$$$$$$$$$$$$$$$$$$$$$$$$$$$$$$$$$$$$$$$$$$$",
"$$$$$$$$$$$$$$$$$$$$$$$$$$$$$$$$$$$$$$$$$$$$$$$$$$$$$$$$$$$$$$$$$$$$$$$$$$$$$$$$$$$$$$$$$$$$$$$$",
"$$$$$$$$$$$$$$$$$$$$$$$$$$$$$$$$$$$$$$$$$$$$$$$$$$$$$$$$$$$$$$$$$$$$$$$$$$$$$$$$$$$$$$$$$$$$$$$$",
"$$$$$$$$$$$$$$$$$$$$$$$$$$$$$$$$$$$$$$$$$$$$$$$$$$$$$$$$$$$$$$$$$$$$$$$$$$$$$$$$$$$$$$$$$$$$$$$$",
"$$$$$$$$$$$$$$$$$$$$$$$$$$$$$$$$$$$$$$$$$$$$$$$$$$$$$$$$$$$$$$$$$$$$$$$$$$$$$$$$$$$$$$$$$$$$$$$$",
"$$$$$$$$$$$$$$$$$$$$$$$$$$$$$$$$$$$$$$$$$$$$$$$$$$$$$$$$$$$$$$$$$$$$$$$$$$$$$$$$$$$$$$$$$$$$$$$$",
"$$$$$$$$$$$$$$$$$$$$$$$$$$$$$$$$$$$$$$$$$$$$$$$$$$$$$$$$$$$$$$$$$$$$$$$$$$$$$$$$$$$$$$$$$$$$$$$$",
"$$$$$$$$$$$$$$$$$$$$$$$$$$$$$$$$$$$$$$$$$$$$$$$$$$$$$$$$$$$$$$$$$$$$$$$$$$$$$$$$$$$$$$$$$$$$$$$$",
"$$$$$$$$$$$$$$$$$$$$$$$$$$$$$$$$#-#$$$$$$$$$$$$$$$$$$$$$$$$$$$$$$$$$$$$$$$$$$$$$$$$$$$$$$$$$$$$$",
"$$$$$$$$$$$$$$$$$$$$$$$$$$$$$$#:<<:#$$$$$$$$$$$$$$-:-#$$$$$$$$$$$$$$$$$$$$$$$$$$$$$$$$$$$$$$$$$$",
"$$$$$$$$$$$$$$$$$$$$$$$$$$$$$$%<<<<:#$$$$$$$$$$$$-<<<<-$$$$$$$$$$$$$$$$$$$$$$$$$$$$$$$$$$$$$$$$$",
"$$$$$$$$$$$$$$$$$$$$$$$$$$$$$$:<<<<<=$$$$$$$$$$$-<<<<<=$$$$$$$$$$$$$$$$$$$$$$$$$$$$$$$$$$$$$$$$$",
"$$$$$$$$$$$$$$$$$$$$$$$$$$$$$#<<<<<<<-$$$$$$$$$#<<<<<<:$$$$$$$$$$$$$$$$$$$$$$$$$$$$$$$$$$$$$$$$$",
"$$$$$$$$$$$$$$$$$$$$$$$$$$$$$#<<<<<<<:$$$$$$$$$:<<<<<<<#$$$$$$$$$$$$$$$$$$$$$$$$$$$$$$$$$$$$$$$$",
"$$$$$$$$$$$$$$$$$$$$$$$$$$$$$-<<<<<<<<-$$$$$$$-<<<<<<<<#$$$$$$$$$$$$$$$$$$$$$$$$$$$$$$$$$$$$$$$$",
"$$$$$$$$$$$$$$$$$$$$$$$$$$$$$-<<<<<<<<%$$$$$$$:<<<<<<<<#$$$$$$$$$$$$$$$$$$$$$$$$$$$$$$$$$$$$$$$$",
"$$$$$$$$$$$$$$$$$$$$$$$$$$$$$@<<<<<<<<=$$$$$$$<<<<<<<<<#$$$$$$$$$$$$$$$$$$$$$$$$$$$$$$$$$$$$$$$$",
"$$$$$$$$$$$$$$$%%-$$$$$$$$$$$#<<<<<<<<=$$$$$$#<<<<<<<<:#$$$$$$$$$$$$$$$$$$$$$$$$$$$$$$$$$$$$$$$$",
"&&&&&&&&&&&&&$=<<<:-#$&&&&&&&O=<<<<<<<:$&&&&&#<<<<<<<<=$&&&&&&&&&&&&$&&&&&&&&&&&&&&&&&&&&&&&&&&&",
"&&&&&&&&&&&&$%<<<<<<<-&&&&&&&$@<<<<<<<<-$&&&&%<<<<<<<<o$&&&&&&&&&#-%:#&&&&&&&&&&&&&&&&&&&&&&&&&&",
"&&&&&&&&&&&&$@<<<<<<<<=&&&&&&&.<<<<<<<<<=%%-=<<<<<<<<:X&&&&&&&&#=<<<<<#&&&&&&&&&&&&&&&&&&&&&&&&&",
"&&&&&&&&&&&&&o<<<<<<<<<-&&&&&&O<<<<<<<<<<<<<<<<<<<<<<@$&&&&&&#=<<<<<<<:$&&&&&&&&&&&&&&&&&&&&&&&&",
"&&&&&&&&&&&&&O:<<<<<<<<<#&&&&&%<<<<<<<<<<<<<<<<<<<<<<@&&&&&&#:<<<<<<<<:O&&&&&&&&&&&&&&&&&&&&&&&&",
"&&&&&&&&&&&&&$%<<<<<<<<<:#&&-:<<<<<<<<<<<<<<<<<<<<<<<:#&&&&$=<<<<<<<<<%$&&&&&&&&&&&&&&&&&&&&&&&&",
"&&&&&&&&&&&&&$o<<<<<<<<<<:%:<<<<<<<<<<<<<<<<<<<<<<<<<<<-&&&%<<<<<<<<<<o&&&&&&&&&&&&&&&&&&&&&&&&&",
"&&&&&&&&&&&&&&O=<<<<<<<<<<<<<<<<<<<<<<<<<<<<<<<<<<<<<<<<:-=<<<<<<<<<<=O&&&&&&&&&&&&&&&&&&&&&&&&&",
"&&&&&&&&&&&&&&$.:<<<<<<<<<<<<<<<<<<<<<<<<<<<<<<<<<<<<<<<<<<<<<<<<<<<<o$&&&&&&&&&&&&&&&&&&&&&&&&&",
"&&&&&&&&&&&&&&&Oo:<<<<<<<<<<<<<<<<<<<<<<<<<<<<<<<<<<<<<<<<<<<<<<<<<<%O&&&&&&&&&&&&&&&&&&&&&&&&&&",
"&&&&&&&&&&&&&&&&X.=<<<<<<<<<<<<<<<<<<<<<<<<<<<<<<<<<<<<<<<<<<<<<<<<:.$&&&&&&&&&&&&&&&&&&&&&&&&&&",
"&&&&&&&&&&&&&&&&&O =<<<<<<<<<<<<<<<<<<<<<<<<<<<<<<<<<<<<<<<<<<<<<<%.O&&&&&&&&&&&&&&&&&&&&&&&&&&&",
"&&&&&&&&&&&&&&&&&&Oo<<<<<<<<<<<<<<<<<<<<<<<<<<<<<<<<<<<<<<<<<<<<:o O&&&&&&&&&&&&&&&&&&&&&&&&&&&&",
"&&&&&&&&&&&&&&&&&&&-<<<<<<<<<<<<<<<<<<<<<<<<<<<<<<<<<<<<<<<<<<<<oX$&&&&&&&&&&&&&&&&&&&&&&&&&&&&&",
"&&&&&&&&&&&&&&&&&&#:<<<<<<<<<<<<<<<<<<<:=@:<<<<<<<<<<<<<<<<<<<<:O&&&&&&&&&&&&&&&&&&&&&&&&&&&&&&&",
"&&&&#-%=:::=-#&&&&%<<<<<<<<<<<<<<<<:%@o   %<<<<<<<<<<<<<<<<<<<<<#&&&&&&&&&&&&&&&&&&&&&&&&&&&&&&&",
"&&&&:<<<<<<<<<%#&-<<<<<<<<<<<<<<<<o   XOO$.@%:<<<<<<<<<<<<<<<<<<=&&&&&&&&&&&&&&&&&&&&&&&&&&&&&&&",
"&&&#<<<<<<<<<<<<<<<<<<<<<<<<<<<<<<@O$$&;&&O   @=<<<<<<<<<<<<<<<<<#&&&&-%==%-#&&&&&&&&&&&&&&&&&&&",
";;;-<<<<<<<<<<<<<<<<<<<<<<<<<<<<<=#;;;;;;;;&$OX @<<<<<<<<<<<<<<<<:-#-:<<<<<<<:%&;;;;;;;;;;;;;;;;",
";;;@<<<<<<<<<<<<<<<<<<<<<<<<<<<<%.O;;;;;;;;;;;&O o:<<<<<<<<<<<<<<<<<<<<<<<<<<<<#;;;;;;;;;;;;;;;;",
";;;X@<<<<<<<<<<<<<<<<<<<<<<<<<<% O;;;;;;;;;;;;;;$Xo<<<<<<<<<<<<<<<<<<<<<<<<<<<<%;;;;;;;;;;;;;;;;",
";;;$X@<<<<<<<<<<<<<<<<<<<<<<<<:.$;;;;;;;;;;;;;;;;&O@<<<<<<<<<<<<<<<<<<<<<<<<<<<=&;;;;;;;;;;;;;;;",
";;;;$X@:<<<<<<<<<<<<<<<<<<<<<<oO;;;;;;;;;;;;;;;;;;&X=<<<<<<<<<<<<<<<<<::<<<<<<<@&;;;;;;;;;;;;;;;",
";;;;;$X.%:<<<<<<<<<<<<<<<<<<<%O;;;;;;;;;;;;;;;;;;;;$o<<<<<<<<<<<<<:-6474<<<<<:oX&;;;;;;;;;;;;;;;",
";;;;;;&O .o@%:<<<<<<<<<<<<<<<o&;;;;;;;;;;;;;;;;;;;;;O=<<<<<<<<:125777777:<<<=oX&;;;;;;;;;;;;;;;;",
";;;;;;;;$OX   =<<<<<<<<<<<<<:O;;;;;;;;;;;;;;;;;;;;;;&@<<<:<<<<,777777777-<:@ O&;;;;;;;;;;;;;;;;;",
";;;;;;;;;;;&$O@<<<<<<<<<<<<<=$;;;;;;;;;;;;;;;;;;;;;;;O1245:<<<%7777777772o X$;;;;;;;;;;;;;;;;;;;",
";;;;;;;;;;;;;;#<<<<<<<<<<<<<@;;;;;;;;;;;;;;;;;;;&223577777-<<<:5777777773XO&;;;;;;;;;;;;;;;;;;;;",
";;;;;;;;;;;;;;#<<<<<<<<<<<<<@;;;;;;;;;;;;;;;;24577777777771<<<<4777777775&;;;;;;;;;;;;;;;;;;;;;;",
";;;;;;;;;;;;;;-<<<<<<<<<<<<<-;;;;;;;;;;;;245777777777777774<<<<1777777777;;;;;;;;;;;;;;;;;;;;;;;",
";;;;;;;;;;;;;&:<<<<<<<<<<<<<-;;;;;;&22357777777777777777775:<<<-7777777772;;;;;;;;;;;;;;;;;;;;;;",
";;;;;;;;&--%%:<<<<<<<<<<<<<<%;;;;;&577777777777777777777777-<<<=7777777774;;;;;;;;;;;;;;;;;;;;;;",
";;;;;;&%<<<<<<<<<<<<<<<<<<<<:&;;;;;3777777777777777777777771<<<:5777777775&;;;;;;;;;;;;;;;;;;;;;",
";;;;;-<<<<<<<<<<<<<<<<<<<<<<<#;;;;;*777777777777777777777772<<<<2777777777;;;;;;;;;;;;;;;;;;;;;;",
";;;;%<<<<<<<<<<<<<<<<<<<<<<<<%;;;;;O777777777777777777777775<<<<#7777777772;;;;;;;;;;;;;;;;;;;;;",
";;;=<<<<<<<<<<<<<<<<<<<<<<<<<<#;;;;O5777777777777777777753+#<<<<=77777777726;;;;;;;;;;;;;;;;;;;;",
";;#<<<<<<<<<<<<<<<<<<<<<<<<<<<=;;;;$37777777777777753*$@%:<<<<<<:577777777566>;;;;;;;;;;;;;;;;;;",
">>O<<<<<<<<<<<<<<<<<<<<<<<<<<<<%;>>;*777777777753*O@=:<<<<<<<<<<<2777777775666;>>>>>>>>>>>>>>>>>",
">>$:<<<<<<<<<<<<<<<<<<<<<<<<<<<<%;>>+777777777*  o:<<<<<<<<<<<<<<,7777777776666;>>>>>>>>>>>>>>>>",
">>;@=:<<<<<<<=@o%<<<<<<<<<<<<<<<<:&>O7777777773 @<<<<<<<<<<<<<<<<%7777777772666$>>>>>>>>>>>>>>>>",
">>>X .o@%=%@o  X =<<<<<<<<<<<<<<<<<-#5777777775=<<<<<<:--<<<<<<<<:5777777774666$>>>>>>>>>>>>>>>>",
">>>;$O      X$;>$o<<<<<<<<<<<<<<<<<<<2777777777=<<:-14574<<<<<<<:o377777777566>;>>>>>>>>>>>>>>>>",
">>>>>>;&$$$;>>>>>O%<<<<<<<<<<<<<<<<<<-7777777771257777775<<<<<<<oX*777777777>$O>>>>>>>>>>>>>>>>>",
">>>>>>>>>>>>>>>>>&@<<<<<<<<<<<<<<<<<<=7777777777777777777=<<<<<%O>+777777777*X$>>>>>>>>>>>>>>>>>",
">>>>>>>>>>>>>>>>>>%<<<<<<<<<<<<<<<<<<:57777777777777777771<<<<:.;>O7777777774;>>>>>>>>>>>>>>>>>>",
">>>>>>>>>>>>>>>>;%<<<<<<<<<<<<<<<<<<<<27777777777777777772<<<<:$>>$5777777775;>>>>>>>>>>>>>>>>>>",
">>>>>>>>>>>>>>>#:<<<<<<<<<<<<<<<<<<<<<,7777777777777777775<<<<<#>>;3777777777;>>>>>>>>>>>>>>>>>>",
">>>>>>>>>>>>>>-<<<<<<<<<<<<<<<<<<<<<<<%7777777777777777777:<<<<<->>+7777777772>>>>>>>>;;2454>>>>",
">>>>>>>>>>>>>&<<<<<<<<<<<<<<<<<<<<<<<<:5777777777777777777-<<<<<<->O7777777774>>>>;243577775;>>>",
">>>>>>>>>>>>>=<<<<<<<<<<<<<<<<<<<<<<<<<4777777777777777777,<<<<<<<-$5777777775>2457777777777>>>>",
">>>>>>>>>>>>#<<<<<<<<<<<%%<<<<<<<<<<<<<,777777777777753*O@=<<<<<<<<#3777777777777777777777772>>>",
">>>>>>>>>>>>%<<<<<<<<<<o  o=<<<<<<<<<<<-77777777753+o@%%=<<<<<<<<<<=*777777777777777777777774>>>",
">>>>>>>>>>>&<<<<<<<<<<@O&&O @<<<<<<<<<<:7777777774:<<%.  @<<<<<<<<<<O777777777777777777777775>>>",
">>>>>>>>>>>-<<<<<<<<<%X>>>>$X:<<<<<<<<<:3777777775<:o O$$X=<<<<<<<<<@577777777777777777777777;>>",
">>>>>>>>>>>-<<<<<<<:@X;>>>>>&:<<<<<<<<<<2777777777:%O&>>>&.:<<<<<<<<=3777777777777777777777772>>",
">>>>>>>>>>>O%<<<<:@.X&>>>>>>#<<<<<<<<<%@$777777777-%>>>>>>Oo:<<<<<<<:*777777777777777777777774>>",
",,,,,,,,,,,&.%=@o  O;,,,,,,>=<<<<<<<<o  X7777777771:>,,,,,>Xo=<<<<<<<$777777777777777777775*+O>,",
",,,,,,,,,,,,$   XO;,,,,,,,,#<<<<<<<<:O&;$5777777774<#,,,,,,>O o=<<<:o 77777777777777753*+    O>,",
",,,,,,,,,,,,,&$;>,,,,,,,,,,-<<<<<<<<=;,,;3777777777:=>,,,,,,>$X o@=oX$5777777777753*+     XO$;,,",
",,,,,,,,,,,,,,,,,,,,,,,,,,,%<<<<<<<<%>,,>*777777777-:;,,,,,,,,>$X  O>;*7777753*+X     XO$;>,,,,,",
",,,,,,,,,,,,,,,,,,,,,,,,,,,%<<<<<<<<#,,,,O7777777771<;,,,,,,,,,,,>$>,>+753*+     XOO&>,,,,,,,,,,",
",,,,,,,,,,,,,,,,,,,,,,,,,,,%<<<<<<<:O,,,,$5777777774:;,,,,,,,,,,,,,,,,OX     XO$;>,,,,,,,,,,,,,,",
",,,,,,,,,,,,,,,,,,,,,,,,,,,-<<<<<<<@&,,,,&3777777775=;,,,,,,,,,,,,,,,,$  XO$;,,,,,,,,,,,,,,,,,,,",
",,,,,,,,,,,,,,,,,,,,,,,,,,,@<<<<<<=X,,,,,>*777777777#>,,,,,,,,,,,,,,,,>&>,,,,,,,,,,,,,,,,,,,,,,,",
",,,,,,,,,,,,,,,,,,,,,,,,,,,#<<<<<:.;,,,,,,+777777777*,,,,,,,,,,,,,,,,,,,,,,,,,,,,,,,,,,,,,,,,,,,",
",,,,,,,,,,,,,,,,,,,,,,,,,,,$:<<<:.$,,,,,,,$777777753+,,,,,,,,,,,,,,,,,,,,,,,,,,,,,,,,,,,,,,,,,,,",
",,,,,,,,,,,,,,,,,,,,,,,,,,,;.@==.O,,,,,,,,&57753*$&$O,,,,,,,,,,,,,,,,,,,,,,,,,,,,,,,,,,,,,,,,,,,",
",,,,,,,,,,,,,,,,,,,,,,,,,,,>O   $,,,,,,,,,>++X  $OX $,,,,,,,,,,,,,,,,,,,,,,,,,,,,,,,,,,,,,,,,,,,",
",,,,,,,,,,,,,,,,,,,,,,,,,,,,,>&$,,,,,,,,,,,X   X  O$,,,,,,,,,,,,,,,,,,,,,,,,,,,,,,,,,,,,,,,,,,,,",
",,,,,,,,,,,,,,,,,,,,,,,,,,,,,,,,,,,,,,,,,,,$$;,,>,,,,,,,,,,,,,,,,,,,,,,,,,,,,,,,,,,,,,,,,,,,,,,,",
",,,,,,,,,,,,,,,,,,,,,,,,,,,,,,,,,,,,,,,,,,,,,,,,,,,,,,,,,,,,,,,,,,,,,,,,,,,,,,,,,,,,,,,,,,,,,,,,",
"111111111111111111111111111111111111111111111111111111111111111111111111111111111111111111111111",
"111111111111111111111111111111111111111111111111111111111111111111111111111111111111111111111111",
"111111111111111111111111111111111111111111111111111111111111111111111111111111111111111111111111",
"111111111111111111111111111111111111111111111111111111111111111111111111111111111111111111111111",
"111111111111111111111111111111111111111111111111111111111111111111111111111111111111111111111111",
"111111111111111111111111111111111111111111111111111111111111111111111111111111111111111111111111",
"111111111111111111111111111111111111111111111111111111111111111111111111111111111111111111111111"
};
