#define black_2_width 56
#define black_2_height 56
static unsigned char black_2_bits[] = {
0x00, 0x00, 0x0f, 0x3c, 0x00, 0x00, 0x00, 
0x00, 0x40, 0x40, 0x81, 0x00, 0x00, 0x00, 
0x00, 0x10, 0x49, 0x09, 0x02, 0x00, 0x00, 
0x00, 0x44, 0x52, 0x49, 0x08, 0x00, 0x00, 
0x00, 0x90, 0x52, 0x25, 0x01, 0x00, 0x00, 
0x80, 0x94, 0x54, 0x95, 0x44, 0x00, 0x00, 
0x40, 0x24, 0x01, 0x40, 0x92, 0x00, 0x00, 
0x20, 0x49, 0xfc, 0x0f, 0x09, 0x01, 0x00, 
0x00, 0x11, 0x57, 0x35, 0x64, 0x00, 0x00, 
0x40, 0xc2, 0x00, 0xc0, 0x10, 0x00, 0x00, 
0x88, 0x64, 0x55, 0x55, 0x89, 0x05, 0x00, 
0x20, 0x11, 0x00, 0x08, 0x42, 0x00, 0x00, 
0x44, 0x58, 0x55, 0x55, 0x21, 0x0b, 0x00, 
0x90, 0x04, 0x80, 0x0a, 0x80, 0x00, 0x00, 
0x22, 0x56, 0x55, 0x55, 0x45, 0x14, 0x00, 
0x48, 0x02, 0xa8, 0x2a, 0x00, 0x03, 0x00, 
0x11, 0x55, 0x55, 0x55, 0x95, 0x28, 0x00, 
0x21, 0x81, 0xaa, 0x2a, 0x00, 0x26, 0x00, 
0x8d, 0x55, 0x55, 0x55, 0x15, 0x21, 0x00, 
0xb1, 0xe0, 0xaa, 0xaa, 0x00, 0x20, 0x00, 
0x80, 0xf5, 0x55, 0x55, 0x15, 0x07, 0x00, 
0xbe, 0xf0, 0xab, 0xaa, 0x00, 0x00, 0x00, 
0x80, 0xf5, 0x55, 0x55, 0x15, 0x1f, 0x00, 
0xbe, 0xe0, 0xab, 0xaa, 0x02, 0x00, 0x00, 
0x80, 0xf5, 0x57, 0x55, 0x15, 0x1f, 0x00, 
0xb8, 0xc0, 0xaf, 0xaa, 0x00, 0x00, 0x00, 
0x81, 0xd5, 0x57, 0x15, 0x14, 0x23, 0x00, 
0xa1, 0x80, 0xaf, 0x0a, 0x00, 0x2c, 0x00, 
0x19, 0xd5, 0x5f, 0x01, 0x14, 0x21, 0x00, 
0x45, 0x01, 0xaf, 0x00, 0x00, 0x22, 0x00, 
0x30, 0x56, 0x1f, 0x40, 0x85, 0x04, 0x00, 
0x8a, 0x02, 0x0e, 0x00, 0x00, 0x11, 0x00, 
0x40, 0x54, 0x0f, 0x54, 0x45, 0x02, 0x00, 
0x34, 0x09, 0x04, 0x00, 0x80, 0x08, 0x00, 
0x80, 0x40, 0x45, 0x55, 0x21, 0x01, 0x00, 
0x68, 0x04, 0x00, 0x00, 0x48, 0x04, 0x00, 
0x00, 0x82, 0x55, 0x95, 0x90, 0x00, 0x00, 
0x80, 0x09, 0x02, 0x20, 0x22, 0x00, 0x00, 
0x20, 0x24, 0xa8, 0x8a, 0x24, 0x01, 0x00, 
0x40, 0x92, 0x00, 0x20, 0x89, 0x00, 0x00, 
0x80, 0x48, 0xaa, 0x4a, 0x4a, 0x00, 0x00, 
0x00, 0x20, 0xa9, 0x52, 0x02, 0x00, 0x00, 
0x00, 0x84, 0xa4, 0x92, 0x08, 0x00, 0x00, 
0x00, 0x10, 0xa4, 0x24, 0x02, 0x00, 0x00, 
0x00, 0x40, 0xa0, 0x80, 0x00, 0x00, 0x00, 
0x00, 0x00, 0x0f, 0x3c, 0x00, 0x00, 0x00, 
0x00, 0x00, 0x00, 0x00, 0x00, 0x00, 0x00, 
0x00, 0x00, 0x00, 0x00, 0x00, 0x00, 0x00, 
0x00, 0x00, 0x00, 0x00, 0x00, 0x00, 0x00, 
0x00, 0x00, 0x00, 0x00, 0x00, 0x00, 0x00, 
0x00, 0x00, 0x00, 0x00, 0x00, 0x00, 0x00, 
0x00, 0x00, 0x00, 0x00, 0x00, 0x00, 0x00, 
0x00, 0x00, 0x00, 0x00, 0x00, 0x00, 0x00, 
0x00, 0x00, 0x00, 0x00, 0x00, 0x00, 0x00, 
0x00, 0x00, 0x00, 0x00, 0x00, 0x00, 0x00, 
0x00, 0x00, 0x00, 0x00, 0x00, 0x00, 0x00, 
};
