#define blackking_2_width 56
#define blackking_2_height 56
static unsigned char blackking_2_bits[] = {
0x00, 0x00, 0x0f, 0x3c, 0x00, 0x00, 0x00, 
0x00, 0x40, 0x40, 0x81, 0x00, 0x00, 0x00, 
0x00, 0x10, 0x49, 0x09, 0x02, 0x00, 0x00, 
0x00, 0x44, 0x52, 0x49, 0x08, 0x00, 0x00, 
0x00, 0x90, 0x52, 0x25, 0x01, 0x00, 0x00, 
0x80, 0x94, 0x54, 0x95, 0x44, 0x00, 0x00, 
0x40, 0x24, 0x01, 0x40, 0x92, 0x00, 0x00, 
0x20, 0x49, 0xfc, 0x0f, 0x09, 0x01, 0x00, 
0x00, 0x11, 0x57, 0x35, 0x64, 0x00, 0x00, 
0x40, 0xc2, 0x00, 0xc0, 0x10, 0x00, 0x00, 
0x88, 0x64, 0xd5, 0x55, 0x89, 0x05, 0x00, 
0x20, 0x11, 0xc0, 0x00, 0x42, 0x00, 0x00, 
0x44, 0x58, 0x57, 0x74, 0x21, 0x0b, 0x00, 
0x90, 0x04, 0x03, 0x30, 0x80, 0x00, 0x00, 
0x22, 0x76, 0x51, 0x15, 0x47, 0x14, 0x00, 
0x48, 0x32, 0x08, 0x02, 0x03, 0x03, 0x00, 
0x11, 0x15, 0x5d, 0x57, 0x91, 0x28, 0x00, 
0x21, 0x01, 0x0c, 0x03, 0x00, 0x26, 0x00, 
0x8d, 0x55, 0xcf, 0xd3, 0x15, 0x21, 0x00, 
0xb1, 0x18, 0x86, 0xe1, 0x00, 0x20, 0x00, 
0x80, 0x5d, 0xd7, 0x75, 0x11, 0x07, 0x00, 
0xbe, 0x38, 0x00, 0x00, 0x00, 0x00, 0x00, 
0x80, 0x75, 0x55, 0x55, 0x11, 0x1f, 0x00, 
0xbe, 0x30, 0x00, 0x00, 0x00, 0x00, 0x00, 
0x80, 0x75, 0x55, 0x55, 0x10, 0x1f, 0x00, 
0xb8, 0x60, 0x00, 0x00, 0x00, 0x00, 0x00, 
0x81, 0x75, 0x55, 0x55, 0x14, 0x23, 0x00, 
0xa1, 0x60, 0x00, 0x00, 0x00, 0x2c, 0x00, 
0x19, 0xd5, 0x55, 0x55, 0x14, 0x21, 0x00, 
0x45, 0xc1, 0x00, 0x00, 0x00, 0x22, 0x00, 
0x30, 0xd6, 0x00, 0x00, 0x85, 0x04, 0x00, 
0x8a, 0x82, 0x00, 0x00, 0x00, 0x11, 0x00, 
0x40, 0x54, 0x00, 0x00, 0x45, 0x02, 0x00, 
0x34, 0x09, 0x00, 0x00, 0x80, 0x08, 0x00, 
0x80, 0x40, 0x55, 0x55, 0x21, 0x01, 0x00, 
0x68, 0x04, 0x00, 0x00, 0x48, 0x04, 0x00, 
0x00, 0x82, 0x55, 0x95, 0x90, 0x00, 0x00, 
0x80, 0x09, 0x02, 0x20, 0x22, 0x00, 0x00, 
0x20, 0x24, 0xa8, 0x8a, 0x24, 0x01, 0x00, 
0x40, 0x92, 0x00, 0x20, 0x89, 0x00, 0x00, 
0x80, 0x48, 0xaa, 0x4a, 0x4a, 0x00, 0x00, 
0x00, 0x20, 0xa9, 0x52, 0x02, 0x00, 0x00, 
0x00, 0x84, 0xa4, 0x92, 0x08, 0x00, 0x00, 
0x00, 0x10, 0xa4, 0x24, 0x02, 0x00, 0x00, 
0x00, 0x40, 0xa0, 0x80, 0x00, 0x00, 0x00, 
0x00, 0x00, 0x0f, 0x3c, 0x00, 0x00, 0x00, 
0x00, 0x00, 0x00, 0x00, 0x00, 0x00, 0x00, 
0x00, 0x00, 0x00, 0x00, 0x00, 0x00, 0x00, 
0x00, 0x00, 0x00, 0x00, 0x00, 0x00, 0x00, 
0x00, 0x00, 0x00, 0x00, 0x00, 0x00, 0x00, 
0x00, 0x00, 0x00, 0x00, 0x00, 0x00, 0x00, 
0x00, 0x00, 0x00, 0x00, 0x00, 0x00, 0x00, 
0x00, 0x00, 0x00, 0x00, 0x00, 0x00, 0x00, 
0x00, 0x00, 0x00, 0x00, 0x00, 0x00, 0x00, 
0x00, 0x00, 0x00, 0x00, 0x00, 0x00, 0x00, 
0x00, 0x00, 0x00, 0x00, 0x00, 0x00, 0x00, 
};
