#define blackking_1_width 56
#define blackking_1_height 56
static unsigned char blackking_1_bits[] = {
0x00, 0x00, 0xff, 0x3f, 0x00, 0x00, 0x00, 
0x00, 0xc0, 0xff, 0xff, 0x00, 0x00, 0x00, 
0x00, 0xf8, 0xff, 0xff, 0x03, 0x00, 0x00, 
0x00, 0xfc, 0xff, 0xff, 0x1f, 0x00, 0x00, 
0x00, 0xfe, 0xff, 0xff, 0x3f, 0x00, 0x00, 
0x80, 0xff, 0xff, 0xff, 0x7f, 0x00, 0x00, 
0xc0, 0xff, 0xff, 0xff, 0xff, 0x00, 0x00, 
0xe0, 0xff, 0xff, 0xff, 0xff, 0x01, 0x00, 
0xe0, 0xff, 0xff, 0xff, 0xff, 0x03, 0x00, 
0xf0, 0xff, 0xff, 0xff, 0xff, 0x07, 0x00, 
0xf8, 0xff, 0xff, 0xff, 0xff, 0x0f, 0x00, 
0xfc, 0xff, 0xff, 0xff, 0xff, 0x17, 0x00, 
0xfc, 0xff, 0xff, 0xff, 0xff, 0x2f, 0x00, 
0xfc, 0xff, 0xff, 0xff, 0xff, 0x5f, 0x00, 
0xfe, 0xff, 0xff, 0xff, 0xff, 0xbf, 0x00, 
0xfe, 0xff, 0xff, 0xff, 0xff, 0x5f, 0x01, 
0xff, 0xff, 0xff, 0xff, 0xff, 0xbf, 0x02, 
0xff, 0xff, 0xff, 0xff, 0xff, 0x7f, 0x05, 
0xff, 0xff, 0xff, 0xff, 0xff, 0xbf, 0x0a, 
0xff, 0xff, 0xff, 0xff, 0xff, 0x7f, 0x15, 
0xff, 0xff, 0xff, 0xff, 0xff, 0xbf, 0x0a, 
0xff, 0xff, 0xff, 0xff, 0xff, 0x7f, 0x15, 
0xff, 0xff, 0xff, 0xff, 0xff, 0xbf, 0x2a, 
0xff, 0xff, 0xff, 0xff, 0xff, 0x7f, 0x55, 
0xff, 0xff, 0xff, 0xff, 0xff, 0xbf, 0x2a, 
0xff, 0xff, 0xff, 0xff, 0xff, 0x7f, 0x55, 
0xff, 0xff, 0xff, 0xff, 0xff, 0xbf, 0x2a, 
0xff, 0xff, 0xff, 0xff, 0xff, 0x7f, 0x55, 
0xff, 0xff, 0xff, 0xff, 0xff, 0xbf, 0xaa, 
0xff, 0xff, 0xff, 0xff, 0xff, 0x7f, 0x55, 
0xfe, 0xff, 0xff, 0xff, 0xff, 0xbf, 0xaa, 
0xfe, 0xff, 0xff, 0xff, 0xff, 0x5f, 0x55, 
0xfe, 0xff, 0xff, 0xff, 0xff, 0xaf, 0xaa, 
0xfc, 0xff, 0xff, 0xff, 0xff, 0x5f, 0x55, 
0xf8, 0xff, 0xff, 0xff, 0xff, 0xaf, 0xaa, 
0xf8, 0xff, 0xff, 0xff, 0xff, 0x57, 0x55, 
0xf8, 0xff, 0xff, 0xff, 0xff, 0xab, 0xaa, 
0xf0, 0xff, 0xff, 0xff, 0xff, 0x55, 0x55, 
0xe0, 0xff, 0xff, 0xff, 0xff, 0xab, 0xaa, 
0xc0, 0xff, 0xff, 0xff, 0xff, 0x55, 0x55, 
0x80, 0xff, 0xff, 0xff, 0xff, 0xaa, 0x2a, 
0x00, 0xff, 0xff, 0xff, 0x5f, 0x55, 0x55, 
0x00, 0xfe, 0xff, 0xff, 0xaf, 0xaa, 0x2a, 
0x00, 0xf4, 0xff, 0xff, 0x57, 0x55, 0x15, 
0x00, 0xe8, 0xff, 0xff, 0xaa, 0xaa, 0x2a, 
0x00, 0x50, 0xff, 0x7f, 0x55, 0x55, 0x15, 
0x00, 0xa0, 0xaa, 0xaa, 0xaa, 0xaa, 0x0a, 
0x00, 0x40, 0x55, 0x55, 0x55, 0x55, 0x05, 
0x00, 0x80, 0xaa, 0xaa, 0xaa, 0xaa, 0x02, 
0x00, 0x00, 0x55, 0x55, 0x55, 0x55, 0x01, 
0x00, 0x00, 0xaa, 0xaa, 0xaa, 0xaa, 0x00, 
0x00, 0x00, 0x54, 0x55, 0x55, 0x55, 0x00, 
0x00, 0x00, 0xa8, 0xaa, 0xaa, 0x2a, 0x00, 
0x00, 0x00, 0x40, 0x55, 0x55, 0x15, 0x00, 
0x00, 0x00, 0x00, 0xaa, 0xaa, 0x02, 0x00, 
0x00, 0x00, 0x00, 0x50, 0x15, 0x00, 0x00, 
};
