/* XPM */
static const char * blast_xpm[] = {
"32 32 32 1",
" 	c #905518",
".	c #9F580E",
"+	c #A36526",
"@	c #AF6519",
"#	c #BF7429",
"$	c #C77622",
"%	c #B67B3C",
"&	c #D07518",
"*	c #D88836",
"=	c #E48628",
"-	c #F28514",
";	c #FF951C",
">	c #FA9835",
",	c #FF982A",
"'	c #F49F48",
")	c #FFA82D",
"!	c #FFA93F",
"~	c #FFBA1C",
"{	c #FFB936",
"]	c #FFBA4C",
"^	c #FFCA42",
"/	c #FFD329",
"(	c #FFCF5E",
"_	c #FFD94C",
":	c #FFE946",
"<	c #FFFB3E",
"[	c #FFFB55",
"}	c #FEFC69",
"|	c #FFFE82",
"1	c #FFFFA3",
"2	c #FEFFCB",
"3	c #FEFFFC",
"     % .  ....@@@#@@.+.+++%     ",
"  %%++++.....@######@@@@.++ %   ",
" %%% %++@@.@@@#$$#######@++++%% ",
" %%+%+####@@$&&=*=&&$$####@++%%+",
"+%+%#####&&&&&==='===*$$###%%%%+",
"%+%%%%**=*&&&&>,>,>-=>==*$*##%%%",
"  %#****'=>---,))!),>>>==***#%#+",
"  @%*'''>>>>;;,{{{))))>>>''**#%+",
" ..@#*'!]]]{)){^__^^{]!!!'''###+",
" ..@$=']]((^^~~:::/__^{((!>**##@",
"....&&=>(_|[::/<}[<[::_((!>==###",
"....&&--!_}|}[<[}[}}}||_]!>>**##",
"@@$$&&--;{:|1|[<|}|}||}_^]>>=*##",
"##$$=-,;)~~<121<2|121}}:^])>=*$#",
"#*'''!]{^_<<<1313332|}}}^{!>>*##",
"%*'']((|}}||||<333321|[[_^]>==*#",
"*''''((||112333333321|}[_^]!>=*#",
"%%*''!]^_[[[}<13332}<[<:_])>>*$#",
"##*==,,)~_:<[|212311}[</{),,=*$#",
"#@$$==,;)~/<|1<2|<1}|[:^{)-=&&$@",
".@@$&&-;)~:|}<<1}[|}[[:^{,-=&$@@",
"..@@&&-;)(}[/<[|[<<}<:_^{),=&$@.",
"...@&&=,{_(~~:[[<</[[^~]!>>=&$@@",
" .@@$&'!({;;{/}::/~/_^)),>=*$#@+",
" ..@$=''>,-;)^__~^{)^]),,==*$#@@",
". @##*'==&--){({));;,{>>==$$#@++",
"%++#%**$&&--,!));;;-->>=&$$##@+%",
" +%%##@@@@&=>>>>>>=-==='$$#@@+++",
" %%+@@..&.$&='==-&&&&&$*$#@@.+% ",
" %%+ ....@$$*==&$&&&@$$##@@+ %  ",
"   %  ....@#*#$$$#@@@@@##+@++   ",
"        ..@####@@@@@..+@++%     "};
