/* XPM */
static const char * tile_xpm[] = {
"100 100 17 1",
" 	c None",
".	c #DCDCDC",
"+	c #D9D9D9",
"@	c #E4E4E4",
"#	c #DFDFDF",
"$	c #CECECE",
"%	c #D2D2D2",
"&	c #C8C8C8",
"*	c #CACACA",
"=	c #C4C4C4",
"-	c #BEBEBE",
";	c #D4D4D4",
">	c #E8E8E8",
",	c #D6D6D6",
"'	c #C6C6C6",
")	c #B2B2B2",
"!	c #E2E2E2",
".+@.##$%%$$$&*=..%$*%-;*>,%$%#>,$,%%*%*.#*%++$;+,,.&&=-%%+.$,#,=;%#,@.+,%>,+=-++@@#%$.++#,--;.=*+,,>",
"%%.&$@.#,*%*&'%%&$;,*%%,&%;%,#..;$$%';+.+,++.%.;+@@@$'.;'..;@.+$%)&!!,.!>+%@%-*%@>#.+&&+.+$%,++$$#++",
",.$&$+#+.%++$%,=$;$&'+.%%&-+++;%;;$%+%+;.#.+@!!..>#+$%;,$.+@,+.%-%%-%>#+.#+$%...%,!>>;$$$.%$+#+*++&*",
",$;;;..-*!;*.+%=*%;*%%=&$+$++,-%;+++++++++++#@@@>@#,++;$%;++#.+++%&*=#.+;%>@+,...++$>@#&%*%;.$=$##=;",
"%#$,+$$%,.++.%%,'*%;,$=-$+@,%*$+%.#+%,.++%;.,#@@@>#+*,$%;,++..@#.,+@+.#.+%#+!.,%#>%,,+>#.%$!#%=%$$#+",
"+*'%$)&,+,+,+*%,,$,+,*-&++$%%*%#@#%$;+.%,!.+;+!@+>..,%$,$;..#,@.$;%.##.#!#;;++#.+%!.,%,.@##>%,>%$,+,",
",,$$$%%%';+$%,$!,$,;;,..,&)%%+#!+..,++%%++#+#@+,##,;,%.%.+++.#;%+.,+#.,#+;#%.@,+#.+,#!,+.>#..,,++++.",
";=-;##%=$%,.$%%+;%%%$+.%&%%%,.,%++..+++;%;;.+#.+%..%;+,#+$%.;,....+.++.+,$$.#>.$+@&+#;.@@.%!@.#+@!,%",
"-$$&+%.,#;;&$$,*$+%%.#*='$,,+.;,+,##...$%++%.,++%,..+;%,%,,%+,.,##.+%%+@,'%#.++,,,%++.>++.>#+#>>.%,%",
",!.;$$$#.;%'-'&*+++.$=*%;,++;;;.+;++,+++@@%++++..$..+%+&$.+*;,++.+;+*%+#+++...+;.%+##@.%@>#.!>#&%+=$",
"...#%%,,;=-%$=%%@+.;==;=+#+%+*$#.%+%+@.++!,%,;;%..,,*,+'+,;;#.$%#%+%,.%&+#.$+@!%;,+##++#@!!#@@&%@..+",
"+$=%%$#,$--$=$%+#,=%%,%;$;%.+.,,+!++#..++%;.%%$..,#;.+$#%$$#;.%;+..+,.%,%+,..@++..*+#,+.#>@#.+++!.+.",
"..+'=;%$,+,%$*&%&=-;+#+%==..;,#,#.###@+$%,,$$;+@#.,;.*;.+&.#%*.>.,.#$'+.%%,,%##++;+,#*.@>#%%#@+%$@@.",
"..;+.$%=$,##,,'=&$$%%++$$%,,;$;.,##.+#;++;#+;+.>..#$$%,%;,%+=$+#.!...+%,%++%;&+#$%.%#@,;+#.,#,+.+%;,",
"%;+@++*$%%$+@,*&$$*&;%%.#,.$$,++#@@#.,+%.;%#+!#.,!#..'%;%+;%*%;+,!@..#,;.%%,+&,*$.,%@>!+;,###&;;#.;%",
"$$;+.,.;%=$$$,+%+$,&$%,,.+=$%.,;##!#.#$%.+%,+.@.,#%*#%$$;+*.+,$%%@.+@..+,$%++$&%#+,.#,#@#.&$$++,+.,,",
",%+.+$.;&;%+,$,+,+%%**$+*$+,%+%,$%.%;@+%##;;;;#+##%*$%'*&++.;.+;.#+;#>++,+*%%%++,,.#;=@@.+,;$&;%;%$-",
"%'.+,'*;;;#+;&$#$$,%*,$=%,+,,%%$%%%+%!@++#;++&+.,.;,&$-%,;,++%..#+;++$+#,++,=%%+++!#++..+;;,%,%=&+..",
"%,;+%&$$+#%%++%;$&&%%%'%,,+++%,%;*.+%%>..+,+##+%+;=.&&,%$#.%;%!@,+,%,,+++.+.*%%;$.%+#!+&,;,;+,%+$=,$",
"%#.&%,-;+$+.,++$*$%&=$,,;#,.,&;&.,+%++;%.+%,+!#.;%%&*,,%.$,;&#!.%%%%++,.%,;+,%.#.$;++;%;++#,$=.++,$=",
";%;%$,$%=%#.@,,$*%*=%;%%+%$.%&'+%$#.=,++&;$>#*..+,%+$+;,,#.;.@,%.+,+;,#++,$$+++.++,+#%%$%##.,++*$+;.",
"$+%$;.,*$#+%.!..,%=*$&$;;%$%$+,$$%%%'++,+,.@#+.,$.,!;#;$,#,#++,%.%.,.+;.$%.,++%%$+,#%,+,$,.%.%$+.$,;",
"-%@#..%$+;%+;,%.+,$$'$*+%%;,%$$%%+;;,&'%#.##...$#.!$'#>+&,+#,+$*+.;+#,%%;,.!+,+$$%+.+++*+..+,+%,#+.=",
";%;###+@!;+$$;,$.+.%$$%.%.$*%&&,.,,;+;$&$+.+..$+#+$%.!.%$%%+#*;;&,#++%,,+,;#++$$%++,%,%%++!.+@.;*#,*",
"*%%+@%+#,...,$;,'$++,;#&,,&'=&'*+++.%$-=$$%!..#,%%++>+=#%;+,++,++.%..+$;.+,+$%%+,.;&,#+,*.++##@;%,%-",
"%$%#,.++$+#+%%+$'%&.,;#+$&$&&%-;,$.!+=*&=*.#;#.,%,@@$;#.*%..,+,#@..+,$%@,,.&%$;,%%$%,+%+%+&,@.##.+**",
"%*..+%.;+#,+.$$,;*$$%+;+%%$,%'%;%*%.;%+$=,%*$++,+>+'..,$%;!%$##@+#..$%.%;,,%$%%;==..$%%,+,++$;@.&+>#",
"%@@%'+$+.%.#.=&,%%%$';%&%$+.%&.%**+=$+#%.%%';%*$>.&=..%$$*...+,.;.#%.#+.@$%%.,$-&,,,%;*#%;#$,+;#+#@.",
"!@.;=,.;$@.;+.$''%%=.;=;+%*,..;=&%=$+,&,+%,+;%$;,.&!.+%$+#,+,#.;.,%,.,.>!$$;;%;%,,$*%;%+#;;+#%#>!+,.",
"##+-..+,+...+%+;$&&,*&,%,;%%%*+,%*,%%%%=-.+;##%,$$,!+!+%!,%%+#,%+;+.+;.%%;$$=+%+;,;'$,;++++..>>#%%##",
"#+%@@;++.++%,;+.%*%-$%%;%.@%*$%.,+;%++'%&;&.>%@++%$%.,%+%$###.+*+#.,%++'#%$%&$%*%$;%+.+,##++!.+#!!.%",
".-%##!@.%%$%;..;,+%$&%&%++.;+,+%%+;%;.++#$$@;#$.#%.=*$#,*+%$%+..+;;%++;;+!;$'%+'=%;;.##+.++.#+#.#.,.",
"#@!#+#@.%+%$,++,,;;,+%*&%;+%%$=#+&$+**+#,+@..#.'$,#;,*,+!%%,%.#;%$%$&;,%%,.$%.%-$;;!@$%%..+.##!+,$.$",
"..@>#@++;+;%%++..%;+!+%$;.;+'-%$+%,,=%.$+!+#@+%$>*-,%+..$=%%#.-=*%++$;%&%%&$.;%'%%.+%;.&,+#!!#+*;$*&",
">@%+.;%%#+$+*$++$;*.+%%%+,+%*&$&,+;',@=%+$#.%*..&''&.+#.;$&$;%&&.$=&$,$%=*+.&&,.+.+;,.;;%.#.++,+''&.",
"!+..$&+%$;.,++%,%%%,#,+.%+%$&,$*.+&.+$+%$.@&&+#%-=,,#;%%.#.$&%&+.%=','*$++.%%%.+.+%;++%,,#+,*.;%..@@",
"$;+%,.&=-;++@..$$,%+!!%%.%$;$;;==%#.$$$$##;++#+$=$...;%*+%+.,%%$&$*%$==,#$&$$+,++,%;%++;%+%-$++.+!@%",
".%;++.-*$%%;+.+$+;..++...,;*+%;%%.!$;+,++%+.+%;.;,,.;+%$,&&.#%&'-&%,=-,+%&&,+#+;;+,.+#+++,'%.;.##+$#",
"...#%%%*=%+$+,+....+,+.;!++;$$%,.+,+$,++#+#>+.$++.$#++$%%$%+*&+,%=%==+%'=%%+.,.&%%+%#.%%,%%%.;++%%;&",
"%+.+%+*+&;$%$$.+.!#;#+%=&#@,;$..%#;++=$,.#!#+..+#,,%$&&+;;,,$-+#;+-=$$&$%++,,$$%%+%.%$,*$%%+$%;=$,*%",
".%;!.$$%#,+=$$%,!#@#;;+.%*=+#.,,.+%+.$+++%%,%.#>.;+$;$&++%'$,++.+%+,,=$'+++,*%,;+*;,%$,%+&*%++&-;%$$",
"%++;+.%+$$%%$$%,+#.%.@.%;$++*>#+,;.&$@.!#='&@+@@..*$,%%+%$%$%#;+,;#%%$;+,+%$%$%++&%&;;%;$&$*&;;%;,$%",
"%+=$#+,%&''++,.+$#.!+%%+;*%.!++*%+.',.%;!;.#.;#@+%%$;..%-%%*,;+,,%$$$.!+'$%%%$;+%%+.+++*+;$%;%,%;,;$",
"*$$,,;;$$$$++#.$+%.@%;..%+.;#+&,.+*.;..$&,!.;+;..*%;,%%+%*'*&%!.'*$%$$'..++%,;$%%++;&+,%%%$%,,..++&&",
"'&$,,+*%+%%..+;#.+#$%+.+.,+;%$.%+*$++,.%++#@#$'$.!%%;$-%%+$$-%+$,.+;&)'%;.!#,%%%++,%$%';,$%%.+%,#+&+",
"'%,%*$%%%,,..;;..,+.+,%+,+,,*,#+&%%#.#.!.;@!%%...%.&=$+&&%,%#%*,;*;*=&'$;+.##,,+.$+,*-'%%+,;.;$'%%,,",
".+,$--&$,+$&..#+%,%,$!+%++,+.%+%%$+%!#!##+++*$,@!#%-$+'%.$-+%%%&%$-**=&$%%.;%+#.;$%.$;+%,%,;;%;*$%;=",
",;&===*;%*,=,#+##%).*%>#%+$#,*=.+%$+.$#.$+@%;*%+#..#+=+@#&$-*,..'-*;-$$;$=';,++#@%%$+@+%%%$$,+&&+;$#",
";'=$+$;;)%=,%+..%+#,,%&$+#,.;$$.,+#;#+,$%##;;;%&+;#$&+.$;%%-&;.;&;-;$$=$*-$,.,;;.#!.,.,$%,,,%&*;%;..",
"*)=)&%.#'-&,+%%#;;+>.$,+.*%#+!,,&,@;,,,.@=%&';,+.,;+.>.;&%=+*,+&,%;*;%%'-$++%.%,.%%+&$;%%,%.%=.=*%%*",
".&&=-%%+.$,#,=;%#,@.+,%>,+=-++@@#%$.++#,--;.=*+,,>.+@.##$%%$$$&*=..%$*%-;*>,%$%#>,$,%%*%*.#*%++$;+,,",
"@@$'.;'..;@.+$%)&!!,.!>+%@%-*%@>#.+&&+.+$%,++$$#++%%.&$@.#,*%*&'%%&$;,*%%,&%;%,#..;$$%';+.+,++.%.;+@",
"#+$%;,$.+@,+.%-%%-%>#+.#+$%...%,!>>;$$$.%$+#+*++&*,.$&$+#+.%++$%,=$;$&'+.%%&-+++;%;;$%+%+;.#.+@!!..>",
"#,++;$%;++#.+++%&*=#.+;%>@+,...++$>@#&%*%;.$=$##=;,$;;;..-*!;*.+%=*%;*%%=&$+$++,-%;+++++++++++#@@@>@",
"#+*,$%;,++..@#.,+@+.#.+%#+!.,%#>%,,+>#.%$!#%=%$$#+%#$,+$$%,.++.%%,'*%;,$=-$+@,%*$+%.#+%,.++%;.,#@@@>",
"..,%$,$;..#,@.$;%.##.#!#;;++#.+%!.,%,.@##>%,>%$,+,+*'%$)&,+,+,+*%,,$,+,*-&++$%%*%#@#%$;+.%,!.+;+!@+>",
",;,%.%.+++.#;%+.,+#.,#+;#%.@,+#.+,#!,+.>#..,,++++.,,$$$%%%';+$%,$!,$,;;,..,&)%%+#!+..,++%%++#+#@+,##",
".%;+,#+$%.;,....+.++.+,$$.#>.$+@&+#;.@@.%!@.#+@!,%;=-;##%=$%,.$%%+;%%%$+.%&%%%,.,%++..+++;%;;.+#.+%.",
"..+;%,%,,%+,.,##.+%%+@,'%#.++,,,%++.>++.>#+#>>.%,%-$$&+%.,#;;&$$,*$+%%.#*='$,,+.;,+,##...$%++%.,++%,",
"..+%+&$.+*;,++.+;+*%+#+++...+;.%+##@.%@>#.!>#&%+=$,!.;$$$#.;%'-'&*+++.$=*%;,++;;;.+;++,+++@@%++++..$",
",,*,+'+,;;#.$%#%+%,.%&+#.$+@!%;,+##++#@!!#@@&%@..+...#%%,,;=-%$=%%@+.;==;=+#+%+*$#.%+%+@.++!,%,;;%..",
"#;.+$#%$$#;.%;+..+,.%,%+,..@++..*+#,+.#>@#.+++!.+.+$=%%$#,$--$=$%+#,=%%,%;$;%.+.,,+!++#..++%;.%%$..,",
",;.*;.+&.#%*.>.,.#$'+.%%,,%##++;+,#*.@>#%%#@+%$@@...+'=;%$,+,%$*&%&=-;+#+%==..;,#,#.###@+$%,,$$;+@#.",
"#$$%,%;,%+=$+#.!...+%,%++%;&+#$%.%#@,;+#.,#,+.+%;,..;+.$%=$,##,,'=&$$%%++$$%,,;$;.,##.+#;++;#+;+.>..",
"#..'%;%+;%*%;+,!@..#,;.%%,+&,*$.,%@>!+;,###&;;#.;%%;+@++*$%%$+@,*&$$*&;%%.#,.$$,++#@@#.,+%.;%#+!#.,!",
"%*#%$$;+*.+,$%%@.+@..+,$%++$&%#+,.#,#@#.&$$++,+.,,$$;+.,.;%=$$$,+%+$,&$%,,.+=$%.,;##!#.#$%.+%,+.@.,#",
"%*$%'*&++.;.+;.#+;#>++,+*%%%++,,.#;=@@.+,;$&;%;%$-,%+.+$.;&;%+,$,+,+%%**$+*$+,%+%,$%.%;@+%##;;;;#+##",
";,&$-%,;,++%..#+;++$+#,++,=%%+++!#++..+;;,%,%=&+..%'.+,'*;;;#+;&$#$$,%*,$=%,+,,%%$%%%+%!@++#;++&+.,.",
"=.&&,%$#.%;%!@,+,%,,+++.+.*%%;$.%+#!+&,;,;+,%+$=,$%,;+%&$$+#%%++%;$&&%%%'%,,+++%,%;*.+%%>..+,+##+%+;",
"%&*,,%.$,;&#!.%%%%++,.%,;+,%.#.$;++;%;++#,$=.++,$=%#.&%,-;+$+.,++$*$%&=$,,;#,.,&;&.,+%++;%.+%,+!#.;%",
"%+$+;,,#.;.@,%.+,+;,#++,$$+++.++,+#%%$%##.,++*$+;.;%;%$,$%=%#.@,,$*%*=%;%%+%$.%&'+%$#.=,++&;$>#*..+,",
",!;#;$,#,#++,%.%.,.+;.$%.,++%%$+,#%,+,$,.%.%$+.$,;$+%$;.,*$#+%.!..,%=*$&$;;%$%$+,$$%%%'++,+,.@#+.,$.",
"!$'#>+&,+#,+$*+.;+#,%%;,.!+,+$$%+.+++*+..+,+%,#+.=-%@#..%$+;%+;,%.+,$$'$*+%%;,%$$%%+;;,&'%#.##...$#.",
"$%.!.%$%%+#*;;&,#++%,,+,;#++$$%++,%,%%++!.+@.;*#,*;%;###+@!;+$$;,$.+.%$$%.%.$*%&&,.,,;+;$&$+.+..$+#+",
"++>+=#%;+,++,++.%..+$;.+,+$%%+,.;&,#+,*.++##@;%,%-*%%+@%+#,...,$;,'$++,;#&,,&'=&'*+++.%$-=$$%!..#,%%",
"@@$;#.*%..,+,#@..+,$%@,,.&%$;,%%$%,+%+%+&,@.##.+**%$%#,.++$+#+%%+$'%&.,;#+$&$&&%-;,$.!+=*&=*.#;#.,%,",
"+'..,$%;!%$##@+#..$%.%;,,%$%%;==..$%%,+,++$;@.&+>#%*..+%.;+#,+.$$,;*$$%+;+%%$,%'%;%*%.;%+$=,%*$++,+>",
"&=..%$$*...+,.;.#%.#+.@$%%.,$-&,,,%;*#%;#$,+;#+#@.%@@%'+$+.%.#.=&,%%%$';%&%$+.%&.%**+=$+#%.%%';%*$>.",
"&!.+%$+#,+,#.;.,%,.,.>!$$;;%;%,,$*%;%+#;;+#%#>!+,.!@.;=,.;$@.;+.$''%%=.;=;+%*,..;=&%=$+,&,+%,+;%$;,.",
",!+!+%!,%%+#,%+;+.+;.%%;$$=+%+;,;'$,;++++..>>#%%####+-..+,+...+%+;$&&,*&,%,;%%%*+,%*,%%%%=-.+;##%,$$",
"$%.,%+%$###.+*+#.,%++'#%$%&$%*%$;%+.+,##++!.+#!!.%#+%@@;++.++%,;+.%*%-$%%;%.@%*$%.,+;%++'%&;&.>%@++%",
".=*$#,*+%$%+..+;;%++;;+!;$'%+'=%;;.##+.++.#+#.#.,..-%##!@.%%$%;..;,+%$&%&%++.;+,+%%+;%;.++#$$@;#$.#%",
"#;,*,+!%%,%.#;%$%$&;,%%,.$%.%-$;;!@$%%..+.##!+,$.$#@!#+#@.%+%$,++,,;;,+%*&%;+%%$=#+&$+**+#,+@..#.'$,",
"-,%+..$=%%#.-=*%++$;%&%%&$.;%'%%.+%;.&,+#!!#+*;$*&..@>#@++;+;%%++..%;+!+%$;.;+'-%$+%,,=%.$+!+#@+%$>*",
"'&.+#.;$&$;%&&.$=&$,$%=*+.&&,.+.+;,.;;%.#.++,+''&.>@%+.;%%#+$+*$++$;*.+%%%+,+%*&$&,+;',@=%+$#.%*..&'",
",,#;%%.#.$&%&+.%=','*$++.%%%.+.+%;++%,,#+,*.;%..@@!+..$&+%$;.,++%,%%%,#,+.%+%$&,$*.+&.+$+%$.@&&+#%-=",
"...;%*+%+.,%%$&$*%$==,#$&$$+,++,%;%++;%+%-$++.+!@%$;+%,.&=-;++@..$$,%+!!%%.%$;$;;==%#.$$$$##;++#+$=$",
",.;+%$,&&.#%&'-&%,=-,+%&&,+#+;;+,.+#+++,'%.;.##+$#.%;++.-*$%%;+.+$+;..++...,;*+%;%%.!$;+,++%+.+%;.;,",
"$#++$%%$%+*&+,%=%==+%'=%%+.,.&%%+%#.%%,%%%.;++%%;&...#%%%*=%+$+,+....+,+.;!++;$$%,.+,+$,++#+#>+.$++.",
",%$&&+;;,,$-+#;+-=$$&$%++,,$$%%+%.%$,*$%%+$%;=$,*%%+.+%+*+&;$%$$.+.!#;#+%=&#@,;$..%#;++=$,.#!#+..+#,",
"+$;$&++%'$,++.+%+,,=$'+++,*%,;+*;,%$,%+&*%++&-;%$$.%;!.$$%#,+=$$%,!#@#;;+.%*=+#.,,.+%+.$+++%%,%.#>.;",
"*$,%%+%$%$%#;+,;#%%$;+,+%$%$%++&%&;;%;$&$*&;;%;,$%%++;+.%+$$%%$$%,+#.%.@.%;$++*>#+,;.&$@.!#='&@+@@..",
"%$;..%-%%*,;+,,%$$$.!+'$%%%$;+%%+.+++*+;$%;%,%;,;$%+=$#+,%&''++,.+$#.!+%%+;*%.!++*%+.',.%;!;.#.;#@+%",
"%;,%%+%*'*&%!.'*$%$$'..++%,;$%%++;&+,%%%$%,,..++&&*$$,,;;$$$$++#.$+%.@%;..%+.;#+&,.+*.;..$&,!.;+;..*",
"%%;$-%%+$$-%+$,.+;&)'%;.!#,%%%++,%$%';,$%%.+%,#+&+'&$,,+*%+%%..+;#.+#$%+.+.,+;%$.%+*$++,.%++#@#$'$.!",
".&=$+&&%,%#%*,;*;*=&'$;+.##,,+.$+,*-'%%+,;.;$'%%,,'%,%*$%%%,,..;;..,+.+,%+,+,,*,#+&%%#.#.!.;@!%%...%",
"%-$+'%.$-+%%%&%$-**=&$%%.;%+#.;$%.$;+%,%,;;%;*$%;=.+,$--&$,+$&..#+%,%,$!+%++,+.%+%%$+%!#!##+++*$,@!#",
".#+=+@#&$-*,..'-*;-$$;$=';,++#@%%$+@+%%%$$,+&&+;$#,;&===*;%*,=,#+##%).*%>#%+$#,*=.+%$+.$#.$+@%;*%+#.",
"#$&+.$;%%-&;.;&;-;$$=$*-$,.,;;.#!.,.,$%,,,%&*;%;..;'=$+$;;)%=,%+..%+#,,%&$+#,.;$$.,+#;#+,$%##;;;%&+;",
";+.>.;&%=+*,+&,%;*;%%'-$++%.%,.%%+&$;%%,%.%=.=*%%**)=)&%.#'-&,+%%#;;+>.$,+.*%#+!,,&,@;,,,.@=%&';,+.,"};
