#define whiteking_3_width 56
#define whiteking_3_height 56
static unsigned char whiteking_3_bits[] = {
0x00, 0x00, 0x0c, 0x0c, 0x00, 0x00, 0x00, 
0x00, 0x40, 0x40, 0x81, 0x00, 0x00, 0x00, 
0x00, 0x18, 0x40, 0x09, 0x00, 0x00, 0x00, 
0x00, 0x06, 0x52, 0x09, 0x00, 0x00, 0x00, 
0x00, 0x91, 0x52, 0x05, 0x00, 0x00, 0x00, 
0x80, 0x94, 0x50, 0x05, 0x00, 0x00, 0x00, 
0x40, 0x04, 0x00, 0x00, 0x00, 0x00, 0x00, 
0x20, 0x01, 0x00, 0x00, 0x00, 0x00, 0x00, 
0x10, 0x01, 0x50, 0x05, 0x60, 0x00, 0x00, 
0x08, 0x00, 0xaa, 0x2a, 0x00, 0x00, 0x00, 
0x08, 0x40, 0x55, 0x55, 0x80, 0x01, 0x00, 
0x04, 0xa0, 0x0a, 0xaa, 0x00, 0x00, 0x00, 
0x04, 0x50, 0x10, 0x41, 0x05, 0x03, 0x00, 
0x02, 0xa8, 0x08, 0xa2, 0x0a, 0x00, 0x00, 
0x02, 0x04, 0x50, 0x01, 0x14, 0x00, 0x00, 
0x00, 0x88, 0xaa, 0x2a, 0x1a, 0x03, 0x00, 
0x00, 0x04, 0x59, 0x11, 0x34, 0x00, 0x00, 
0x01, 0xaa, 0xa8, 0xa8, 0x2a, 0x06, 0x00, 
0x0d, 0x55, 0x51, 0x54, 0x55, 0x00, 0x00, 
0x31, 0xa2, 0x28, 0x2a, 0x6a, 0x00, 0x00, 
0x00, 0x45, 0x54, 0x15, 0x55, 0x07, 0x00, 
0x3e, 0xa2, 0xa8, 0xaa, 0x6b, 0x00, 0x00, 
0x00, 0x45, 0x55, 0x55, 0x55, 0x1f, 0x00, 
0x3e, 0x8a, 0xaa, 0xaa, 0x6a, 0x00, 0x00, 
0x00, 0x45, 0x55, 0xd5, 0x55, 0x1f, 0x00, 
0x38, 0x8a, 0xaa, 0xaa, 0x6a, 0x00, 0x00, 
0x01, 0x15, 0x55, 0x55, 0x55, 0x03, 0x00, 
0x01, 0x2a, 0xaa, 0xea, 0x6a, 0x0c, 0x00, 
0x19, 0x14, 0x54, 0x55, 0x35, 0x00, 0x00, 
0x00, 0x2a, 0xaa, 0xaa, 0x2a, 0x00, 0x00, 
0x30, 0x54, 0x54, 0x55, 0x15, 0x00, 0x00, 
0x02, 0xa8, 0xaa, 0xaa, 0x1a, 0x00, 0x00, 
0x00, 0x50, 0x55, 0xd5, 0x0d, 0x00, 0x00, 
0x30, 0xa0, 0xaa, 0xea, 0x06, 0x00, 0x00, 
0x00, 0x50, 0x55, 0x55, 0x03, 0x00, 0x00, 
0x60, 0xa0, 0xaa, 0xaa, 0x01, 0x00, 0x00, 
0x00, 0xc0, 0x55, 0xd5, 0x00, 0x00, 0x00, 
0x80, 0x01, 0xab, 0x3a, 0x20, 0x00, 0x00, 
0x00, 0x00, 0xfc, 0x0f, 0x20, 0x00, 0x00, 
0x00, 0x00, 0x00, 0x00, 0x08, 0x00, 0x00, 
0x00, 0x00, 0xa8, 0x42, 0x0a, 0x00, 0x00, 
0x00, 0x00, 0xa8, 0x52, 0x02, 0x00, 0x00, 
0x00, 0x00, 0xa4, 0x12, 0x00, 0x00, 0x00, 
0x00, 0x00, 0xa4, 0x00, 0x00, 0x00, 0x00, 
0x00, 0x00, 0xa0, 0x00, 0x00, 0x00, 0x00, 
0x00, 0x00, 0x00, 0x00, 0x00, 0x00, 0x00, 
0x00, 0x00, 0x00, 0x00, 0x00, 0x00, 0x00, 
0x00, 0x00, 0x00, 0x00, 0x00, 0x00, 0x00, 
0x00, 0x00, 0x00, 0x00, 0x00, 0x00, 0x00, 
0x00, 0x00, 0x00, 0x00, 0x00, 0x00, 0x00, 
0x00, 0x00, 0x00, 0x00, 0x00, 0x00, 0x00, 
0x00, 0x00, 0x00, 0x00, 0x00, 0x00, 0x00, 
0x00, 0x00, 0x00, 0x00, 0x00, 0x00, 0x00, 
0x00, 0x00, 0x00, 0x00, 0x00, 0x00, 0x00, 
0x00, 0x00, 0x00, 0x00, 0x00, 0x00, 0x00, 
0x00, 0x00, 0x00, 0x00, 0x00, 0x00, 0x00, 
};
