#define whiteking_1_width 56
#define whiteking_1_height 56
static unsigned char whiteking_1_bits[] = {
0x00, 0x00, 0x00, 0x00, 0x00, 0x00, 0x00, 
0x00, 0x00, 0x00, 0x00, 0x00, 0x00, 0x00, 
0x00, 0x00, 0x00, 0x00, 0x00, 0x00, 0x00, 
0x00, 0x00, 0x00, 0x00, 0x00, 0x00, 0x00, 
0x00, 0x00, 0x00, 0x00, 0x00, 0x00, 0x00, 
0x00, 0x00, 0x00, 0x00, 0x00, 0x00, 0x00, 
0x00, 0x00, 0x00, 0x00, 0x80, 0x00, 0x00, 
0x00, 0x00, 0x00, 0x00, 0x00, 0x01, 0x00, 
0x00, 0x00, 0x00, 0x00, 0x00, 0x02, 0x00, 
0x00, 0x00, 0x00, 0x00, 0x00, 0x04, 0x00, 
0x00, 0x00, 0x00, 0x00, 0x00, 0x08, 0x00, 
0x00, 0x00, 0x00, 0x00, 0x00, 0x10, 0x00, 
0x00, 0x00, 0x00, 0x00, 0x00, 0x28, 0x00, 
0x00, 0x00, 0x00, 0x00, 0x00, 0x50, 0x00, 
0x00, 0x00, 0x00, 0x00, 0x00, 0xa0, 0x00, 
0x00, 0x00, 0x00, 0x00, 0x00, 0x40, 0x01, 
0x00, 0x00, 0x00, 0x00, 0x00, 0xa0, 0x02, 
0x00, 0x00, 0x00, 0x00, 0x00, 0x40, 0x05, 
0x00, 0x00, 0x00, 0x00, 0x00, 0xa0, 0x0a, 
0x00, 0x00, 0x00, 0x00, 0x00, 0x40, 0x15, 
0x00, 0x00, 0x00, 0x00, 0x00, 0x80, 0x0a, 
0x00, 0x00, 0x00, 0x00, 0x00, 0x40, 0x15, 
0x00, 0x00, 0x00, 0x00, 0x00, 0x80, 0x2a, 
0x00, 0x00, 0x00, 0x00, 0x00, 0x40, 0x55, 
0x00, 0x00, 0x00, 0x00, 0x00, 0x80, 0x2a, 
0x00, 0x00, 0x00, 0x00, 0x00, 0x40, 0x55, 
0x00, 0x00, 0x00, 0x00, 0x00, 0xa0, 0x2a, 
0x00, 0x00, 0x00, 0x00, 0x00, 0x40, 0x55, 
0x00, 0x00, 0x00, 0x00, 0x00, 0xa0, 0xaa, 
0x00, 0x00, 0x00, 0x00, 0x00, 0x40, 0x55, 
0x00, 0x00, 0x00, 0x00, 0x00, 0xa0, 0xaa, 
0x00, 0x00, 0x00, 0x00, 0x00, 0x50, 0x55, 
0x00, 0x00, 0x00, 0x00, 0x00, 0xa0, 0xaa, 
0x00, 0x00, 0x00, 0x00, 0x00, 0x50, 0x55, 
0x00, 0x00, 0x00, 0x00, 0x00, 0xa8, 0xaa, 
0x00, 0x00, 0x00, 0x00, 0x00, 0x54, 0x55, 
0x00, 0x00, 0x00, 0x00, 0x00, 0xa8, 0xaa, 
0x00, 0x00, 0x00, 0x00, 0x00, 0x54, 0x55, 
0x00, 0x00, 0x00, 0x00, 0x00, 0xaa, 0xaa, 
0x00, 0x00, 0x00, 0x00, 0x00, 0x55, 0x55, 
0x80, 0x00, 0x00, 0x00, 0x80, 0xaa, 0x2a, 
0x00, 0x01, 0x00, 0x00, 0x40, 0x55, 0x55, 
0x00, 0x02, 0x00, 0x00, 0xa8, 0xaa, 0x2a, 
0x00, 0x14, 0x00, 0x00, 0x54, 0x55, 0x15, 
0x00, 0x28, 0x00, 0x80, 0xaa, 0xaa, 0x2a, 
0x00, 0x50, 0x05, 0x54, 0x55, 0x55, 0x15, 
0x00, 0xa0, 0xaa, 0xaa, 0xaa, 0xaa, 0x0a, 
0x00, 0x40, 0x55, 0x55, 0x55, 0x55, 0x05, 
0x00, 0x80, 0xaa, 0xaa, 0xaa, 0xaa, 0x02, 
0x00, 0x00, 0x55, 0x55, 0x55, 0x55, 0x01, 
0x00, 0x00, 0xaa, 0xaa, 0xaa, 0xaa, 0x00, 
0x00, 0x00, 0x54, 0x55, 0x55, 0x55, 0x00, 
0x00, 0x00, 0xa8, 0xaa, 0xaa, 0x2a, 0x00, 
0x00, 0x00, 0x40, 0x55, 0x55, 0x15, 0x00, 
0x00, 0x00, 0x00, 0xaa, 0xaa, 0x02, 0x00, 
0x00, 0x00, 0x00, 0x50, 0x15, 0x00, 0x00, 
};
