/* XPM */
static const char * yellow_bomb_xpm[] = {
"32 32 32 1",
" 	c #000100",
".	c #393900",
"+	c #2A4602",
"@	c #434101",
"#	c #474900",
"$	c #435B00",
"%	c #515116",
"&	c #5B5C20",
"*	c #676800",
"=	c #666635",
"-	c #7C7B50",
";	c #848323",
">	c #838442",
",	c #8E9200",
"'	c #8A8A5F",
")	c #A6A600",
"!	c #9A9B6D",
"~	c #B2B102",
"{	c #AFB132",
"]	c #BAB900",
"^	c #C1C300",
"/	c #C6C42C",
"(	c #CFD000",
"_	c #C7C84F",
":	c #CBCA40",
"<	c #CCCC67",
"[	c #D7D984",
"}	c #E0E167",
"|	c #E0E07A",
"1	c #E6E6A0",
"2	c #EEEE88",
"3	c #EDED97",
"     $,)]]]~]]]]^]]~]]^^),$     ",
"   +,(/}2111111111111113</~,+   ",
"  $((}33333113133311111111[]^$  ",
" +^(233223233333233111111111/(+ ",
" ,^2222222222332222233[[1[[1[() ",
"$^}2|2}22}22|||22222}22[[[[[[}^$",
",^}}}|}}}}}[!!'!!!![<|}|<[[[[[^,",
"):_}}}}}}}!''''''!''!!<|<<<<<<_)",
"^:}:}}:}<'''-''''''''!'<}_}<<<_]",
"]_:}/:}{-=--------'>'>--_}_____]",
"~::/:/_>=-=--=--=--=---->____<<)",
"~:///:;=============>===={:{{{{)",
"]^///:>%=.=.========&====>{:{{{,",
"^^^]~{.=.==.=%%%&&&&&=&&&%/~{{{~",
"]^^/))....=.%%=%%%%&%%%%%%/~~~~~",
"^^^^/{.=...%@@@@%#%@%@%%%%]/~/~~",
"^((^]~...%%@@@@.@@@@@@.@@@]]]~]]",
"]^((]/..@@@%..@@@@@@@.@.@@]~~]~~",
"~]]^]]@%@#@@...@@@@@@.@@@@^]~))~",
")~]]^^;@##@#@........@@@#;^^]~))",
"~~]]^()#@##@@......@..@@@)((^]~)",
"~]^^(((*####@..........@*(((^~~]",
"]]^^(((^##@@@..........@)^^(^]]]",
"/]]((((()##@..........@)(((((^]]",
")]~]((^^])*@@@@.....@*,]]^^((((~",
",]]]]]]~~~~,*@@#@@@*,]]]^^((((^,",
"$~~]/]~)))~]]]]]^^(((^]]^(((((($",
" ,]~]~~),))~~~~]]^((^^]]((((((, ",
" +]]^^^])))))))~^^(((]]^((((((+ ",
"  $^^^]~)))))))]^(((^^](((((($  ",
"   +,(^]~)~))))~]^^^^^/^((({+   ",
"     $,,~]~)),)~^^(^(^^^/,$     "};
