/* XPM */
static const char * const flChoice_xpm[] = {
/* width height ncolors chars_per_pixel */
"32 32 7 1",
/* colors */
"a c #808080",
"b c #2020ff",
"c c none",
"d c #a0a0a0",
"e c #8080ff",
"f c #d0d0d0",
"g c #000000",
/* pixels */
"cccccccccccccccccccccccccccccccc",
"cccccccccccccccccccccccccccccccc",
"cccccccccccccccccccccccccccccccc",
"cccccccccccccccccccccccccccccccc",
"cccccccccccccccccccccccccccccccc",
"cccccccccccccccccccccccccccccccc",
"cccccccccccccccccccccccccccccccc",
"cccccccccccccccccccccccccccccccc",
"cccccccccccccccccccccccccccccccc",
"cccggggggggggggggggggggggggggccc",
"ccgffffffffffffgfffffffffffffgcc",
"cgffdddddddddddgddddddgdddddfagc",
"cgfddddddddddddgdddddgggdddddagc",
"cgfddddddddddddgddddgggggddddagc",
"cgfddddddddddddgdddgggggggdddagc",
"cgfddddddddddddgddgggggggggddagc",
"cgfddddddddddddgdddddddddddddagc",
"cgfddddddddddddgdddddddddddddagc",
"cgfddddddddddddgddgggggggggddagc",
"cgfddddddddddddgdddgggggggdddagc",
"cgfddddddddddddgddddgggggddddagc",
"cgfddddddddddddgdddddgggdddddagc",
"cgffdddddddddddgddddddgdddddaagc",
"ccgaaaaaaaaaaaagaaaaaaaaaaaaagcc",
"cccggggggggggggggggggggggggggccc",
"cccccccccccccccccccccccccccccccc",
"cccccccccccccccccccccccccccccccc",
"cccccccccccccccccccccccccccccccc",
"cccccccccccccccccccccccccccccccc",
"cccccccccccccccccccccccccccccccc",
"cccccccccccccccccccccccccccccccc",
"cccccccccccccccccccccccccccccccc"
};
