/* XPM */
static const char * const flCheckBrowser_xpm[] = {
"32 32 6 1",
/* colors */
"a c #606060",
"b c #888888",
"c c none",
"d c #ffffff",
"e c #bbbbbb",
"f c #000000",
/* pixels */
"cccccccccccccccccccccccccccccccc",
"cccccccccccccccccccccccccccccccc",
"ffffffffffffffffffffffffffffffcc",
"ffffffffffffffffffffffffffffffcc",
"ffddddddddddddddddddddddaaeeffcc",
"ffddddddddddddddddddddddaaeeffcc",
"ffddffffffddddddddddddddaabbffcc",
"ffddffffffddddddddddddddaabbffcc",
"ffddffddffddddddddddddddaabbffcc",
"ffddffddffddddddddddddddaabbffcc",
"ffddffffffddddddddddddddaabbffcc",
"ffddffffffddddddddddddddaabbffcc",
"ffddddddddddddddddddddddaabbffcc",
"ffddddddddddddddddddddddaabbffcc",
"ffddffffffddddddddddddddaabbffcc",
"ffddffffffddddddddddddddaabbffcc",
"ffddffddffddddddddddddddaabbffcc",
"ffddffddffddddddddddddddaabbffcc",
"ffddffffffddddddddddddddaabbffcc",
"ffddffffffddddddddddddddaabbffcc",
"ffddddddddddddddddddddddaabbffcc",
"ffddddddddddddddddddddddaabbffcc",
"ffddddddddddddddddddddddaabbffcc",
"ffddddddddddddddddddddddaabbffcc",
"ffaaaaaaaaaaaaaaaaaaaaaaaaaaffcc",
"ffaaaaaaaaaaaaaaaaaaaaaaaaaaffcc",
"ffeebbbbbbbbbbeeeeeeeeeeaaeeffcc",
"ffeebbbbbbbbbbeeeeeeeeeeaaeeffcc",
"ffffffffffffffffffffffffffffffcc",
"ffffffffffffffffffffffffffffffcc",
"cccccccccccccccccccccccccccccccc",
"cccccccccccccccccccccccccccccccc"
};
