/* XPM */
static const char * const flCheckButton_xpm[] = {
/* width height ncolors chars_per_pixel */
"32 32 8 1",
/* colors */
"m c #111111",
"a c #777777",
"b c #2020ff",
"c c none",
"d c #ffffff",
"f c #aaaaaa",
"g c #222222",
"' c #000000",
/* pixels */
"cccccccccccccccccccccccccccccccc",
"cccccccccccccccccccccccccccccccc",
"cccccccccccccccccccccccccccccccc",
"cccccccccccccccccccccccccccccccc",
"cccccccccccccccccccccccccccccccc",
"cccccccccccccccccccccccccccccccc",
"ccccccccmmmmmmmmmmmmmmmmcccccccc",
"cccccccmaaaaaaaaaaaaaaaagccccccc",
"ccccccmaadddddddddddddddfgcccccc",
"ccccccmaddddddddddddddddfgcccccc",
"ccccccmadddddddddddd'''dfgcccccc",
"ccccccmadddddddddddd'''dfgcccccc",
"ccccccmaddddddddddd'''ddfgcccccc",
"ccccccmaddddddddddd'''ddfgcccccc",
"ccccccmadddddddddd'''dddfgcccccc",
"ccccccmadddddddddd'''dddfgcccccc",
"ccccccmad'''ddddd'''ddddfgcccccc",
"ccccccmadd'''dddd'''ddddfgcccccc",
"ccccccmaddd'''dd'''dddddfgcccccc",
"ccccccmadddd'''d'''dddddfgcccccc",
"ccccccmaddddd'''''ddddddfgcccccc",
"ccccccmadddddd''''ddddddfgcccccc",
"ccccccmaddddddd''dddddddfgcccccc",
"ccccccmadddddddddddddddffgcccccc",
"cccccccmafffffffffffffffgccccccc",
"ccccccccmgggggggggggggggcccccccc",
"cccccccccccccccccccccccccccccccc",
"cccccccccccccccccccccccccccccccc",
"cccccccccccccccccccccccccccccccc",
"cccccccccccccccccccccccccccccccc",
"cccccccccccccccccccccccccccccccc",
"cccccccccccccccccccccccccccccccc"
};
