/* XPM */
static const char * const flClock_xpm[] = {
/* width height ncolors chars_per_pixel */
"32 32 5 1",
/* colors */
". c none",
"a c #000000",
"b c #bbbbbb",
"c c #000000",
"' c #202080",
/* pixels */
"................................",
"................................",
"................................",
"............aaaaaaaa............",
".........aaaaaaaaaaaaaa.........",
".......aaaaaabbbbbbcccccc.......",
"......aaabbbbbbbbbbbbbbccc......",
".....aaabbbbbbbbbbbbbbbbccc.....",
"....aaabbbbbbbbbbbbbbbbabccc....",
"....aabbbbbbbbbbbbbbbbaaabcc....",
"...aaabbbbbbbbbbbbbbbaaabbccc...",
"...aabbbbbbbbbbbbbbbaaabbbbcc...",
"...aabbbbbbbabbbbbbaaabbbbbcc...",
"..aaabbbbbbaaabbbbaaabbbbbbccc..",
"..aabbbbbbbbaaabbaaabbbbbbbbcc..",
"..aabbbbbbbbbaaaaaabbbbbbbbbcc..",
"..aabbbbbbbbbbaaaabbbbbbbbbbcc..",
"..aabbbbbbbbbbaaaabbbbbbbbbbcc..",
"..aabbbbbbbbbbbaabbbbbbbbbbbcc..",
"..aabbbbbbbbbbbbbbbbbbbbbbbbcc..",
"..aaabbbbbbbbbbbbbbbbbbbbbbccc..",
"...aabbbbbbbbbbbbbbbbbbbbbbcc...",
"...aabbbbbbbbbbbbbbbbbbbbbbcc...",
"...aaabbbbbbbbbbbbbbbbbbbbccc...",
"....aabbbbbbbbbbbbbbbbbbbbcc....",
"....aaabbbbbbbbbbbbbbbbbbccc....",
".....aaabbbbbbbbbbbbbbbbccc.....",
"......cccbbbbbbbbbbbbbcccc......",
".......cccccbbbbbbbbccccc.......",
".........cccccccccccccc.........",
"............cccccccc............",
"................................",
"................................",
"................................",
};
