/* XPM */
static const char * const flCode_xpm[] = {
/* width height ncolors chars_per_pixel */
"32 32 4 1",
/* colors */
". c none",
"a c #000000",
"b c #c0e0c0",
"c c #000000",
/* pixels */
"................................",
"................................",
"................................",
"................................",
"aaaaaaaaaaaaaaaaaaaaaaaaaaaaaaaa",
"aaaaaaaaaaaaaaaaaaaaaaaaaaaaaaaa",
"aabbbbbbbbbbbbbbbbbbbbbbbbbbbbcc",
"aabbbbbbbbbbbbbbbbbbbbbbbbbbbbcc",
"aabbbbbbbbbbbbbbbbbbbbbbbbbbbbcc",
"aabbbbbbbbbbbbbbbbbbbbbbbbbbbbcc",
"aabbbbbbbbbbbbbbbbbbbbbbbbbbbbcc",
"aabbbbbbbbbbbbbbbbbbbbbbbbbbbbcc",
"aabbbbbbbbbbbbbbbbbbbbbbbbbbbbcc",
"aabbbbbbbbbbbbbbbbbbbbbbbbbbbbcc",
"aabbbbbbbbbbbbbbbbbbbbbbbbbbbbcc",
"aabbbbbbbbbbbbbbbbbbbbbbbbbbbbcc",
"aabbbbbbbbbbbbbbbbbbbbbbbbbbbbcc",
"aabbbbbbbbbbbbbbbbbbbbbbbbbbbbcc",
"aabbbbbbbbbbbbbbbbbbbbbbbbbbbbcc",
"aabbbbbbbbbbbbbbbbbbbbbbbbbbbbcc",
"aabbbbbbbbbbbbbbbbbbbbbbbbbbbbcc",
"aabbbbbbbbbbbbbbbbbbbbbbbbbbbbcc",
"aabbbbbbbbbbbbbbbbbbbbbbbbbbbbcc",
"aabbbbbbbbbbbbbbbbbbbbbbbbbbbbcc",
"aabbbbbbbbbbbbbbbbbbbbbbbbbbbbcc",
"aabbbbbbbbbbbbbbbbbbbbbbbbbbbbcc",
"aacccccccccccccccccccccccccccccc",
"aacccccccccccccccccccccccccccccc",
"................................",
"................................",
"................................",
"................................",
};
