/* XPM */
static const char * const flCounter_xpm[] = {
/* width height ncolors chars_per_pixel */
"32 32 7 1",
/* colors */
"f c #606060",
". c #ffffff",
"c c none",
"d c #bbbbbb",
"e c #8080ff",
"a c #dddddd",
"x c #000000",
/* pixels */
"cccccccccccccccccccccccccccccccc",
"cccccccccccccccccccccccccccccccc",
"cccccccccccccccccccccccccccccccc",
"cccccccccccccccccccccccccccccccc",
"cccccccccccccccccccccccccccccccc",
"cccccccccccccccccccccccccccccccc",
"cccccccccccccccccccccccccccccccc",
"cccccccccccccccccccccccccccccccc",
"cxxxxxxxxxxxxxxxxxxxxxxxxxxxxxxc",
"xffffffffffffffffffffffffffffffx",
"xfddddddaa............ffddddddax",
"xfddddddaa............ffddddddax",
"xfdddxddaa.....xx.....ffddxdddax",
"xfddxxddaa....xxx.....ffddxxddax",
"xfdxxxddaa...xxxx.....ffddxxxdax",
"xfxxxxddaa...xxxx.....ffddxxxxax",
"xfxxxxddaa.....xx.....ffddxxxxax",
"xfdxxxddaa.....xx.....ffddxxxdax",
"xfddxxddaa...xxxxxx...ffddxxddax",
"xfdddxddaa...xxxxxx...ffddxdddax",
"xfddddddaa............ffddddddax",
"xfddddddaa............ffddddddax",
"xfaaaaaaaaaaaaaaaaaaaaaaaaaaaaax",
"cxxxxxxxxxxxxxxxxxxxxxxxxxxxxxxc",
"cccccccccccccccccccccccccccccccc",
"cccccccccccccccccccccccccccccccc",
"cccccccccccccccccccccccccccccccc",
"cccccccccccccccccccccccccccccccc",
"cccccccccccccccccccccccccccccccc",
"cccccccccccccccccccccccccccccccc",
"cccccccccccccccccccccccccccccccc",
"cccccccccccccccccccccccccccccccc"
};
