/* XPM */
static const char * const flComment_xpm[] = {
/* width height ncolors chars_per_pixel */
"32 32 4 1",
/* colors */
". c none",
"a c #000000",
"b c #c0e0c0",
"c c #000000",
/* pixels */
"................................",
"................................",
"................................",
"................................",
"..aaaaaaaaaaaaaaaaaaaaaaaaaaaa..",
"..aaaaaaaaaaaaaaaaaaaaaaaaaaaa..",
"..aabbbbbbbbbbbbbbbbbbbbbbbbcc..",
"..aabbbbbbbbbbbbbbbbbbbbbbbbcc..",
"..aabbbbbbbbbbbbbbbbbbbbbbbbcc..",
"..aabbbbbbbbbbbbbbbbbbbbbbbbcc..",
"..aabbbbbbbbbcccbbbbbcccbbbbcc..",
"..aabbbbbbbbbcccbbbbbcccbbbbcc..",
"..aabbbbbbbbcccbbbbbcccbbbbbcc..",
"..aabbbbbbbbcccbbbbbcccbbbbbcc..",
"..aabbbbbbbcccbbbbbcccbbbbbbcc..",
"..aabbbbbbbcccbbbbbcccbbbbbbcc..",
"..aabbbbbbcccbbbbbcccbbbbbbbcc..",
"..aabbbbbbcccbbbbbcccbbbbbbbcc..",
"..aabbbbbcccbbbbbcccbbbbbbbbcc..",
"..aabbbbbcccbbbbbcccbbbbbbbbcc..",
"..aabbbbcccbbbbbcccbbbbbbbbbcc..",
"..aabbbbcccbbbbbcccbbbbbbbbbcc..",
"..aabbbbbbbbbbbbbbbbbbbbbbbbcc..",
"..aabbbbbbbbbbbbbbbbbbbbbbbbcc..",
"..aabbbbbbbbbbbbbbbbbbbbbbbbcc..",
"..aabbbbbbbbbbbbbbbbbbbbbbbbcc..",
"..aacccccccccccccccccccccccccc..",
"..aacccccccccccccccccccccccccc..",
"................................",
"................................",
"................................",
"................................",
};
