/* XPM */
static const char * const flDeclarationBlock_xpm[] = {
/* width height ncolors chars_per_pixel */
"32 32 4 1",
/* colors */
". c none",
"a c #000000",
"b c #c0e0c0",
"c c #000000",
/* pixels */
"...............aa...............",
"..............aaaa..............",
".............aaaccc.............",
"............aaabbccc............",
"...........aaabbbbccc...........",
"..........aaabbbbbbccc..........",
".........aaabbbbbbbbccc.........",
"........aaabbbbbbbbbbccc........",
".......aaabbbbbbbbbbbbccc.......",
"......aaabbbbbbbbbbbbbbccc......",
".....aaabbbbccbbbbccbbbbccc.....",
"....aaabbbbbccbbbbccbbbbbccc....",
"...aaabbbbccccccccccccbbbbccc...",
"..aaabbbbbccccccccccccbbbbbccc..",
".aaabbbbbbbbccbbbbccbbbbbbbbccc.",
"aaabbbbbbbbbccbbbbccbbbbbbbbbccc",
"aabbbbbbbbbbccbbbbccbbbbbbbbbccc",
".aaabbbbbbbbccbbbbccbbbbbbbbccc.",
"..aaabbbbbccccccccccccbbbbbccc..",
"...aaabbbbccccccccccccbbbbccc...",
"....aaabbbbbccbbbbccbbbbbccc....",
".....aaabbbbccbbbbccbbbbccc.....",
"......aaabbbbbbbbbbbbbbccc......",
".......aaabbbbbbbbbbbbccc.......",
"........aaabbbbbbbbbbccc........",
".........aaabbbbbbbbccc.........",
"..........aaabbbbbbccc..........",
"...........aaabbbbccc...........",
"............aaabbccc............",
".............aaaccc.............",
"..............aacc..............",
"...............ac...............",
};
