/* XPM */
static const char * const flFileBrowser_xpm[] = {
"32 32 7 1",
/* colors */
"a c #606060",
"b c #888888",
"c c none",
"d c #ffffff",
"e c #bbbbbb",
"f c #000000",
". c #ffff00",
/* pixels */
"cccccccccccccccccccccccccccccccc",
"cccccccccccccccccccccccccccccccc",
"ffffffffffffffffffffffffffffffcc",
"ffffffffffffffffffffffffffffffcc",
"ffddddddddddddddddddddddaaeeffcc",
"ffddddddddddddddddddddddaaeeffcc",
"ffddddfffffdddddddddddddaabbffcc",
"ffdddfffffffddddddddddddaabbffcc",
"ffddfff....fffffffffffddaabbffcc",
"ffddff......ffffffffffddaabbffcc",
"ffddff..............ffddaabbffcc",
"ffddff..............ffddaabbffcc",
"ffddff..............ffddaabbffcc",
"ffddff..............ffddaabbffcc",
"ffddff..............ffddaabbffcc",
"ffddff..............ffddaabbffcc",
"ffddff..............ffddaabbffcc",
"ffddff..............ffddaabbffcc",
"ffddff..............ffddaabbffcc",
"ffddff..............ffddaabbffcc",
"ffddffffffffffffffffffddaaeeffcc",
"ffddffffffffffffffffffddaaeeffcc",
"ffddddddddddddddddddddddaaeeffcc",
"ffddddddddddddddddddddddaaeeffcc",
"ffaaaaaaaaaaaaaaaaaaaaaaaaaaffcc",
"ffaaaaaaaaaaaaaaaaaaaaaaaaaaffcc",
"ffeebbbbbbbbbbeeeeeeeeeeaaeeffcc",
"ffeebbbbbbbbbbeeeeeeeeeeaaeeffcc",
"ffffffffffffffffffffffffffffffcc",
"ffffffffffffffffffffffffffffffcc",
"cccccccccccccccccccccccccccccccc",
"cccccccccccccccccccccccccccccccc"
,
/* width height ncolors chars_per_pixel */
"32 32 6 1",
/* colors */
"a c #ffff00",
"b c #808080",
"c c none",
"d c #c0c0c0",
"e c #ffffff",
"f c #000000",
/* pixels */
"cccccccccccccccccccccccccccccccc",
"cccccccccccccccccccccccccccccccc",
"ddddddddddddddddddddddddddddddcc",
"ddddddddddddddddddddddddddddddcc",
"ddffffffffffffffffffffffffffddcc",
"ddffffffffffffffffffffffffffddcc",
"ddffeeeeeeeeeeeeeeeeeebbbbffddcc",
"ddffeeeeeeeeeeeeeeeeeebbbbffddcc",
"ddffeeeeffffffeeeeeeeebbddffddcc",
"ddffeeeeffffffeeeeeeeebbddffddcc",
"ddffeeffaaaaaaffffffeebbddffddcc",
"ddffeeffaaaaaaffffffeebbddffddcc",
"ddffeeffaaaaaaaaaaffeebbffffddcc",
"ddffeeffaaaaaaaaaaffeebbffffddcc",
"ddffeeffaaaaaaaaaaffeebbddffddcc",
"ddffeeffaaaaaaaaaaffeebbddffddcc",
"ddffeeffaaaaaaaaaaffeebbddffddcc",
"ddffeeffaaaaaaaaaaffeebbddffddcc",
"ddffeeffffffffffffffeebbddffddcc",
"ddffeeffffffffffffffeebbddffddcc",
"ddffeeeeeeeeeeeeeeeeeebbddffddcc",
"ddffeeeeeeeeeeeeeeeeeebbddffddcc",
"ddffbbbbbbbbbbbbbbbbbbbbbbffddcc",
"ddffbbbbbbbbbbbbbbbbbbbbbbffddcc",
"ddffbbddddddffddddddddbbddffddcc",
"ddffbbddddddffddddddddbbddffddcc",
"ddffffffffffffffffffffffffffddcc",
"ddffffffffffffffffffffffffffddcc",
"ddddddddddddddddddddddddddddddcc",
"ddddddddddddddddddddddddddddddcc",
"cccccccccccccccccccccccccccccccc",
"cccccccccccccccccccccccccccccccc"
};
