/* XPM */
static const char * const flFileInput_xpm[] = {
/* width height ncolors chars_per_pixel */
"32 32 6 1",
/* colors */
"f c #606060",
". c #000000",
"c c none",
"d c #ffffff",
"e c #8080ff",
"a c #d0d0d0",
/* pixels */
"cccccccccccccccccccccccccccccccc",
"cccccccccccccccccccccccccccccccc",
"cccccccccccccccccccccccccccccccc",
"cccccccccccccccccccccccccccccccc",
"c..............................c",
".ffffffffffffffffffffffffffffff.",
".fdddddddffddddddddddddffddddda.",
".fdddddddffddddddddddddffddddda.",
".ffffffffffffffffffffffffffffff.",
"................................",
".fdddddddddddddddddddddddddddda.",
".fdddddddddddddddddddddddddddda.",
".fddddddd..ddddddddddddddddddda.",
".fddddd......ddddddddddddddddda.",
".fdddd...dd...dddddddddddddddda.",
".fdddd..dddddddddddddddddddddda.",
".fdddd..dddddddd....dddddddddda.",
".fdddd..dddddddd....dddddddddda.",
".fdddd..dddddddddddddddddddddda.",
".fdddd..dddddddddddddddddddddda.",
".fdddd..dddddddd....dddddddddda.",
".fdddd...dd...dd....dddddddddda.",
".fddddd......ddddddddddddddddda.",
".fddddddd..ddddddddddddddddddda.",
".fdddddddddddddddddddddddddddda.",
".fdddddddddddddddddddddddddddda.",
".aaaaaaaaaaaaaaaaaaaaaaaaaaaaaa.",
"c..............................c",
"cccccccccccccccccccccccccccccccc",
"cccccccccccccccccccccccccccccccc",
"cccccccccccccccccccccccccccccccc",
"cccccccccccccccccccccccccccccccc"
};
