/* XPM */
static const char * const flFunction_xpm[] = {
/* width height ncolors chars_per_pixel */
"32 32 4 1",
/* colors */
". c none",
"a c #000000",
"b c #c0e0c0",
"c c #000000",
/* pixels */
"................................",
"................................",
"................................",
"................................",
"..........aaaaaaaaaaaa..........",
".......aaaaaaaaaaaaaaaaaa.......",
".....aaaaaabbbbbbbbbbcccccc.....",
"....aaabbbbbbbbbbbbbbbbbbccc....",
"...aaabbbbbbbbbbbbbbbbbbbbccc...",
"..aaabbbbbbbbbbbbbbbbbbbbbbccc..",
"..aabbbbbbbbbbbbbbbbbbbbbbbbcc..",
".aaabbbbbbbbbbbbbbbbbbbbbbbbccc.",
".aabbbbbbbbbbbbbbbbbbbbbbbbbbcc.",
".aabbbbbbbbbbbbbbbbbbbbbbbbbbcc.",
"aaabbbbbbbbbbbbbbbbbbbbbbbbbbccc",
"aabbbbbbbbbbbbbbbbbbbbbbbbbbbbcc",
"aabbbbbbbbbbbbbbbbbbbbbbbbbbbbcc",
"aaabbbbbbbbbbbbbbbbbbbbbbbbbbccc",
".aabbbbbbbbbbbbbbbbbbbbbbbbbbcc.",
".aabbbbbbbbbbbbbbbbbbbbbbbbbbcc.",
".aaabbbbbbbbbbbbbbbbbbbbbbbbccc.",
"..aabbbbbbbbbbbbbbbbbbbbbbbbcc..",
"..aaabbbbbbbbbbbbbbbbbbbbbbccc..",
"...aaabbbbbbbbbbbbbbbbbbbbccc...",
"....cccbbbbbbbbbbbbbbbbbcccc....",
".....cccccbbbbbbbbbbbbccccc.....",
".......cccccccccccccccccc.......",
"..........cccccccccccc..........",
"................................",
"................................",
"................................",
"................................",
};
