/* XPM */
static const char * const flGroup_xpm[] = {
/* width height ncolors chars_per_pixel */
"32 32 6 1",
/* colors */
"a c #606060",
"b c #2020ff",
"c c none",
"d c #dddddd",
"e c #8080ff",
"f c #000000",
/* pixels */
"cccccccccccccccccccccccccccccccc",
"cccccccccccccccccccccccccccccccc",
"cccccccccccccccccccccccccccccccc",
"cccccccccccccccccccccccccccccccc",
"ffffffffffffffffffffffffffffffcc",
"ffffffffffffffffffffffffffffffcc",
"ffddddddddddddddddddddddddddffcc",
"ffddddddddddddddddddddddddddffcc",
"ffddddddddddddddddddddddddddffcc",
"ffddddddddddddddddddddddddddffcc",
"ffddddddddddddddddddddddddddffcc",
"ffddddddddddddddddddddddddddffcc",
"ffddddddddddddddddddddddddddffcc",
"ffddddddddddddddddddddddddddffcc",
"ffddddddddddddddddddddddddddffcc",
"ffddddddddddddddddddddddddddffcc",
"ffddddddddddddddddddddddddddffcc",
"ffddddddddddddddddddddddddddffcc",
"ffddddddddddddddddddddddddddffcc",
"ffddddddddddddddddddddddddddffcc",
"ffddddddddddddddddddddddddddffcc",
"ffddddddddddddddddddddddddddffcc",
"ffddddddddddddddddddddddddddffcc",
"ffddddddddddddddddddddddddddffcc",
"ffddddddddddddddddddddddddddffcc",
"ffddddddddddddddddddddddddddffcc",
"ffffffffffffffffffffffffffffffcc",
"ffffffffffffffffffffffffffffffcc",
"cccccccccccccccccccccccccccccccc",
"cccccccccccccccccccccccccccccccc",
"cccccccccccccccccccccccccccccccc",
"cccccccccccccccccccccccccccccccc"
};
