/* XPM */
static const char * const flHelp_xpm[] = {
"32 32 6 1",
/* colors */
"a c #606060",
"b c #888888",
"c c none",
"d c #ffffff",
"e c #bbbbbb",
"f c #000000",
/* pixels */
"cccccccccccccccccccccccccccccccc",
"cccccccccccccccccccccccccccccccc",
"ffffffffffffffffffffffffffffffcc",
"ffffffffffffffffffffffffffffffcc",
"ffddddddddddddddddddddddaaeeffcc",
"ffddddddddddddddddddddddaabbffcc",
"ffddddffddddffddddddddddaaeeffcc",
"ffddddffddddffddddddddddaaeeffcc",
"ffdddffddddddffdddddddddaaeeffcc",
"ffdddffddddddffdddddddddaabbffcc",
"ffddffddddddddffddddddddaabbffcc",
"ffddffddddddddffddddddddaabbffcc",
"ffdddffddddddffdddddddddaabbffcc",
"ffdddffddddddffdddddddddaabbffcc",
"ffddddffddddffddddddddddaabbffcc",
"ffddddffddddffddddddddddaabbffcc",
"ffddddddddddddddddddddddaabbffcc",
"ffddddddddddddddddddddddaabbffcc",
"ffddddddddddddddddddddddaaeeffcc",
"ffddddddddddddddddddddddaaeeffcc",
"ffddddddddddddddddddddddaaeeffcc",
"ffddddddddddddddddddddddaaeeffcc",
"ffddddddddddddddddddddddaaeeffcc",
"ffddddddddddddddddddddddaaeeffcc",
"ffaaaaaaaaaaaaaaaaaaaaaaaaaaffcc",
"ffaaaaaaaaaaaaaaaaaaaaaaaaaaffcc",
"ffeebbbbbbbbbbeeeeeeeeeeaaeeffcc",
"ffeebbbbbbbbbbeeeeeeeeeeaaeeffcc",
"ffffffffffffffffffffffffffffffcc",
"ffffffffffffffffffffffffffffffcc",
"cccccccccccccccccccccccccccccccc",
"cccccccccccccccccccccccccccccccc"
};
