/* XPM */
static const char * const flInputChoice_xpm[] = {
/* width height ncolors chars_per_pixel */
"32 32 8 1",
/* colors */
"a c #808080",
"b c #2020ff",
"c c none",
"d c #a0a0a0",
"e c #8080ff",
"f c #d0d0d0",
"g c #000000",
"' c #ffffff",
/* pixels */
"cccccccccccccccccccccccccccccccc",
"cccccccccccccccccccccccccccccccc",
"cccccccccccccccccccccccccccccccc",
"cccccccccccccccccccccccccccccccc",
"cccccccccccccccccccccccccccccccc",
"cccccccccccccccccccccccccccccccc",
"cccccccccccccccccccccccccccccccc",
"cccccccccccccccccccccccccccccccc",
"cccccccccccccccccccccccccccccccc",
"cccggggggggggggggggggggggggggccc",
"ccgaaaaaaaaaaaagfffffffffffffgcc",
"cgaa'''''''''''gddddddgdddddfagc",
"cga''''''''''''gdddddgggdddddagc",
"cga''''''''''''gddddgggggddddagc",
"cga''''''''''''gdddgggggggdddagc",
"cga''''''''''''gddgggggggggddagc",
"cga''''''''''''gdddddddddddddagc",
"cga''''''''''''gdddddddddddddagc",
"cga''''''''''''gddgggggggggddagc",
"cga''''''''''''gdddgggggggdddagc",
"cga''''''''''''gddddgggggddddagc",
"cga''''''''''''gdddddgggdddddagc",
"cgaa'''''''''''gddddddgdddddaagc",
"ccgffffffffffffgaaaaaaaaaaaaagcc",
"cccggggggggggggggggggggggggggccc",
"cccccccccccccccccccccccccccccccc",
"cccccccccccccccccccccccccccccccc",
"cccccccccccccccccccccccccccccccc",
"cccccccccccccccccccccccccccccccc",
"cccccccccccccccccccccccccccccccc",
"cccccccccccccccccccccccccccccccc",
"cccccccccccccccccccccccccccccccc"
};
