/* XPM */
static const char * const flLightButton_xpm[] = {
/* width height ncolors chars_per_pixel */
"32 32 7 1",
/* colors */
"a c #808080",
"b c #ffff00",
"c c none",
"d c #a0a0a0",
"e c #8080ff",
"f c #d0d0d0",
"g c #000000",
/* pixels */
"cccccccccccccccccccccccccccccccc",
"cccccccccccccccccccccccccccccccc",
"cccccccccccccccccccccccccccccccc",
"cccccccccccccccccccccccccccccccc",
"cccccccccccccccccccccccccccccccc",
"cccccccccccccccccccccccccccccccc",
"cccccccccccccccccccccccccccccccc",
"cccccccccccccccccccccccccccccccc",
"cccccccccccccccccccccccccccccccc",
"cccggggggggggggggggggggggggggccc",
"ccgffffffffffffffffffffffffffgcc",
"cgffddddddddddddddddddddddddfagc",
"cgfddaaaaaaddddddddddddddddddagc",
"cgfddabbbbfddddddddddddddddddagc",
"cgfddabbbbfddddddddddddddddddagc",
"cgfddabbbbfddddddddddddddddddagc",
"cgfddabbbbfddddddddddddddddddagc",
"cgfddabbbbfddddddddddddddddddagc",
"cgfddabbbbfddddddddddddddddddagc",
"cgfddabbbbfddddddddddddddddddagc",
"cgfddabbbbfddddddddddddddddddagc",
"cgfddffffffddddddddddddddddddagc",
"cgffddddddddddddddddddddddddaagc",
"ccgaaaaaaaaaaaaaaaaaaaaaaaaaagcc",
"cccggggggggggggggggggggggggggccc",
"cccccccccccccccccccccccccccccccc",
"cccccccccccccccccccccccccccccccc",
"cccccccccccccccccccccccccccccccc",
"cccccccccccccccccccccccccccccccc",
"cccccccccccccccccccccccccccccccc",
"cccccccccccccccccccccccccccccccc",
"cccccccccccccccccccccccccccccccc"
};
