/* XPM */
static const char * const flMenuitem_xpm[] = {
/* width height ncolors chars_per_pixel */
"32 32 8 1",
/* colors */
"a c #808080",
"b c #2020ff",
"c c none",
"d c #aaaaaa",
"e c #bbbbbb",
"f c #d0d0d0",
"g c #000000",
"' c #000000",
/* pixels */
"cccccccccccccccccccccccccccccccc",
"cccccccccccccccccccccccccccccccc",
"cccccccccccccccccccccccccccccccc",
"cccccccccccccccccccccccccccccccc",
"ccccccdddddddccccccccccccccccccc",
"ccccdddddddddddccccccccccccccccc",
"cgfdddddddddddddccccccccccdagccc",
"cgfdddddddddddddddccccccdddagccc",
"cgfddddddddddddddddddddddddagccc",
"cgfddddddddddddddddddddddddagccc",
"cgfeeeeeeeeeeeeeeeeeeeeeeeeagccc",
"cgfeeeeeeeeeeeeeeeeeeeeeeeeagccc",
"cgfeee'''eeee''eeeeeeeeeeeeagccc",
"cgfee'''''eee''eeeeeeeeeeeeagccc",
"cgfe'''e'''ee''eeeeeeeeeeeeagccc",
"cgfe''eee''ee'''''eeee''''eagccc",
"cgfe'''''''ee''''''ee'''''eagccc",
"cgfe'''''''ee''ee''ee''eeeeagccc",
"cgfe''eee''ee''ee''ee''eeeeagccc",
"cgfe''eee''ee''ee''ee''eeeeagccc",
"cgfe''eee''ee''''''ee'''''eagccc",
"cgfe''eee''ee'''''eeee''''eagccc",
"cgfeeeeeeeeeeeeeeeeeeeeeeeeagccc",
"cgfeeeeeeeeeeeeeeeeeeeeeeeeagccc",
"cgfddddddddddddddddddddddddagccc",
"cgfddddddddddddddddddddddddagccc",
"cgfdddccccccdddddddddddddddagccc",
"cgfdccccccccccdddddddddddddagccc",
"ccccccccccccccccddddddddddcccccc",
"ccccccccccccccccccddddddcccccccc",
"cccccccccccccccccccccccccccccccc",
"cccccccccccccccccccccccccccccccc"
};
