/* XPM */
static const char * const flMenubar_xpm[] = {
/* width height ncolors chars_per_pixel */
"32 32 8 1",
/* colors */
"a c #808080",
"b c #2020ff",
"c c none",
"d c #aaaaaa",
"e c #8080ff",
"f c #d0d0d0",
"g c #000000",
"' c #bbbbbb",
/* pixels */
"cccccccccccccccccccccccccccccccc",
"cccccccccccccccccccccccccccccccc",
"cccccccccccccccccccccccccccccccc",
"cccccccccccccccccccccccccccccccc",
"cccccccccccccccccccccccccccccccc",
"cccccccccccccccccccccccccccccccc",
"cccccccccccccccccccccccccccccccc",
"cccccccccccccccccccccccccccccccc",
"cccccccccccccccccccccccccccccccc",
"gggggggggggggggggggggggggggggggg",
"ffffffffffffffffffffffffffffffff",
"dddddddddddddddddddddddddddddddd",
"dddddddddddddddddddddddddddddddd",
"ddddddddgggggggggggggggggggggddd",
"dddddddgffffffffffffffffffffagdd",
"dddddddgf'''''''''''''''''''agdd",
"dddddddgf'''''''''''''''''''agdd",
"dddddddgf'''''''''''''''''''agdd",
"dddddddgf'''''''''''''''''''agdd",
"dddddddgf'''''''''''''''''''agdd",
"dddddddgf'''''''''''''''''''agdd",
"dddddddgf'''''''''''''''''''agdd",
"dddddddgf'''''''''''''''''''agdd",
"aaaaaaagf'''''''''''''''''''agaa",
"ggggggggf'''''''''''''''''''aggg",
"cccccccgf'''''''''''''''''''agcc",
"cccccccgf'''''''''''''''''''agcc",
"cccccccgf'''''''''''''''''''agcc",
"cccccccccccccccccccccccccccccccc",
"cccccccccccccccccccccccccccccccc",
"cccccccccccccccccccccccccccccccc",
"cccccccccccccccccccccccccccccccc"
};
