/* XPM */
static const char * const flRadioMenuitem_xpm[] = {
/* width height ncolors chars_per_pixel */
"32 32 9 1",
/* colors */
"a c #808080",
"b c #dd0000",
"c c none",
"d c #aaaaaa",
"e c #bbbbbb",
"f c #d0d0d0",
"g c #000000",
"' c #000000",
"o c #ffff00",
/* pixels */
"cccccccccccccccccccccccccccccccc",
"cccccccccccccccccccccccccccccccc",
"cccccccccccccccccccccccccccccccc",
"cccccccccccccccccccccccccccccccc",
"ccccccdddddddccccccccccccccccccc",
"ccccdddddddddddccccccccccccccccc",
"cgfdddddddddddddccccccccccdagccc",
"cgfdddddddddddddddccccccdddagccc",
"cgfddddddddddddddddddddddddagccc",
"cgfddddddddddddddddddddddddagccc",
"cgfeeeeeeeeeeeeeeeeeeeeeeeeagccc",
"cgfeeeee''''eeeeeeeeeeeeeeeagccc",
"cgfeee''''''''eeeeeeeeeeeeeagccc",
"cgfee'''oooo'''eeeeeeeeeeeeagccc",
"cgfee''oooooo''eeeeeeeeeeeeagccc",
"cgfe'''oooooo'''eeeeeeeeeeeagccc",
"cgfe''oooooooo''eeeeeeeeeeeagccc",
"cgfe''oooooooo''eeeeeeeeeeeagccc",
"cgfe'''oooooo'''eeeeeeeeeeeagccc",
"cgfee''oooooo''eeeeeeeeeeeeagccc",
"cgfee'''oooo'''eeeeeeeeeeeeagccc",
"cgfeee''''''''eeeeeeeeeeeeeagccc",
"cgfeeeee''''eeeeeeeeeeeeeeeagccc",
"cgfeeeeeeeeeeeeeeeeeeeeeeeeagccc",
"cgfddddddddddddddddddddddddagccc",
"cgfddddddddddddddddddddddddagccc",
"cgfdddccccccdddddddddddddddagccc",
"cgfdccccccccccdddddddddddddagccc",
"ccccccccccccccccddddddddddcccccc",
"ccccccccccccccccccddddddcccccccc",
"cccccccccccccccccccccccccccccccc",
"cccccccccccccccccccccccccccccccc"
};
