/* XPM */
static const char * const flReturnButton_xpm[] = {
/* width height ncolors chars_per_pixel */
"32 32 7 1",
/* colors */
"a c #808080",
"b c #2020ff",
"c c none",
"d c #a0a0a0",
"e c #cccccc",
"f c #d0d0d0",
"g c #000000",
/* pixels */
"cccccccccccccccccccccccccccccccc",
"cccccccccccccccccccccccccccccccc",
"cccccccccccccccccccccccccccccccc",
"cccccccccccccccccccccccccccccccc",
"cccccccccccccccccccccccccccccccc",
"cccccccccccccccccccccccccccccccc",
"cccccccccccccccccccccccccccccccc",
"cccccccccccccccccccccccccccccccc",
"cccccccccccccccccccccccccccccccc",
"cccggggggggggggggggggggggggggccc",
"ccgffffffffffffffffffffffffffgcc",
"cgffddddddddddddddddddddddddfagc",
"cgfdddddddddddddddddddgggggddagc",
"cgfdddddddddddggddddddgeeegddagc",
"cgfddddddddddgegddddddgeeegddagc",
"cgfdddddddddgeeggggggggeeegddagc",
"cgfddddddddgeeeeeeeeeeeeeegddagc",
"cgfdddddddgeeeeeeeeeeeeeeegddagc",
"cgfddddddddgeeeeeeeeeeeeeegddagc",
"cgfdddddddddgeeggggggggggggddagc",
"cgfddddddddddgegdddddddddddddagc",
"cgfdddddddddddggdddddddddddddagc",
"cgffddddddddddddddddddddddddaagc",
"ccgaaaaaaaaaaaaaaaaaaaaaaaaaagcc",
"cccggggggggggggggggggggggggggccc",
"cccccccccccccccccccccccccccccccc",
"cccccccccccccccccccccccccccccccc",
"cccccccccccccccccccccccccccccccc",
"cccccccccccccccccccccccccccccccc",
"cccccccccccccccccccccccccccccccc",
"cccccccccccccccccccccccccccccccc",
"cccccccccccccccccccccccccccccccc"
};
