/* XPM */
static const char *flReturnButton_xpm[] = {
/* width height ncolors chars_per_pixel */
"16 16 6 1",
/* colors */
"a c #606060",
"' c #000000",
"c c none",
"d c #a0a0a0",
"e c #8080ff",
"f c #d0d0d0",
/* pixels */
"cccccccccccccccc",
"cccccccccccccccc",
"cccccccccccccccc",
"cccccccccccccccc",
"ffffffffffffffac",
"fdddddddddddddac",
"fddddddd'dd''dac",
"fdddddd''dd''dac",
"fddddd'''''''dac",
"fdddddd''dddddac",
"fddddddd'dddddac",
"aaaaaaaaaaaaaaac",
"cccccccccccccccc",
"cccccccccccccccc",
"cccccccccccccccc",
"cccccccccccccccc"
};
