/* XPM */
static const char * const flRepeatButton_xpm[] = {
/* width height ncolors chars_per_pixel */
"32 32 8 1",
/* colors */
"' c #000000",
"a c #808080",
"b c #2020ff",
"c c none",
"d c #a0a0a0",
"e c #8080ff",
"f c #d0d0d0",
"g c #000000",
/* pixels */
"cccccccccccccccccccccccccccccccc",
"cccccccccccccccccccccccccccccccc",
"cccccccccccccccccccccccccccccccc",
"cccccccccccccccccccccccccccccccc",
"cccccccccccccccccccccccccccccccc",
"cccccccccccccccccccccccccccccccc",
"cccccccccccccccccccccccccccccccc",
"cccccccccccccccccccccccccccccccc",
"cccccccccccccccccccccccccccccccc",
"cccggggggggggggggggggggggggggccc",
"ccgffffffffffffffffffffffffffgcc",
"cgffddddddddddddddddddddddddfagc",
"cgfddddddddddddddddddddddddddagc",
"cgfddddddddddddddddddddddddddagc",
"cgfddddddddddddddddddddddddddagc",
"cgfddddddddddddddddddddddddddagc",
"cgfddddddddddddddddddddddddddagc",
"cgfdddddddddd''dddd''dddd''ddagc",
"cgfddddddddd''''dd''''dd''''dagc",
"cgfddddddddd''''dd''''dd''''dagc",
"cgfdddddddddd''dddd''dddd''ddagc",
"cgfddddddddddddddddddddddddddagc",
"cgffddddddddddddddddddddddddaagc",
"ccgaaaaaaaaaaaaaaaaaaaaaaaaaagcc",
"cccggggggggggggggggggggggggggccc",
"cccccccccccccccccccccccccccccccc",
"cccccccccccccccccccccccccccccccc",
"cccccccccccccccccccccccccccccccc",
"cccccccccccccccccccccccccccccccc",
"cccccccccccccccccccccccccccccccc",
"cccccccccccccccccccccccccccccccc",
"cccccccccccccccccccccccccccccccc"
};
