/* XPM */
static const char * const flRoller_xpm[] = {
/* width height ncolors chars_per_pixel */
"32 32 12 1",
/* colors */
"a c #606060",
". c #ffff00",
"c c none",
"d c #bbbbbb",
"e c #8080ff",
"f c #dddddd",
"x c #000000",
"1 c #555555",
"2 c #777777",
"3 c #aaaaaa",
"4 c #cccccc",
"5 c #eeeeee",
/* pixels */
"cccccccccccccccccccccccccccccccc",
"cccccccccccccccccccccccccccccccc",
"cccccccccccccccccccccccccccccccc",
"cccccccccccccccccccccccccccccccc",
"cccccccccccccccccccccccccccccccc",
"cccccccccccccccccccccccccccccccc",
"cccccccccccccccccccccccccccccccc",
"cccccccccccccccccccccccccccccccc",
"cxxxxxxxxxxxxxxxxxxxxxxxxxxxxxxc",
"x12334445555544444433333222211ax",
"x12334445555544444433333222211ax",
"x12334445555544444433333222211ax",
"x12334445555544444433333222211ax",
"x12334445555544444433333222211ax",
"x12334445555544444433333222211ax",
"x12334445555544444433333222211ax",
"x12334445555544444433333222211ax",
"x12334445555544444433333222211ax",
"x12334445555544444433333222211ax",
"x12334445555544444433333222211ax",
"x12334445555544444433333222211ax",
"x12334445555544444433333222211ax",
"x12334445555544444433333222211ax",
"cxxxxxxxxxxxxxxxxxxxxxxxxxxxxxxc",
"cccccccccccccccccccccccccccccccc",
"cccccccccccccccccccccccccccccccc",
"cccccccccccccccccccccccccccccccc",
"cccccccccccccccccccccccccccccccc",
"cccccccccccccccccccccccccccccccc",
"cccccccccccccccccccccccccccccccc",
"cccccccccccccccccccccccccccccccc",
"cccccccccccccccccccccccccccccccc"
};
