/* XPM */
static const char *flScroll_xpm[] = {
/* width height ncolors chars_per_pixel */
"16 16 6 1",
/* colors */
"a c #606060",
"b c #f0f0f0",
"c c none",
"d c #c0c0c0",
"e c #8080ff",
"f c #000000",
/* pixels */
"cccccccccccccccc",
"cccccccccccccccc",
"dddddddddddddddc",
"dfffffffffffffdc",
"dfddddddddbbbfdc",
"dfddddddddbddfdc",
"dfddddddddbddfdc",
"dfddddddddbfffdc",
"dfddddddddbddfdc",
"dfbbbbbbbbbbbfdc",
"dfbdddfdddbddfdc",
"dfbdddfdddbddfdc",
"dfffffffffffffdc",
"dddddddddddddddc",
"cccccccccccccccc",
"cccccccccccccccc"
};
