/* XPM */
static const char * const flScroll_xpm[] = {
/* width height ncolors chars_per_pixel */
"32 32 6 1",
/* colors */
"a c #606060",
"b c #999999",
"c c none",
"d c #dddddd",
"e c #bbbbbb",
"f c #000000",
/* pixels */
"cccccccccccccccccccccccccccccccc",
"cccccccccccccccccccccccccccccccc",
"cccccccccccccccccccccccccccccccc",
"cccccccccccccccccccccccccccccccc",
"ffffffffffffffffffffffffffffffcc",
"ffffffffffffffffffffffffffffffcc",
"ffddddddddddddddddddddaaeeeeffcc",
"ffddddddddddddddddddddaaeeeeffcc",
"ffddddddddddddddddddddaaeeeeffcc",
"ffddddddddddddddddddddaaeeeeffcc",
"ffddddddddddddddddddddaabbbbffcc",
"ffddddddddddddddddddddaabbbbffcc",
"ffddddddddddddddddddddaabbbbffcc",
"ffddddddddddddddddddddaabbbbffcc",
"ffddddddddddddddddddddaabbbbffcc",
"ffddddddddddddddddddddaabbbbffcc",
"ffddddddddddddddddddddaaeeeeffcc",
"ffddddddddddddddddddddaaeeeeffcc",
"ffddddddddddddddddddddaaeeeeffcc",
"ffddddddddddddddddddddaaeeeeffcc",
"ffaaaaaaaaaaaaaaaaaaaaaaaaaaffcc",
"ffaaaaaaaaaaaaaaaaaaaaaaaaaaffcc",
"ffeebbbbbbbbbbeeeeeeeeaaeeeeffcc",
"ffeebbbbbbbbbbeeeeeeeeaaeeeeffcc",
"ffeebbbbbbbbbbeeeeeeeeaaeeeeffcc",
"ffeebbbbbbbbbbeeeeeeeeaaeeeeffcc",
"ffffffffffffffffffffffffffffffcc",
"ffffffffffffffffffffffffffffffcc",
"cccccccccccccccccccccccccccccccc",
"cccccccccccccccccccccccccccccccc",
"cccccccccccccccccccccccccccccccc",
"cccccccccccccccccccccccccccccccc"
};
