/* XPM */
static const char * const flSimpleTerminal_xpm[] = {
/* width height ncolors chars_per_pixel */
"16 16 6 1",
/* colors */
"f c #606060",
". c #000000",
"c c none",
"d c #ffffff",
"e c #8080ff",
"a c #d0d0d0",
/* pixels */
"cccccccccccccccc",
"ffffffffffffffff",
"fdddddddddddddda",
"fdddddddddddddda",
"fd.dddddddddddda",
"fdd.ddddddddddda",
"fddd.dddddddddda",
"fdd.ddddddddddda",
"fd.ddd....ddddda",
"fdddddddddddddda",
"fdddddddddddddda",
"fdddddddddddddda",
"fdddddddddddddda",
"fdddddddddddddda",
"aaaaaaaaaaaaaaaa",
"cccccccccccccccc"
};
