/* XPM */
static const char * const flSimpleTerminal_xpm[] = {
/* width height ncolors chars_per_pixel */
"32 32 6 1",
/* colors */
"f c #606060",
". c #000000",
"c c none",
"d c #ffffff",
"e c #8080ff",
"a c #d0d0d0",
/* pixels */
"cccccccccccccccccccccccccccccccc",
"cccccccccccccccccccccccccccccccc",
"c..............................c",
".ffffffffffffffffffffffffffffff.",
".fdddddddddddddddddddddddddddda.",
".fdddddddddddddddddddddddddddda.",
".fdd...ddddddddddddddddddddddda.",
".fddd...dddddddddddddddddddddda.",
".fdddd...ddddddddddddddddddddda.",
".fddddd...dddddddddddddddddddda.",
".fdddddd...ddddddddddddddddddda.",
".fddddddd...dddddddddddddddddda.",
".fddddddd...dddddddddddddddddda.",
".fdddddd...ddddddddddddddddddda.",
".fddddd...dddddddddddddddddddda.",
".fdddd...ddddddddddddddddddddda.",
".fddd...dddddd........dddddddda.",
".fdd...ddddddd........dddddddda.",
".fdddddddddddddddddddddddddddda.",
".fdddddddddddddddddddddddddddda.",
".fdddddddddddddddddddddddddddda.",
".fdddddddddddddddddddddddddddda.",
".fdddddddddddddddddddddddddddda.",
".fdddddddddddddddddddddddddddda.",
".fdddddddddddddddddddddddddddda.",
".fdddddddddddddddddddddddddddda.",
".fdddddddddddddddddddddddddddda.",
".fdddddddddddddddddddddddddddda.",
".aaaaaaaaaaaaaaaaaaaaaaaaaaaaaa.",
"c..............................c",
"cccccccccccccccccccccccccccccccc",
"cccccccccccccccccccccccccccccccc"
};
