/* XPM */
static const char * const flSlider_xpm[] = {
/* width height ncolors chars_per_pixel */
"32 32 7 1",
/* colors */
"f c #606060",
". c #ffff00",
"c c none",
"d c #bbbbbb",
"e c #8080ff",
"a c #dddddd",
"x c #000000",
/* pixels */
"cccccccccccccccccccccccccccccccc",
"cccccccccccccccccccccccccccccccc",
"cccccccccccccccccccccccccccccccc",
"cccccccccccccccccccccccccccccccc",
"cccccccccccccccccccccccccccccccc",
"cccccccccccccccccccccccccccccccc",
"cccccccccccccccccccccccccccccccc",
"cccccccccccccccccccccccccccccccc",
"cxxxxxxxxxxxxxxxxxxxxxxxxxxxxxxc",
"xffffffffffffffffffffffffffffffx",
"xfdaaaaaaaaaaaadddddddddddddddax",
"xfaaaaaaaaaaaaffddddddddddddddax",
"xfaaddddddddddffddddddddddddddax",
"xfaaddddddddddffddddddddddddddax",
"xfaaddddddddddffddddddddddddddax",
"xfaaddddddddddffddddddddddddddax",
"xfaaddddddddddffddddddddddddddax",
"xfaaddddddddddffddddddddddddddax",
"xfaaddddddddddffddddddddddddddax",
"xfaaddddddddddffddddddddddddddax",
"xfafffffffffffffddddddddddddddax",
"xfdffffffffffffdddddddddddddddax",
"xfaaaaaaaaaaaaaaaaaaaaaaaaaaaaax",
"cxxxxxxxxxxxxxxxxxxxxxxxxxxxxxxc",
"cccccccccccccccccccccccccccccccc",
"cccccccccccccccccccccccccccccccc",
"cccccccccccccccccccccccccccccccc",
"cccccccccccccccccccccccccccccccc",
"cccccccccccccccccccccccccccccccc",
"cccccccccccccccccccccccccccccccc",
"cccccccccccccccccccccccccccccccc",
"cccccccccccccccccccccccccccccccc"
};
