/* XPM */
static const char * const flSpinner_xpm[]={
/* width height ncolors chars_per_pixel */
"32 32 7 1",
/* colors */
"f c #606060",
". c #ffffff",
"c c none",
"d c #bbbbbb",
"e c #8080ff",
"a c #dddddd",
"x c #000000",
/* pixels */
"cccccccccccccccccccccccccccccccc",
"cccccccccccccccccccccccccccccccc",
"cccccccccccccccccccccccccccccccc",
"cccccccccccccccccccccccccccccccc",
"cccccccccccccccccccccccccccccccc",
"cccccccccccccccccccccccccccccccc",
"cccccccccccccccccccccccccccccccc",
"cccccccccccccccccccccccccccccccc",
"cxxxxxxxxxxxxxxxxxxxxxxxxxxxxxxc",
"xffffffffffffffffffffffffffffffx",
"xf....................ffddddddax",
"xf....................ffddxxddax",
"xf.............xx.....ffdxxxxdax",
"xf............xxx.....ffxxxxxxax",
"xf...........xxxx.....ffxxxxxxax",
"xf...........xxxx.....ffddddddax",
"xf.............xx.....ffddddddax",
"xf.............xx.....ffxxxxxxax",
"xf...........xxxxxx...ffxxxxxxax",
"xf...........xxxxxx...ffdxxxxdax",
"xf....................ffddxxddax",
"xf....................ffddddddax",
"xfaaaaaaaaaaaaaaaaaaaaaaaaaaaaax",
"cxxxxxxxxxxxxxxxxxxxxxxxxxxxxxxc",
"cccccccccccccccccccccccccccccccc",
"cccccccccccccccccccccccccccccccc",
"cccccccccccccccccccccccccccccccc",
"cccccccccccccccccccccccccccccccc",
"cccccccccccccccccccccccccccccccc",
"cccccccccccccccccccccccccccccccc",
"cccccccccccccccccccccccccccccccc",
"cccccccccccccccccccccccccccccccc"
};
