/* XPM */
static const char * const flSubmenu_xpm[] = {
/* width height ncolors chars_per_pixel */
/* width height ncolors chars_per_pixel */
"32 32 8 1",
/* colors */
"a c #808080",
"b c #2020ff",
"c c none",
"d c #aaaaaa",
"e c #bbbbbb",
"f c #d0d0d0",
"g c #000000",
"' c #000000",
/* pixels */
"cccccccccccccccccccccccccccccccc",
"cccccccccccccccccccccccccccccccc",
"cccccccccccccccccccccccccccccccc",
"cccccccccccccccccccccccccccccccc",
"ccccccdddddddccccccccccccccccccc",
"ccccdddddddddddccccccccccccccccc",
"cgfdddddddddddddccccccccccdagccc",
"cgfdddddddddddddddccccccdddagccc",
"cgfddddddddddddddddddddddddagccc",
"cgfddddddddddddddddddddddddagccc",
"cgfeeeeeeeeeeeeeeeeeeeeeeeeagccc",
"cgfeeeeeeeeeeeeeeeeeeeeeeeeagccc",
"cgfeee'''eeee'eeeeeeeeeeeeeagccc",
"cgfee'''''eee''eeeeeeeeeeeeagccc",
"cgfe'''e'''ee'''eeeeeeeeeeeagccc",
"cgfe''eee''ee''''eeeeeeeeeeagccc",
"cgfe'''''''ee'''''eeeeeeeeeagccc",
"cgfe'''''''ee''''eeeeeeeeeeagccc",
"cgfe''eee''ee'''eggggggggggggggg",
"cgfe''eee''ee''egfffffffffffffff",
"cgfe''eee''ee'eegfeeeeeeeeeeeeee",
"cgfe''eee''eeeeegfeeeeeeeeeeeeee",
"cgfeeeeeeeeeeeeegfeeeeeeeeeeeeee",
"cgfeeeeeeeeeeeeegfeeeeeeeeeeeeee",
"cgfdddddddddddddgfeeeeeeeeeeeeee",
"cgfdddddddddddddgfeeeeeeeeeeeeee",
"cgfdddccccccddddgfeeeeeeeeeeeeee",
"cgfdccccccccccddgfeeeeeeeeeeeeee",
"ccccccccccccccccgfeeeeeeeeeeeeee",
"ccccccccccccccccgfeeeeeeeeeeeeee",
"ccccccccccccccccgfeeeeeeeeeeeeee",
"cccccccccccccccccccccccccccccccc"
};
