/* XPM */
static const char * const flTabs_xpm[] = {
/* width height ncolors chars_per_pixel */
"32 32 7 1",
/* colors */
"a c #a0a0a0",
"b c #2020ff",
"c c none",
"d c #dddddd",
"e c #8080ff",
"f c #000000",
". c #eeeeee",
/* pixels */
"cccccccccccccccccccccccccccccccc",
"cccccccccccccccccccccccccccccccc",
"cccccccccccccccccccccccccccccccc",
"cccccccccccccccccccccccccccccccc",
"ccffffffffffccffffffffcccccccccc",
"cffffffffffffcfffffffffccccccccc",
"ff..........ffaaaaaaaaffcccccccc",
"ff..........ffaaaaaaaaffcccccccc",
"ff..........ffaaaaaaaaffcccccccc",
"ff..........ffaaaaaaaaffcccccccc",
"ff..........ffffffffffffffffffcc",
"ff..........ffffffffffffffffffcc",
"ff..........................ffcc",
"ff..........................ffcc",
"ffddddddddddddddddddddddddddffcc",
"ffddddddddddddddddddddddddddffcc",
"ffddddddddddddddddddddddddddffcc",
"ffddddddddddddddddddddddddddffcc",
"ffddddddddddddddddddddddddddffcc",
"ffddddddddddddddddddddddddddffcc",
"ffddddddddddddddddddddddddddffcc",
"ffddddddddddddddddddddddddddffcc",
"ffddddddddddddddddddddddddddffcc",
"ffddddddddddddddddddddddddddffcc",
"ffddddddddddddddddddddddddddffcc",
"ffddddddddddddddddddddddddddffcc",
"ffffffffffffffffffffffffffffffcc",
"ffffffffffffffffffffffffffffffcc",
"cccccccccccccccccccccccccccccccc",
"cccccccccccccccccccccccccccccccc",
"cccccccccccccccccccccccccccccccc",
"cccccccccccccccccccccccccccccccc"
};
