/* XPM */
static const char * const flTable_xpm[] = {
/* width height ncolors chars_per_pixel */
"32 32 7 1",
/* colors */
"a c #606060",
"b c #888888",
"c c none",
"d c #ffffff",
"e c #bbbbbb",
"f c #000000",
"x c #9999999",
/* pixels */
"cccccccccccccccccccccccccccccccc",
"cccccccccccccccccccccccccccccccc",
"ffffffffffffffffffffffffffffffcc",
"ffffffffffffffffffffffffffffffcc",
"ffddddddddddxxddddddddddaaeeffcc",
"ffddddddddddxxddddddddddaaeeffcc",
"ffddddddddddxxddddddddddaaeeffcc",
"ffddddddddddxxddddddddddaaeeffcc",
"ffddddddddddxxddddddddddaabbffcc",
"ffxxxxxxxxxxxxxxxxxxxxxxaabbffcc",
"ffxxxxxxxxxxxxxxxxxxxxxxaabbffcc",
"ffddddddddddxxddddddddddaabbffcc",
"ffddddddddddxxddddddddddaabbffcc",
"ffddddddddddxxddddddddddaabbffcc",
"ffddddddddddxxddddddddddaabbffcc",
"ffddddddddddxxddddddddddaabbffcc",
"ffddddddddddxxddddddddddaabbffcc",
"ffxxxxxxxxxxxxxxxxxxxxxxaabbffcc",
"ffxxxxxxxxxxxxxxxxxxxxxxaabbffcc",
"ffddddddddddxxddddddddddaaeeffcc",
"ffddddddddddxxddddddddddaaeeffcc",
"ffddddddddddxxddddddddddaaeeffcc",
"ffddddddddddxxddddddddddaaeeffcc",
"ffddddddddddxxddddddddddaaeeffcc",
"ffaaaaaaaaaaaaaaaaaaaaaaaaaaffcc",
"ffaaaaaaaaaaaaaaaaaaaaaaaaaaffcc",
"ffeebbbbbbbbbbeeeeeeeeeeaaeeffcc",
"ffeebbbbbbbbbbeeeeeeeeeeaaeeffcc",
"ffffffffffffffffffffffffffffffcc",
"ffffffffffffffffffffffffffffffcc",
"cccccccccccccccccccccccccccccccc",
"cccccccccccccccccccccccccccccccc"
};
