/* XPM */
static const char *flTabs_xpm[] = {
/* width height ncolors chars_per_pixel */
"16 16 6 1",
/* colors */
"a c #a0a0a0",
"b c #2020ff",
"c c none",
"d c #c0c0c0",
"e c #8080ff",
"f c #000000",
/* pixels */
"cccccccccccccccc",
"cccccccccccccccc",
"dddddddddddddddc",
"ddffffdffffddddc",
"dfddddfaaaafdddc",
"dfddddfaaaafdddc",
"dfddddffffffffdc",
"dfdddddddddddfdc",
"dfdddddddddddfdc",
"dfdddddddddddfdc",
"dfdddddddddddfdc",
"dfdddddddddddfdc",
"dfffffffffffffdc",
"dddddddddddddddc",
"cccccccccccccccc",
"cccccccccccccccc"
};
