/* XPM */
static const char * const flTile_xpm[] = {
/* width height ncolors chars_per_pixel */
"32 32 6 1",
/* colors */
"a c #eeeeee",
"b c #2020ff",
"c c none",
"d c #dddddd",
"e c #8080ff",
"f c #000000",
/* pixels */
"cccccccccccccccccccccccccccccccc",
"cccccccccccccccccccccccccccccccc",
"cccccccccccccccccccccccccccccccc",
"cccccccccccccccccccccccccccccccc",
"ffffffffffffffffffffffffffffffcc",
"ffffffffffffffffffffffffffffffcc",
"ffdddddddddddaaffdddddddddddffcc",
"ffdddddddddddaaffdddddddddddffcc",
"ffdddddddddddaaffdddddddddddffcc",
"ffdddddddddddaaffdddddddddddffcc",
"ffdddddddffddaaffddffdddddddffcc",
"ffddddddfffddddddddfffddddddffcc",
"ffdddddffffddddddddffffdddddffcc",
"ffddddfffffddddddddfffffddddffcc",
"ffdddffffffddddddddffffffdddffcc",
"ffddffffffffffffffffffffffddffcc",
"ffddffffffffffffffffffffffddffcc",
"ffdddffffffddddddddffffffdddffcc",
"ffddddfffffddddddddfffffddddffcc",
"ffdddddffffddddddddffffdddddffcc",
"ffddddddfffddddddddfffddddddffcc",
"ffdddddddffddaaffddffdddddddffcc",
"ffdddddddddddaaffdddddddddddffcc",
"ffdddddddddddaaffdddddddddddffcc",
"ffdddddddddddaaffdddddddddddffcc",
"ffdddddddddddaaffdddddddddddffcc",
"ffffffffffffffffffffffffffffffcc",
"ffffffffffffffffffffffffffffffcc",
"cccccccccccccccccccccccccccccccc",
"cccccccccccccccccccccccccccccccc",
"cccccccccccccccccccccccccccccccc",
"cccccccccccccccccccccccccccccccc"
};
