/* XPM */
static const char * const flTree_xpm[] = {
/* width height ncolors chars_per_pixel */
"32 32 6 1",
/* colors */
"a c #606060",
"b c #888888",
"c c none",
"d c #ffffff",
"e c #bbbbbb",
"f c #000000",
/* pixels */
"cccccccccccccccccccccccccccccccc",
"cccccccccccccccccccccccccccccccc",
"ffffffffffffffffffffffffffffffcc",
"ffffffffffffffffffffffffffffffcc",
"ffddddddddddddddddddddddaaeeffcc",
"ffddddddddddddddddddddddaaeeffcc",
"ffddddddddddddddddddddddaaeeffcc",
"ffddddffddddddddddddddddaaeeffcc",
"ffddddffddddddddddddddddaabbffcc",
"ffddddffffffffddddddddddaabbffcc",
"ffddddffffffffddddddddddaabbffcc",
"ffddddffddddffddddddddddaabbffcc",
"ffddddffddddffddddddddddaabbffcc",
"ffddddffddddffffffffddddaabbffcc",
"ffddddffddddffffffffddddaabbffcc",
"ffddddffddddffddddddddddaabbffcc",
"ffddddffddddffddddddddddaabbffcc",
"ffddddffddddffddddddddddaabbffcc",
"ffddddffddddffffffffddddaaeeffcc",
"ffddddffddddffffffffddddaaeeffcc",
"ffddddddddddddddddddddddaaeeffcc",
"ffddddddddddddddddddddddaaeeffcc",
"ffddddddddddddddddddddddaaeeffcc",
"ffddddddddddddddddddddddaaeeffcc",
"ffaaaaaaaaaaaaaaaaaaaaaaaaaaffcc",
"ffaaaaaaaaaaaaaaaaaaaaaaaaaaffcc",
"ffeebbbbbbbbbbeeeeeeeeeeaaeeffcc",
"ffeebbbbbbbbbbeeeeeeeeeeaaeeffcc",
"ffffffffffffffffffffffffffffffcc",
"ffffffffffffffffffffffffffffffcc",
"cccccccccccccccccccccccccccccccc",
"cccccccccccccccccccccccccccccccc"
};
