/* XPM */
static const char * const flValueInput_xpm[] = {
/* width height ncolors chars_per_pixel */
"32 32 6 1",
/* colors */
"f c #606060",
". c #000000",
"c c none",
"d c #ffffff",
"e c #8080ff",
"a c #d0d0d0",
/* pixels */
"cccccccccccccccccccccccccccccccc",
"cccccccccccccccccccccccccccccccc",
"cccccccccccccccccccccccccccccccc",
"cccccccccccccccccccccccccccccccc",
"cccccccccccccccccccccccccccccccc",
"cccccccccccccccccccccccccccccccc",
"c..............................c",
".ffffffffffffffffffffffffffffff.",
".fdddddddddddddddddddddddddddda.",
".fdddddddddddddddddddddddddddda.",
".fddddd....ddddd....dddddddddda.",
".fdddd......dddd....dddddddddda.",
".fddd..ddd...ddd....dddddddddda.",
".fdd..ddd..d..dd....dddddddddda.",
".fdd..ddd..d..dd....dddddddddda.",
".fdd..dd..dd..dd....dddddddddda.",
".fdd..dd..dd..dd....dddddddddda.",
".fdd..d..ddd..dd....dddddddddda.",
".fdd..d..ddd..dd....dddddddddda.",
".fddd...ddd..ddd....dddddddddda.",
".fdddd......dddd....dddddddddda.",
".fddddd....ddddd....dddddddddda.",
".fdddddddddddddddddddddddddddda.",
".fdddddddddddddddddddddddddddda.",
".aaaaaaaaaaaaaaaaaaaaaaaaaaaaaa.",
"c..............................c",
"cccccccccccccccccccccccccccccccc",
"cccccccccccccccccccccccccccccccc",
"cccccccccccccccccccccccccccccccc",
"cccccccccccccccccccccccccccccccc",
"cccccccccccccccccccccccccccccccc",
"cccccccccccccccccccccccccccccccc"
};
