/* XPM */
static const char *flValueOutput_xpm[] = {
/* width height ncolors chars_per_pixel */
"16 16 6 1",
/* colors */
"f c #606060",
". c #000000",
"c c none",
"d c #d0d0d0",
"e c #8080ff",
"a c #d0d0d0",
/* pixels */
"cccccccccccccccc",
"cccccccccccccccc",
"cccccccccccccccc",
"ffffffffffffffff",
"fdddddddddddddda",
"fdd...ddddddddda",
"fd.dd..dddddddda",
"fd.d.d.dddddddda",
"fd..dd.dddddddda",
"fd.ddd.dddddddda",
"fdd...ddddddddda",
"fdddddddddddddda",
"aaaaaaaaaaaaaaaa",
"cccccccccccccccc",
"cccccccccccccccc",
"cccccccccccccccc"
};
