/* XPM */
static const char * const flValueOutput_xpm[] = {
/* width height ncolors chars_per_pixel */
"32 32 6 1",
/* colors */
"f c #606060",
". c #000000",
"c c none",
"d c #cccccc",
"e c #8080ff",
"a c #888888",
/* pixels */
"cccccccccccccccccccccccccccccccc",
"cccccccccccccccccccccccccccccccc",
"cccccccccccccccccccccccccccccccc",
"cccccccccccccccccccccccccccccccc",
"cccccccccccccccccccccccccccccccc",
"cccccccccccccccccccccccccccccccc",
"c..............................c",
".ffffffffffffffffffffffffffffff.",
".fdddddddddddddddddddddddddddda.",
".fdddddddddddddddddddddddddddda.",
".fddddd....ddddddddddddddddddda.",
".fdddd......dddddddddddddddddda.",
".fddd..ddd...ddddddddddddddddda.",
".fdd..ddd..d..dddddddddddddddda.",
".fdd..ddd..d..dddddddddddddddda.",
".fdd..dd..dd..dddddddddddddddda.",
".fdd..dd..dd..dddddddddddddddda.",
".fdd..d..ddd..dddddddddddddddda.",
".fdd..d..ddd..dddddddddddddddda.",
".fddd...ddd..ddddddddddddddddda.",
".fdddd......dddddddddddddddddda.",
".fddddd....ddddddddddddddddddda.",
".fdddddddddddddddddddddddddddda.",
".fdddddddddddddddddddddddddddda.",
".aaaaaaaaaaaaaaaaaaaaaaaaaaaaaa.",
"c..............................c",
"cccccccccccccccccccccccccccccccc",
"cccccccccccccccccccccccccccccccc",
"cccccccccccccccccccccccccccccccc",
"cccccccccccccccccccccccccccccccc",
"cccccccccccccccccccccccccccccccc",
"cccccccccccccccccccccccccccccccc"
};
