/* XPM */
static const char *flValueInput_xpm[] = {
/* width height ncolors chars_per_pixel */
"16 16 6 1",
/* colors */
"f c #606060",
". c #000000",
"c c none",
"d c #ffffff",
"e c #8080ff",
"a c #d0d0d0",
/* pixels */
"cccccccccccccccc",
"cccccccccccccccc",
"cccccccccccccccc",
"ffffffffffffffff",
"fdddddddddddddda",
"fdd...dd..ddddda",
"fd.dd..d..ddddda",
"fd.d.d.d..ddddda",
"fd..dd.d..ddddda",
"fd.ddd.d..ddddda",
"fdd...dd..ddddda",
"fdddddddddddddda",
"aaaaaaaaaaaaaaaa",
"cccccccccccccccc",
"cccccccccccccccc",
"cccccccccccccccc"
};
