/* XPM */
static const char *flWizard_xpm[] = {
/* width height ncolors chars_per_pixel */
"16 16 6 1",
/* colors */
"a c #606060",
"b c #f0f0f0",
"c c none",
"d c #c0c0c0",
"e c #8080ff",
"f c #000000",
/* pixels */
"cccccccccccccccc",
"cccccccccccccccc",
"dddddddddddddddc",
"dfffffffffffffdc",
"dfdddddddddddfdc",
"dfdddddddddddfdc",
"dfdddddddddddfdc",
"dfdddddddddddfdc",
"dfdddddddddddfdc",
"dfbbbbbbbbbbbfdc",
"dfbddddfbdbddfdc",
"dfbddddfbdbddfdc",
"dfffffffffffffdc",
"dddddddddddddddc",
"cccccccccccccccc",
"cccccccccccccccc"
};
