/* XPM */
static const char * const flWidgetClass_xpm[] = {
/* width height ncolors chars_per_pixel */
"32 32 8 1",
/* colors */
"a c #606060",
"b c #2020ff",
"c c none",
"d c #bbbbbb",
"e c #8080ff",
"f c #dddddd",
"g c #c0e0c0",
"h c #000000",
/* pixels */
"cccccccccccccccccccccccccccccccc",
"cccccccccccccccccccccccccccccccc",
"cccccccccccccccccccccccccccccccc",
"cccccccccccccccccccccccccccccccc",
"ffffffffffffffffffffffffffffffff",
"feeeeebbbbbbbbbbbbbbeeeeebeeeeea",
"feeeeebbbbbbbbbbbbbbeeeeebeeeeea",
"feeeeebbbbbbbbbbbbbbeeeeebeeeeea",
"feeeeebbbbbbbbbbbbbbeeeeebeeeeea",
"feeeeebbbbbbbbbbbbbbeeeeebeeeeea",
"fdddddddhhhhhhhhhhhhhhhhhhhhddda",
"fddddddhhhhhhhhhhhhhhhhhhhhdddda",
"fdddddhhgggggggggggggggghhddddda",
"fddddhhgggggggggggggggghhdddddda",
"fddddhhgggggggggggggggghhdddddda",
"fdddhhgggggggggggggggghhddddddda",
"fdddhhgggggggggggggggghhddddddda",
"fdddhhgggggggggggggggghhddddddda",
"fdddhhgggggggggggggggghhddddddda",
"fdddhhgggggggggggggggghhddddddda",
"fdddhhgggggggggggggggghhddddddda",
"fddddhhgggggggggggggggghhdddddda",
"fddddhhgggggggggggggggghhdddddda",
"fdddddhhgggggggggggggggghhddddda",
"fddddddhhhhhhhhhhhhhhhhhhhhdddda",
"fdddddddhhhhhhhhhhhhhhhhhhhhddda",
"fdddddddddddddddddddddddddddddda",
"faaaaaaaaaaaaaaaaaaaaaaaaaaaaaaa",
"cccccccccccccccccccccccccccccccc",
"cccccccccccccccccccccccccccccccc",
"cccccccccccccccccccccccccccccccc",
"cccccccccccccccccccccccccccccccc"
};
