/* XPM */
static const char * const invisible_xpm[] = {
/* width height ncolors chars_per_pixel */
"32 32 6 1",
/* colors */
"` c #000000",
"a c #80c080",
"b c #c0ffc0",
"c c none",
"M c #e0e0e0",
"e c #408040",
/* pixels */
"cccccccccccccccccccccccccccccccc",
"cccccccccccccccccccccccccccccccc",
"cccccccccccccccccccccccccccccccc",
"cccccccccccccccccccccccccccccccc",
"cccccccccccccccccccccccccccccccc",
"cccccccccccccccccccccccccccccccc",
"cccccccccccccccccccccccccccccccc",
"cccccccccccccccccccccccccccccccc",
"cccccccccccccccccccccccccccccccc",
"cccccccccccccccccccccccccccccccc",
"cccccccccccccccccccccccccccccccc",
"cccccccccccccccccccccccccccccccc",
"ccccMMMMMMcccccccccccccccccccccc",
"ccccMMMMMMcccccccccccccccccccccc",
"ccccMM``MMcccccccccccccccccccccc",
"ccccMM``MMcccccccccccccccccccccc",
"MMMMMMMMMMcccccccccccccccccccccc",
"MMMMMMMMMMcccccccccccccccccccccc",
"MM``````MMcccccccccccccccccccccc",
"MM``````MMcccccccccccccccccccccc",
"MMMMMM``MMcccccccccccccccccccccc",
"MMMMMM``MMcccccccccccccccccccccc",
"ccccMM``MMcccccccccccccccccccccc",
"ccccMM``MMcccccccccccccccccccccc",
"MMMMMM``MMMMMMcccccccccccccccccc",
"MMMMMM``MMMMMMcccccccccccccccccc",
"MM``````````MMcccccccccccccccccc",
"MM``````````MMcccccccccccccccccc",
"MMMMMMMMMMMMMMcccccccccccccccccc",
"MMMMMMMMMMMMMMcccccccccccccccccc",
"cccccccccccccccccccccccccccccccc",
"cccccccccccccccccccccccccccccccc"
};
