/* XPM */
static const char * const protected_xpm[] = {
/* width height ncolors chars_per_pixel */
"32 32 6 1",
/* colors */
"` c #000000",
"a c #80c080",
"b c #c0ffc0",
"c c none",
"d c #c0ffc0",
"e c #408040",
/* pixels */
"cccccccccccccccccccccccccccccccc",
"cccccccccccccccccccccccccccccccc",
"cccccccccccccccccccccccccccccccc",
"cccccccccccccccccccccccccccccccc",
"cccccccccccccccccccccccccccccccc",
"cccccccccccccccccccccccccccccccc",
"cccccccccccccccccccccccccccccccc",
"cccccccccccccccccccccccccccccccc",
"cccccccccccccccccccccccccccccccc",
"cccccccccccccccccc`````````ccccc",
"ccccccccccccccccc``dddddaa``cccc",
"cccccccccccccccc``daaaaaaae``ccc",
"cccccccccccccccc`dae`````dae`ccc",
"cccccccccccccccc`de``ccc``de`ccc",
"cccccccccccccccc`de`ccccc`de`ccc",
"cccccccccccccccc`de`ccccc`de`ccc",
"cccccccccccccccc`de`ccccc`de`ccc",
"cccccccccccccc`````````````````c",
"ccccccccccccc``dddddddddddddee``",
"ccccccccccccc`ddaaaaaaaaaaaaaee`",
"ccccccccccccc`daaaaaaaaaaaaaaae`",
"ccccccccccccc`daaaaaa```aaaaaae`",
"ccccccccccccc`daaaaa`````aaaaae`",
"ccccccccccccc`daaaaa`````aaaaae`",
"ccccccccccccc`daaaaaa```aaaaaae`",
"ccccccccccccc`daaaaa`````aaaaae`",
"ccccccccccccc`daaaaa`````aaaaae`",
"ccccccccccccc`daaaae`````eaaaae`",
"ccccccccccccc`ddaaae`````eaaaee`",
"ccccccccccccc``ddaaaaaaaaaaaee``",
"cccccccccccccc`````````````````c",
"cccccccccccccccccccccccccccccccc"
};
