/* XPM */
static const char * blue_bomb_xpm[] = {
"32 32 32 1",
" 	c #000100",
".	c #010047",
"+	c #00033E",
"@	c #010345",
"#	c #010577",
"$	c #0000A4",
"%	c #0001B7",
"&	c #0000C3",
"*	c #0000D0",
"=	c #13252E",
"-	c #1A2147",
";	c #1E1E57",
">	c #2023BC",
",	c #2526CD",
"'	c #343364",
")	c #363699",
"!	c #3237C5",
"~	c #373BB4",
"{	c #474875",
"]	c #4E4FD4",
"^	c #5252C6",
"/	c #5B5A85",
"(	c #6D6D94",
"_	c #6666CE",
":	c #6465DE",
"<	c #6E6CAC",
"[	c #7B7CDA",
"}	c #7C7DEB",
"|	c #8D8DDF",
"1	c #8F90EF",
"2	c #9D9EED",
"3	c #A6A6E8",
"     -#$&%%%%%&&&&%%%&&&$#-     ",
"   =$*,:133333333333333|}>%$=   ",
"  -&,}22122222322233333333[>%-  ",
" =&,}111111|2|21111|22322332,&= ",
" $,[1}1}1}}1}1111111[1|||<|||&$ ",
"-%]}}}}}}}}}[[[}}}}}}[[[||||1:&-",
"#,:_}:::}::[<((((((<[}}[[[[<[[,#",
"%!:::::::_<(((((((((/<_:___[__]$",
"&]]]]]]]://///(////////_^::___]%",
"%]]]]]]^{{{/{{/{/{</{/{/^^^^^_^%",
"$!!!!!]'{{{={{{{{{'{{{{{']]~^^^$",
"%,!,!>)''-{''''''''''''{')]~~~~$",
"%,>,!>)-'-'-''''''';''''')!!~~~$",
"&,,$>>--;;-;;;;;;;;;);;;;->>>#!$",
"&&&,$$;+;+;+;@;;.;;;;;;;;;%>,>>%",
"%&&&$$++@+..@...;..@.@;@.;%,$%$%",
"&&*&&%+++..@@@@@@@@@+@++@+%%%%%%",
"&&&&%%+@+.@@+++@++@@@++++@&%%%$%",
"%&&&&&+....+++++@+@+@+@@@@&%%%$$",
"$%%&%&#.@..@+++++++++++@@#&&%$$$",
"$%%%&*$....@+++++++++++@.$*&&%%$",
"%%&&***#...@+++-++++++++#***&%%%",
"&%&&***&...@+++++++++++@$&**&%%%",
"&%%&****$.@@+++++++++++$&&*&&&&&",
"$%%&&&&%&$#+@@+++++++#$%&&****&$",
"#%%%%&%%$%$$#@.@@@+#$%%%%&*****#",
"-%%%%%%$$$$%%%&%%&&&&%%&&&*****-",
" $%%%&$$$$$$%$$%&&**&&%&******$ ",
" =%%&&&$$$$$$$$%&&***%%&*****&= ",
"  -&&&&%$$$$$$$%%***&&&&****&-  ",
"   =$&%%%$%$$$$%&&&&&&&&***$=   ",
"     -#$%%%%$$$%%&&&&&&&%#-     "};
