/* XPM */
static const char * cyan_bomb_xpm[] = {
"32 32 32 1",
" 	c #000100",
".	c #003A3A",
"+	c #133244",
"@	c #004241",
"#	c #0A4551",
"$	c #084948",
"%	c #1B5353",
"&	c #006C6D",
"*	c #286261",
"=	c #396767",
"-	c #0F8080",
";	c #019795",
">	c #507B7C",
",	c #00A7A9",
"'	c #5D8989",
")	c #00B7B7",
"!	c #00C1C1",
"~	c #2FB2B3",
"{	c #6D9A9A",
"]	c #00CAC9",
"^	c #4AB4B3",
"/	c #05D4D2",
"(	c #36C8C9",
"_	c #53C4C3",
":	c #46D3D4",
"<	c #61D3D3",
"[	c #75CECE",
"}	c #6FE2E1",
"|	c #82DFDE",
"1	c #94E0E1",
"2	c #89EFED",
"3	c #A2ECEC",
"     #-,!))~))!)!!)~)!!!,-#     ",
"   +;]:}2333333333333331<();+   ",
"  #!/}23333333333333333333[!!#  ",
" +!/322222221332223311111111:!+ ",
" ;:2222222222|23222233111111|/; ",
"#!:}|}222222|||}22222}|1[1[[1}]#",
"-:<}}}}}}}}[^{{{{{{[[2}|[[[[[|!-",
",:}:}:}}}<{'''''''{'{{[<<|[[[<_,",
"!:<<:}::_'>'>>'>'''''''[<<<[_<:!",
")(:::::^>>>>>>>>>>>''''>_::____~",
",((:::(>===>=>=>>>=>>>>>'(:___^,",
"~(((](;===#========&&=*=*^(_^^~;",
")](()_&%%==%=%===*===*==*-~)^~~,",
"!!!)~,=#.%%#%%%%*%******%=())~~,",
")]()~,.%%%%%%%%%%%%%%%%%%%()))~)",
"(!]!)^.....$%$$$$$$$$$$$$$)))))~",
"!]:])~...%$$.@#@@@@@.@.$@@))))))",
")]]]!(.$$.@@..@.@@@@@@..@$)))))~",
"~!)!)!.$$%$.@....@#@.@@@#@()),,,",
",)!~!(&@@@@$...........@$&]!)),,",
")))!]]~$$$@$.........@@@$,:]!),,",
"~)!!///&$$$@@...........&]]]!)))",
"))!!://!%$$@...........@,]/]])))",
"!))!///],@#$..........@;]]]]]!]!",
",)!)!!!!!,&.@#@......*,)!]]]/]!,",
"-)~!!!)),));&@@@$.@&;!)))!/////-",
"#)~))),,;,,)))!)!!:]]!!!!]/////#",
" ;))))),;,,)~~,)!!]/]!)!]/////; ",
" +)!!!!),,,,,,,)!]]/!()!/////!+ ",
"  #)]!)),,,,,,,)!!/!]!)!////]#  ",
"   +;]!),,,,,;,)!]]!!!!!]//,+   ",
"     #-,))));,,,!!]!]!!!)-#     "};
