/* XPM */
static const char * green_bomb_xpm[] = {
"32 32 32 1",
" 	c #000100",
".	c #003700",
"+	c #003E00",
"@	c #004405",
"#	c #004600",
"$	c #005E00",
"%	c #1B541B",
"&	c #006E00",
"*	c #2C602D",
"=	c #008B00",
"-	c #3E6D3F",
";	c #358335",
">	c #00A800",
",	c #4E7B4E",
"'	c #00B700",
")	c #00C100",
"!	c #5E895F",
"~	c #00CD00",
"{	c #32B12E",
"]	c #40AA3D",
"^	c #00D800",
"/	c #28C42B",
"(	c #6D9A6E",
"_	c #41C442",
":	c #5CCB5D",
"<	c #58DA59",
"[	c #7EC678",
"}	c #73D173",
"|	c #73E773",
"1	c #83EB84",
"2	c #93EB92",
"3	c #A0E7A0",
"     @&>)'''''))))''')))>&#     ",
"   .=~~|2333333333333332|/'=.   ",
"  +~^1222233333323333333332''@  ",
" .)~212122123222222333333333/). ",
" =~12111111121211112222[3[322~= ",
"@)<1|11|||||121111||1112}[[[}|~@",
"=/|||||||||}[!((((([}|}1}}}[}})=",
">/<:<|<|<|(!!!(!((((((::|}1}}}_>",
")<<<<<<<:!!!!!!!!!!!!(!}<:<::}:)",
"'</</<_:-,-!-!,!,,,,,,,,:<<::::'",
">_//</_,---------,,,;,,,;:___]:>",
"'/////]-, --------*--;*--]_{_]]>",
"'/////;.---.--***********;_{{{]>",
")~))>{**.-.*.%%%*%%*%****%//{{>>",
"'))/>>..%.*%%%%%#%%%%%%%%%'/'/>'",
")~))'{...+++@@##%###@@@@#@)'/'/>",
")~~~)'.@@@@@@@@@@@#%#@@@@@''>'''",
"))~))'++@@##+++@@#+#@+.+@+'''''>",
">)))')@####+.++++++++++@@@)''>>>",
"'>')))&###@#+.....+++@+@#&~)'>>>",
">''))~>#####+........++@#>^~)'>>",
"'')~~^^&####++......+.++&)~~~'''",
"'))~~^^)$###@+.......+++>~~~))''",
"'/')~^^)>#@+++++......#=~)~~~)))",
">''))))')>$++@@@#++++$>'))~~~~)>",
"='''))''>')=&#+#+@+&>)'')~~^^^^=",
"+'''''>>>>''))')))~)))'''~~^^~~#",
" ='''''>=>>>>>'')~~~~)))~~^~~^= ",
" .>)))''>=>>>>>'')~~~'))~^^^~~. ",
"  @))))'>>>>>=>>)~~~))))^^^~~+  ",
"   .=~)'>>>>>>>')~~~))))~^^>.   ",
"     #&>'''>>=>>)~))))))>=@     "};
