/* XPM */
static const char * green_xpm[] = {
"32 32 32 1",
" 	c #000100",
".	c #022D01",
"+	c #004300",
"@	c #007F00",
"#	c #009400",
"$	c #00A301",
"%	c #00AA00",
"&	c #00B600",
"*	c #04BC0A",
"=	c #00C100",
"-	c #02C805",
";	c #00CC00",
">	c #24B329",
",	c #00D400",
"'	c #18CA24",
")	c #3FB740",
"!	c #31C733",
"~	c #3FC640",
"{	c #31D633",
"]	c #4FC650",
"^	c #5DD45D",
"/	c #5BD957",
"(	c #51DF54",
"_	c #6BD16D",
":	c #6AE26D",
"<	c #81DF81",
"[	c #8DDB8C",
"}	c #7EE77F",
"|	c #79EE7A",
"1	c #8FEF8F",
"2	c #9DEC9D",
"3	c #A6E7A5",
"     +@$=*&&&*====&&&===$@+     ",
"   .#;{:123333333333333[:!&#.   ",
"  +-;|22222223222223333333<*=+  ",
" .-,11111111221111122223[332!;. ",
" #-}1}|}||1|111111}11<<[[[[[<;# ",
"+*^}}}}|}||}}<<1||||}1<<[[[[[:;+",
"@':^::|||||:___}}|||:|}_<_[_[_'@",
"%{^:://///^_^^_^:/|(/::^______~%",
"*(/////:^^^^_]]^^/((((:^^^]___]=",
"%~~/~(/~]~]]~]]]/((((((//^]]]]^%",
"%~!!!!~)))))~]~]~({({{{(~~~]))]$",
"&!!!!~~))>))~!~!~!{({{(!~~~))))$",
"&!!!*>>>>>>>>!!'{!{{{{{!!~>~)))$",
"=-'*>&>%>&!*'--'{-''{-{'!!!%>#>%",
"*='*>%$%&&'=-{;-'{-='=---=!&!%!%",
"*--=&%%%&=;--;-=-=;=*&!**-=&&&&&",
"=-;-=&%&==;;======--*&&&**&&&&&&",
"*-;-=&**-,;==&&*==-==*&*=-*&&&%&",
"&&=====;;,;=&&&&&*===&===-=*&&$%",
"%&**==,,,,;-&%%%%%&&&**-;;;=&%%%",
"%&&*-;,,,,,;=%%%$$%&%&*-;;;;=&%%",
"&&=-,,,,,,,;=&$$$#%%%%&=-;;;-&&&",
"**=-,,,,,,,=*&%$$$$%%%&=-;;;=*&&",
"*&*=,,,,,,-=&=&&&%%%%&&*=-;;;===",
"$*&*=-{=*===*=-==&&*&&*===;;;;;%",
"@*&*==&%%&&*==--======*&*-;,,,;@",
"+&&&&=&%$%%&=&*===-;;=&*=;,,,,,+",
" #&&&&&%#$%%&%%&*-;;-=*=-,,,,,# ",
" .&===&&$$$%$$%&==,;-=*=,,,,,-. ",
"  +&===&%$%%$$$&=;;;-==-,,,,-+  ",
"   .#-=&&%%%$$$&=-;=====;,,$.   ",
"     +@$&&&%$$$%==----='&@+     "};
