/* XPM */
static const char * magenta_xpm[] = {
"32 32 32 1",
" 	c #000100",
".	c #380F3F",
"+	c #490754",
"@	c #890089",
"#	c #9E02A1",
"$	c #A800A6",
"%	c #AF00B1",
"&	c #B900B6",
"*	c #B902BE",
"=	c #C200C3",
"-	c #CC00C8",
";	c #D100D2",
">	c #DE00DB",
",	c #CC18CC",
"'	c #C324C3",
")	c #BC33BC",
"!	c #D629D5",
"~	c #B93DB9",
"{	c #D23BD2",
"]	c #D34BD2",
"^	c #CF53D0",
"/	c #CE5ECE",
"(	c #E551E4",
"_	c #E366E3",
":	c #D473D4",
"<	c #DD6DDD",
"[	c #EB7BEC",
"}	c #E683E5",
"|	c #DD8BDD",
"1	c #F18FF2",
"2	c #F09BF0",
"3	c #E7A2E8",
"     +@#=*&%&*====&%&===$@+     ",
"   .@=!_233333333333333|/{*@.   ",
"  +;>[22223333332233333333|'=+  ",
" .=!12111112222122233333333|{-. ",
" @,}}}}1[1[[1}21111}1|||||3||;# ",
"+=_<[[[[[[[[}:}[[[[[}}}|||||:<=+",
"@=<<<_<[__[<<:::[[_[_[<::::|::'@",
"${_/______</:/:<______<//:::::]$",
"*]]^]_]_^^^//^//__((___/^///://*",
"%]]]]]]~^^~^~/~^^((((((]^^~/~//&",
"$){{{]~~~~~~~])~^]((!((]]^~^~~~#",
"%{{){')~~~~)))]{)'{{{!{{))~~~~~#",
"%''')')~#)))''''{!!{{!{{{'~~~~~#",
"=,='&#$%)&&&',!,,,',,!!''''%~#~$",
"&,*'$$$$&'',,,-,,-,,'=,',''&)%%%",
"==-=&$$%%&--,-,,',,==&&==,*&&&&%",
"=;-;=&$&=;;;==*===,=**%'=&*%'&&%",
"*=;=*&*&=;==**&*=====&&&*=&*&%%%",
"%*==*-=;-;-=%%$&&*=&**==;==*%$$$",
"$%&&*=;;;;;=&$%$$%%*&&*--;==*%%$",
"%%*==;;>>;;;=%$$#$$%%%*=;;;-=%%%",
"&&=,-;>>;>;-=%%###$$%%&==--;=&%%",
"&&*;->>>>>;=&%%$#$$$$$%==;,--=&&",
"=*&=;;;;;;-&**&&%$$$$%&&-=;;=&==",
"$*%*===*&===&===***&****==;;;-;$",
"@&&&*=%$%%*&=---==&===*&&=-;>;;@",
"+*&&&&&$#$%&**&=&;=-==**=;;;>;;+",
" @****%$##$%%$&&==;;-=&=-;>;;;@ ",
" .%&==*%$#$$$#$%&=;;-=&=;;>;-;. ",
"  +====&$$$$$$$&----=*==;>;>;+  ",
"   .#==&%$$%##$%=;;-====;;;#.   ",
"     +@#%*%$$##%*===-=-&$@+     "};
