#define whiteking_2_width 56
#define whiteking_2_height 56
static unsigned char whiteking_2_bits[] = {
0x00, 0x00, 0x00, 0x00, 0x00, 0x00, 0x00, 
0x00, 0x00, 0x00, 0x00, 0x00, 0x00, 0x00, 
0x00, 0x00, 0x09, 0x00, 0x00, 0x00, 0x00, 
0x00, 0x40, 0x00, 0x40, 0x00, 0x00, 0x00, 
0x00, 0x00, 0x00, 0x20, 0x01, 0x00, 0x00, 
0x00, 0x00, 0x04, 0x90, 0x04, 0x00, 0x00, 
0x00, 0x20, 0x01, 0x40, 0x12, 0x00, 0x00, 
0x00, 0x48, 0xfc, 0x0f, 0x09, 0x00, 0x00, 
0x00, 0x10, 0x07, 0x30, 0x04, 0x00, 0x00, 
0x40, 0xc2, 0x00, 0xc0, 0x10, 0x00, 0x00, 
0x80, 0x24, 0x00, 0x00, 0x09, 0x00, 0x00, 
0x20, 0x11, 0x00, 0x00, 0x42, 0x00, 0x00, 
0x40, 0x08, 0x80, 0x00, 0x20, 0x00, 0x00, 
0x90, 0x04, 0xc4, 0x10, 0x80, 0x00, 0x00, 
0x20, 0x02, 0x06, 0x18, 0x40, 0x04, 0x00, 
0x48, 0x42, 0x00, 0x00, 0x01, 0x00, 0x00, 
0x10, 0x61, 0x00, 0x88, 0x81, 0x08, 0x00, 
0x20, 0x01, 0x10, 0x10, 0x00, 0x00, 0x00, 
0x80, 0x00, 0x20, 0x08, 0x00, 0x01, 0x00, 
0x80, 0x40, 0x40, 0x10, 0x04, 0x08, 0x00, 
0x80, 0x80, 0x00, 0x20, 0x02, 0x00, 0x00, 
0x80, 0x00, 0x00, 0x00, 0x04, 0x00, 0x00, 
0x80, 0x00, 0x00, 0x00, 0x02, 0x00, 0x00, 
0x80, 0x00, 0x00, 0x00, 0x01, 0x00, 0x00, 
0x80, 0x00, 0x00, 0x00, 0x02, 0x00, 0x00, 
0x80, 0x00, 0x00, 0x00, 0x01, 0x00, 0x00, 
0x84, 0x00, 0x00, 0x80, 0x00, 0x00, 0x00, 
0xa0, 0x00, 0x00, 0x00, 0x01, 0x00, 0x00, 
0x00, 0x01, 0x00, 0x80, 0x00, 0x01, 0x00, 
0x44, 0x01, 0x00, 0x40, 0x01, 0x02, 0x00, 
0x00, 0x02, 0xaa, 0xaa, 0x80, 0x04, 0x00, 
0x88, 0x02, 0x54, 0x55, 0x00, 0x01, 0x00, 
0x40, 0x04, 0xaa, 0x2a, 0x40, 0x02, 0x00, 
0x00, 0x09, 0x54, 0x15, 0x80, 0x00, 0x00, 
0x80, 0x00, 0x00, 0x00, 0x20, 0x01, 0x00, 
0x00, 0x04, 0x00, 0x00, 0x48, 0x00, 0x00, 
0x00, 0x02, 0x00, 0x00, 0x90, 0x00, 0x00, 
0x00, 0x08, 0x00, 0x00, 0x02, 0x00, 0x00, 
0x00, 0x24, 0x00, 0x80, 0x04, 0x00, 0x00, 
0x00, 0x92, 0x00, 0x20, 0x01, 0x00, 0x00, 
0x00, 0x48, 0x02, 0x08, 0x00, 0x00, 0x00, 
0x00, 0x20, 0x01, 0x00, 0x00, 0x00, 0x00, 
0x00, 0x80, 0x00, 0x80, 0x00, 0x00, 0x00, 
0x00, 0x00, 0x00, 0x24, 0x00, 0x00, 0x00, 
0x00, 0x00, 0x00, 0x00, 0x00, 0x00, 0x00, 
0x00, 0x00, 0x00, 0x00, 0x00, 0x00, 0x00, 
0x00, 0x00, 0x00, 0x00, 0x00, 0x00, 0x00, 
0x00, 0x00, 0x00, 0x00, 0x00, 0x00, 0x00, 
0x00, 0x00, 0x00, 0x00, 0x00, 0x00, 0x00, 
0x00, 0x00, 0x00, 0x00, 0x00, 0x00, 0x00, 
0x00, 0x00, 0x00, 0x00, 0x00, 0x00, 0x00, 
0x00, 0x00, 0x00, 0x00, 0x00, 0x00, 0x00, 
0x00, 0x00, 0x00, 0x00, 0x00, 0x00, 0x00, 
0x00, 0x00, 0x00, 0x00, 0x00, 0x00, 0x00, 
0x00, 0x00, 0x00, 0x00, 0x00, 0x00, 0x00, 
0x00, 0x00, 0x00, 0x00, 0x00, 0x00, 0x00, 
};
