/* XPM */
static const char *flFunction_xpm[] = {
/* width height ncolors chars_per_pixel */
"16 16 4 1",
/* colors */
". c none",
"a c #000000",
"b c #c0e0c0",
"c c #000000",
/* pixels */
"................",
"................",
"....aaaaaaaa....",
"..aabbbbbbbbcc..",
".abbbbbbbbbbbbc.",
".abbbbbbbbbbbbc.",
"abbbbbbbbbbbbbbc",
"abbbbbbbbbbbbbbc",
"abbbbbbbbbbbbbbc",
"abbbbbbbbbbbbbbc",
".abbbbbbbbbbbbc.",
".abbbbbbbbbbbbc.",
"..ccbbbbbbbbcc..",
"....cccccccc....",
"................",
"................",
};
