/* XPM */
static const char * red_xpm[] = {
"32 32 32 1",
" 	c #000100",
".	c #2D0001",
"+	c #440000",
"@	c #850000",
"#	c #A20000",
"$	c #AC0001",
"%	c #B70000",
"&	c #C30000",
"*	c #D10000",
"=	c #AB1111",
"-	c #BF0C10",
";	c #DD0000",
">	c #CD191B",
",	c #BB2222",
"'	c #B53A39",
")	c #CF2F30",
"!	c #C33738",
"~	c #C34746",
"{	c #E14548",
"]	c #D44D4C",
"^	c #CC5554",
"/	c #E25858",
"(	c #DB6161",
"_	c #D16867",
":	c #E96A6B",
"<	c #E27373",
"[	c #DA7D7E",
"}	c #EE8283",
"|	c #DD8D8C",
"1	c #EF9191",
"2	c #F09D9B",
"3	c #E9A3A2",
"     +@#&%%%%%&&&&%%%&&&#@+     ",
"   .#*):1333333333333332(!$#.   ",
"  +&><22223333332333333333[,%+  ",
" .&)11111111122111233333333|)*. ",
" #>}}1}}}}1}}|111}}}||[||||||># ",
"+%/<<<}}:}<}}[<[}}}}}}[[[|||[(&+",
"@)_<<<:<::<<_<<<<:::<<<[[[[[[[)@",
"#)(((/(:::(_____<:::::(____[__!#",
"%{^](//^^(^^^_^^((///:/(^^_^__^&",
"%~]]]]]~~~^~^~^^~///{/]^^^~^_^^%",
"$!!!!!]'~'~~~~~~~{{{{{{{~]~~'^^#",
"%!){)!''''''!!!!!!!){){!!'~''''#",
"%,),,,!!,',!,)))))))))))!!!''''#",
"&>-,,====,=,,>>>>>>)>>>)),,,@''#",
"%>--=====-->>>>>>>>>>)->>-),,==%",
"&&&-$==#--&**&&&&&&&---%-------$",
"&**&&%$%&&*&&&&-&&>&%%-%&&%$$--%",
"%&*&&%%&&**&&-%%%&*&&%%&%&&%%%$$",
"%%&&&%&&***&%$%%%%&&%%%&&&&%%$$$",
"$%%%&&**;**&%$$$$$%%%%&***&&%$##",
"$%%&&**;****&$$###$%%$%&&***&%%$",
"%%&&**;;;;**%%#####$$%%%**&*&%$%",
"%&&&*;*;*;*&%%$####$#$%%&***&&%%",
"&%%&******&&%%%%$###$%%&&&&*&&&&",
"#&%&&&&&&&&&&&&&&%%%%&%&&&***&&$",
"@%%$&&$$$$%%&&&&&&&&%%&%%****;*@",
"+%%%%&$###$%&%&&&&&**%%&%&*;*;*+",
" @%$&%%###$$$%$%%&**&&&%**;**&# ",
" .&%%&&$#######%&&***%&&**;**&. ",
"  +&*&&%$##$##$%&&**&&%&*;*;*+  ",
"   .#&&%%%#$###%&&&&&&&&*;*#.   ",
"     +@#$$%%###$&&*&&&&&#@+     "};
