#define white_4_width 56
#define white_4_height 56
static unsigned char white_4_bits[] = {
0x00, 0x00, 0xf0, 0x03, 0x00, 0x00, 0x00, 
0x00, 0x80, 0xbf, 0x7e, 0x00, 0x00, 0x00, 
0x00, 0xe0, 0xb6, 0xf6, 0x01, 0x00, 0x00, 
0x00, 0xb8, 0xad, 0xb6, 0x07, 0x00, 0x00, 
0x00, 0x6e, 0xad, 0xda, 0x1e, 0x00, 0x00, 
0x00, 0x6b, 0xab, 0x6a, 0x3b, 0x00, 0x00, 
0x80, 0xdb, 0xfe, 0xbf, 0x6d, 0x00, 0x00, 
0xc0, 0xb6, 0x03, 0xf0, 0xf6, 0x00, 0x00, 
0xe0, 0xee, 0xa8, 0xca, 0x9b, 0x01, 0x00, 
0xb0, 0x3d, 0x55, 0x15, 0xef, 0x03, 0x00, 
0x70, 0x9b, 0xaa, 0xaa, 0x76, 0x02, 0x00, 
0xd8, 0x4e, 0x55, 0x5f, 0xbd, 0x07, 0x00, 
0xb8, 0xa7, 0xaa, 0xaa, 0xda, 0x04, 0x00, 
0x6c, 0x53, 0xf5, 0x5f, 0x75, 0x0f, 0x00, 
0xdc, 0xa9, 0xaa, 0xaa, 0xaa, 0x0b, 0x00, 
0xb6, 0x55, 0xff, 0x7f, 0xe5, 0x1c, 0x00, 
0xee, 0xaa, 0xaa, 0xaa, 0x4a, 0x17, 0x00, 
0xde, 0xf4, 0xff, 0x7f, 0xd5, 0x19, 0x00, 
0x72, 0xba, 0xaa, 0xaa, 0xaa, 0x1e, 0x00, 
0x4e, 0xf5, 0xff, 0xff, 0x95, 0x17, 0x00, 
0x7f, 0xfa, 0xaa, 0xaa, 0xaa, 0x38, 0x00, 
0x41, 0xfd, 0xff, 0xff, 0x95, 0x3f, 0x00, 
0x7f, 0xfa, 0xaa, 0xaa, 0xaa, 0x20, 0x00, 
0x41, 0xf5, 0xff, 0xff, 0x97, 0x3f, 0x00, 
0x7f, 0xea, 0xab, 0xaa, 0xaa, 0x20, 0x00, 
0x47, 0xf5, 0xff, 0xff, 0x94, 0x3f, 0x00, 
0x7a, 0xea, 0xab, 0x2a, 0xa8, 0x1c, 0x00, 
0x5e, 0xd5, 0xff, 0x0f, 0x94, 0x13, 0x00, 
0xe6, 0xaa, 0xaf, 0x02, 0xca, 0x1e, 0x00, 
0xba, 0xd4, 0xff, 0x00, 0xd4, 0x1d, 0x00, 
0xce, 0xa9, 0x2f, 0x80, 0x6a, 0x1b, 0x00, 
0x74, 0x55, 0x1f, 0x40, 0xe5, 0x0e, 0x00, 
0xbc, 0xab, 0x0e, 0xa8, 0xb2, 0x0d, 0x00, 
0xc8, 0x56, 0x0f, 0x54, 0x79, 0x07, 0x00, 
0x78, 0xaf, 0x86, 0xaa, 0xdc, 0x06, 0x00, 
0x90, 0x5b, 0x45, 0x55, 0xb6, 0x03, 0x00, 
0xf0, 0x3d, 0xaa, 0x2a, 0x6f, 0x03, 0x00, 
0x60, 0xf6, 0x54, 0xc5, 0xdd, 0x01, 0x00, 
0xc0, 0xdb, 0x03, 0x70, 0xdb, 0x00, 0x00, 
0x80, 0x6d, 0xff, 0xdf, 0x76, 0x00, 0x00, 
0x00, 0xb7, 0x55, 0xb5, 0x35, 0x00, 0x00, 
0x00, 0xde, 0x56, 0xad, 0x1d, 0x00, 0x00, 
0x00, 0x78, 0x5b, 0x6d, 0x07, 0x00, 0x00, 
0x00, 0xe0, 0x5b, 0xdb, 0x01, 0x00, 0x00, 
0x00, 0x80, 0x5f, 0x7f, 0x00, 0x00, 0x00, 
0x00, 0x00, 0xf0, 0x03, 0x00, 0x00, 0x00, 
0x00, 0x00, 0x00, 0x00, 0x00, 0x00, 0x00, 
0x00, 0x00, 0x00, 0x00, 0x00, 0x00, 0x00, 
0x00, 0x00, 0x00, 0x00, 0x00, 0x00, 0x00, 
0x00, 0x00, 0x00, 0x00, 0x00, 0x00, 0x00, 
0x00, 0x00, 0x00, 0x00, 0x00, 0x00, 0x00, 
0x00, 0x00, 0x00, 0x00, 0x00, 0x00, 0x00, 
0x00, 0x00, 0x00, 0x00, 0x00, 0x00, 0x00, 
0x00, 0x00, 0x00, 0x00, 0x00, 0x00, 0x00, 
0x00, 0x00, 0x00, 0x00, 0x00, 0x00, 0x00, 
0x00, 0x00, 0x00, 0x00, 0x00, 0x00, 0x00, 
};
