/* XPM */
static const char *flBrowser_xpm[] = {
/* width height ncolors chars_per_pixel */
"16 16 6 1",
/* colors */
"a c #606060",
"b c #808080",
"c c none",
"d c #c0c0c0",
"e c #ffffff",
"f c #000000",
/* pixels */
"cccccccccccccccc",
"dddddddddddddddc",
"dfffffffffffffdc",
"dfeeeeeeeeebbfdc",
"dfeeeeeeeeebdfdc",
"dfeeeeeeeeebdfdc",
"dfeeeeeeeeebffdc",
"dfeeeeeeeeebdfdc",
"dfeeeeeeeeebdfdc",
"dfeeeeeeeeebdfdc",
"dfeeeeeeeeebdfdc",
"dfbbbbbbbbbbbfdc",
"dfbdddfddddbdfdc",
"dfffffffffffffdc",
"dddddddddddddddc",
"cccccccccccccccc"
};
