/* XPM */
static const char *flButton_xpm[] = {
/* width height ncolors chars_per_pixel */
"16 16 6 1",
/* colors */
"a c #606060",
"b c #2020ff",
"c c none",
"d c #a0a0a0",
"e c #8080ff",
"f c #d0d0d0",
/* pixels */
"cccccccccccccccc",
"cccccccccccccccc",
"cccccccccccccccc",
"cccccccccccccccc",
"ffffffffffffffac",
"fdddddddddddddac",
"fdddddddddddddac",
"fdddddddddddddac",
"fdddddddddddddac",
"fdddddddddddddac",
"fdddddddddddddac",
"aaaaaaaaaaaaaaac",
"cccccccccccccccc",
"cccccccccccccccc",
"cccccccccccccccc",
"cccccccccccccccc"
};
