/* XPM */
static const char *flClock_xpm[] = {
/* width height ncolors chars_per_pixel */
"16 16 5 1",
/* colors */
". c none",
"a c #000000",
"b c #c0c0c0",
"c c #000000",
"' c #202080",
/* pixels */
"................",
"................",
"....aaaaaaa.....",
"..aabbbbbbbcc...",
".abbbbbbbbb'bc..",
".abb'bbbbb'bbc..",
"abbbb'bbb'bbbbc.",
"abbbbb'b'bbbbbc.",
"abbbbbb'bbbbbbc.",
"abbbbbbbbbbbbbc.",
"abbbbbbbbbbbbbc.",
".abbbbbbbbbbbc..",
".abbbbbbbbbbbc..",
"..ccbbbbbbbcc...",
"....ccccccc.....",
"................",
};
