/* XPM */
static const char *flComment_xpm[] = {
/* width height ncolors chars_per_pixel */
"16 16 4 1",
/* colors */
". c none",
"a c #000000",
"b c #c0e0c0",
"c c #000000",
/* pixels */
"................",
"................",
".aaaaaaaaaaaaaa.",
".abbbbbbbbbbbbc.",
".abbbbbccbbccbc.",
".abbbbccbbccbbc.",
".abbbbccbbccbbc.",
".abbbccbbccbbbc.",
".abbbccbbccbbbc.",
".abbccbbccbbbbc.",
".abbccbbccbbbbc.",
".abccbbccbbbbbc.",
".abbbbbbbbbbbbc.",
".accccccccccccc.",
"................",
"................",
};
