/* XPM */
static const char *flRoundButton_xpm[] = {
/* width height ncolors chars_per_pixel */
"16 16 7 1",
/* colors */
"a c #606060",
"b c #2020ff",
". c none",
"d c #ffffff",
"e c #8080ff",
"f c #d0d0d0",
"# c #000000",
/* pixels */
"................",
"................",
"......aaa.......",
"....aadddaa.....",
"...adddddddf....",
"...add###ddf....",
"..add#####ddf...",
"..add#####ddf...",
"..add#####ddf...",
"...add###ddf....",
"...adddddddf....",
"....ffdddff.....",
"......fff.......",
"................",
"................",
"................"
};
