/* XPM */
static const char *flSpinner_xpm[]={
"16 16 6 1",
". c None",
"c c #000000",
"d c #606060",
"b c #c0c0c0",
"# c #e0e0e0",
"a c #ffffff",
"................",
"................",
"................",
"................",
"###############.",
"#aaaaaaaaa#bcbd.",
"#aaaaaacaa#cccd.",
"#aaaaaccaaddddd.",
"#aaaaaacaa####d.",
"#aaaaaccca#cccd.",
"#aaaaaaaaa#bcbd.",
"ddddddddddddddd.",
"................",
"................",
"................",
"................"};
