/* XPM */
static const char *flValueSlider_xpm[] = {
/* width height ncolors chars_per_pixel */
"16 16 6 1",
/* colors */
"a c #606060",
"b c #2020ff",
"c c none",
"d c #c0c0c0",
"' c #000000",
"f c #e0e0e0",
/* pixels */
"cccccccccccccccc",
"cccccccccccccccc",
"cccccccccccccccc",
"cccccccccccccccc",
"aaaaaaaaaaaaaaaa",
"adddddfffffddddf",
"add'ddfdddaddddf",
"ad''ddfdddaddddf",
"add'ddfdddaddddf",
"ad'''dfdddaddddf",
"adddddfaaaaddddf",
"afffffffffffffff",
"cccccccccccccccc",
"cccccccccccccccc",
"cccccccccccccccc",
"cccccccccccccccc"
};
