/* XPM */
static const char * red_bomb_xpm[] = {
"32 32 32 1",
" 	c #000100",
".	c #340001",
"+	c #3C0100",
"@	c #410003",
"#	c #440000",
"$	c #760000",
"%	c #4E1414",
"&	c #A60000",
"*	c #B70000",
"=	c #5F2928",
"-	c #C30000",
";	c #CE0000",
">	c #D90000",
",	c #BE1315",
"'	c #653A3B",
")	c #733C3C",
"!	c #B92223",
"~	c #D31A1D",
"{	c #744A49",
"]	c #AE3232",
"^	c #CD3B3B",
"/	c #875B5B",
"(	c #C04848",
"_	c #9A6E6E",
":	c #D35A5A",
"<	c #C57170",
"[	c #DF6D6D",
"}	c #D97D7D",
"|	c #ED8181",
"1	c #DD8D8C",
"2	c #EF9191",
"3	c #EAA2A1",
"     #$&-*****----***---&$#     ",
"   .&;~[2333333333333331[^*&.   ",
"  @*~|23233333333333333333}!*#  ",
" .-~222222222332223333333331^-. ",
" &,|||||||22||222|2|11}111112~& ",
"@-:|||||||[||}}|||||||}}1<11}:-#",
"$~[[[[[[[[[}_______<}|[}}<<}<},$",
"&^:[::[::[</_/______/<<[[[}<<|(&",
"-(:::^:^[{/////////////<:::::[(-",
",^^^:^:({{{{{{{{{{{//{/{(:::(::*",
"&^^^^^:){''{{{{{{{)))))/)((((((&",
"*^^^^^]'''''''''')'){)))'(]((](&",
"*,^~!!==''.'===='=)=)='=')!]]]]&",
"-~,,!!%%.==%=%==%=%=====%=^!]]]&",
"*~,,&!.%%.%%%%%%%%%%%%%%%%,,,,!*",
"---~&&...%+%@%@#%#%#%%%%%%,,&,,&",
"-;;;**%++%+###@@@@#@@@@###***&**",
"*-;--*.#####@+@#@#@#@@++#@*****&",
"**-*--######@+.@@@@#++@##@-**&*&",
"&**-*-$####++.++.+++@+###$--**&&",
"***-;;&######+.+...++++##&;;-**&",
"&*--;>>$####@+....+.+.++$;;;-*&*",
"**--;>>;####@@+.+...@..#&;;----*",
"***-;;;>*##+++@@.+++.@@&--;;;-*-",
"&-*-;;-*;*$+#@##+@.@+$&*--;;;;-&",
"$*******&*&&$###@@+$&****-;>>>>$",
"#*****&&&&&&***------*-*-;;>>>;#",
" &*****&&&&*&***---;;-*-;;>;;;& ",
" .*-*-*&&&&&&&&&-;;;--*-;>>>;-. ",
"  #*;--*&&&&&&&*--;;---->;>>;#  ",
"   .&--*&*&&&&&*-;------->>&.   ",
"     #$&***&&&&&--;-----*$@     "};
