/* XPM */
static char * fluid_96_xpm[] = {
"96 96 32 1",
" 	c None",
".	c #000100",
"+	c #031F3F",
"@	c #00366C",
"#	c #2E302D",
"$	c #0058AC",
"%	c #0060BF",
"&	c #4E504D",
"*	c #14659F",
"=	c #006DDC",
"-	c #2C7087",
";	c #0080FF",
">	c #407B74",
",	c #0F85F9",
"'	c #268CCD",
")	c #7C7E7B",
"!	c #2D92EC",
"~	c #4498A9",
"{	c #2F94FE",
"]	c #5BA18C",
"^	c #6BA674",
"/	c #7DAD62",
"(	c #93BD53",
"_	c #A4A6A2",
":	c #6CB6FF",
"<	c #ABCC3F",
"[	c #C4DA2A",
"}	c #CACCC9",
"|	c #DCE913",
"1	c #BBDEFF",
"2	c #FDFE00",
"3	c #FDFFFC",
"                                                                                                ",
"                                                                                                ",
"                                                                                                ",
"                                           ...........                                          ",
"                                     ......................                                     ",
"                                    ........................                                    ",
"                                    ........#&#&#&#&##......                                    ",
"                                    ....)__}33333333333}_...                                    ",
"                                    ...&33333333333333333...                                    ",
"                                    ...#33311133333333333...                                    ",
"                                    ...&33!,{,;:333333333...                                    ",
"                                    ...&3:,{{{{,13333333}...                                    ",
"                                    ...&3!{{!{{,13333333}...                                    ",
"                                    ...&3:!{{!{;13333333}...                                    ",
"                                    ...&3{{{{{{;133333333...                                    ",
"                                    ...&31,{{{;,33333333}...                                    ",
"                                    ...&331{{{:133333333}...                                    ",
"                                    ...&3333333333333333_...                                    ",
"                                    ...&3333333333333333}...                                    ",
"                                    ...&3333333333333333_...                                    ",
"                                    ...&3333333333333333}...                                    ",
"                                    ...&3333333333333333_...                                    ",
"                                    ...&3333333333333333}...                                    ",
"                                    ...&3333333333333333_...                                    ",
"                                    ...&3333333331!,,;:3}...                                    ",
"                                    ...&333333333{{{{{;:_...                                    ",
"                                    ...&333333331,{!{!{{}...                                    ",
"                                    ...&333333331{{{{{{,_...                                    ",
"                                    ...)333333331{{!{{{{_...                                    ",
"                                    ...)333333333{{{!{;:_...                                    ",
"                                    ...)3333333331{;;;:3_...                                    ",
"                                    ...)3333333333331333_...                                    ",
"                                    ...)3333333333333333_...                                    ",
"                                    ...)3333333333333333_...                                    ",
"                                    ..._3333333333333333_...                                    ",
"                                    ..._3333333333333333_...                                    ",
"                                    ..._3333333333333333_...                                    ",
"                                    ..._3333333333333333}....                                   ",
"                                   ...._33333333333333333#...                                   ",
"                                  ....&333333333333333333_....                                  ",
"                                 ....&33333333333333333333)....                                 ",
"                                 ....333333333333333333333}&....                                ",
"                                ...._33333333333333333333333....                                ",
"                               ....&333333333331:11333333333_....                               ",
"                              ....#33333333333:,,,;:333333333&....                              ",
"                              ....}3333333333:,!{{{;1333333333&....                             ",
"                             ....}33333333333{{{!{{,!3333333333....                             ",
"                            ....)333333333333{{{{!{{{3333333333_....                            ",
"                           ....#3333333333333!{{{{{,:33333333333&....                           ",
"                           ...._33333333333331{{!{,;1333333333333#....                          ",
"                          ...._333333333333333:;,;,13333333333333_....                          ",
"                         ...._333333333333333333113333333333333333_....                         ",
"                        ....&33333333333333333333333333331::1333333&....                        ",
"                        ...._333333333333333333333333333{,{{;{133333#...                        ",
"                       ...._3333333333333333333333333331,{!{{,:33333}....                       ",
"                      ....&3333333333133333333333333333:{{{{{{:333333)....                      ",
"                      ...#333333331{,,;:333333333333333:{!{!{{:3333333&....                     ",
"                     ....}33333333,{{{{;:333333333333331,{!{{;:33333333#...                     ",
"                    ...._333333331,!{!{{,333333333333333{,{{;{1333333333....                    ",
"                   ....&3333333331{{{{{{{3333333333333333::::33333333333)....                   ",
"                  ....+!:::::::::{{{{!{{;::::::::::::::::::::::::::!:::::+....                  ",
"                  ...+=;;;;;;;;;;;;{{{{;;;;;;;;;;;;;;;;;;;;;;;;;;;;;;;;;;=....                  ",
"                 ....%;;;;;;;;;;;;;;;;;;;;;;;;;;;;;;;;;;;;;;;;;;;;;;;;;;;;%....                 ",
"                ....@;;;;;;;;;;;;;;;;;;;;;;;;;;;;;;;;;;;;;;;;;;;;;;;;;;;;;;$....                ",
"                ...+%;;;;;;!!!;;;;;,;;;;;;;;;;;;;;;;;;;;;;;;;;;;;;;;;;;!=;;;+....               ",
"               ....%;;;;;!([<|^~]^([%;;;;;;;;;;;;;;;;;,(<'=;;;;;;;!^/<[|'=;;=+...               ",
"              ....$;;;;;'|2>]22<|22[%=;;;;;;;;;;;;;;;;^22[%=;;;;;;!][22|%=;;;$....              ",
"             ....@;;;;;;[2[%^2|*[22(%=;;;;;;;;;;;;;;;,/22|$=;;;;;;;;<22<%=;;;;$....             ",
"            ....+=;;;;;~22^$%]~$|22>%=;;;;;;;;;;;;;;;;'||^%=;;;;;;;,[22^$=;;;;;+....            ",
"            ....%;;;;;,[22-%==='22|*==;;;;;;;;;;;;;;;;;;=%=;;;;;;;;'22|*%=;;;;;=+...            ",
"           ....$;;;;;;!22|$%;,;^22<$=;;;;;;;;;;;;;;;;;;===;;;;;;;;;^22|$==;;;;;;%....           ",
"          ....@;;;;;'](22[^]=;;<22^$==!~]/~=;!]]~;;;;{'~]==;;;;~<<]<22($=;;;;;;;;@....          ",
"         ....@;;;;;;]<|22|[<%;!|22-%'[2222*=;/22(%;~|222(=;;;!<2|^[222>$=;;;;;;;;;+....         ",
"         ....=;;;;;;;,[22>$===~22|$==,[22[%=;[22]%=,!|22]%=;![2|*%]22|*==;;;;;;;;;%+...         ",
"        ....@;;;;;;;;!|22*$=;;/22($=;,[22/$='222*%=;!|22-%;;<22>%=]22[$%;;;;;;;;;;;=....        ",
"       ....@;;;;;;;;;~22[*==;;[22>%=;'22|-%,^22[$=;,~22[$%;]22<$%=(22/$=;;;;;;;;;;;;@....       ",
"      ....+;;;;;;;;;;^22<$=;;!222*$=;]22[$==[22/$=;;(22/$=![22]$=;|22-%=;;;;;;;;;;;;;+...       ",
"      ....;;;;;;;;;;;<22^%=;;]22[$=;;(22/$=~222-%=;;[22>%=]22|$%;~22|$==;;;;;;;;;;;;;;....      ",
"     ....%;;;;;;;;;;;|22-%=;;(22/$=;{|22-%=<22|$%;;'22|*%;<22<$==(22<$=;=;;;;;;;;;;;;;$....     ",
"    ....+;;;;;;;;;;;!222$==;,|22>%=;~22|$=]|22($=;;]22[$%,|22^%=!|22^$=;;;;;;;;;;;;;;;;@....    ",
"   ....+=;;;;;;;;;;;~22[$%;;'22|*-/;]22($*[<22^$^=;(22/$(-222>$=(222->~;;;;;;;;;;;;;;;;=+....   ",
"   ...+;;;;;;;;;;;;;(22/$=;;]22|*<'=(22/*[~[22>(]=;|22>//=|22/$^(|2|-[%=;;;;;;;;;;;;;;;;=....   ",
"  ....$;;;;;;;;;;;;;<22>%=;;]222|>==(222|^=|22|<%=;|222<%=(222|<-222|-==;;;;;;;;;;;;;;;;;$....  ",
" ....@;;;;;;;;;;;;;!|2|$=;;;'[2[>%=;'|2[]%=/2|/$==;^2|(*%=!(2|($%<2[-%=;;;;;;;;;;;;;;;;;;;@.... ",
"....@;;;;;;;;;;;;;;'22($%;;;;=%%==;;;=%%%==;=%%==;;;=%===;;==%%====%%=,;;;;;;;;;;;;;;;;;;;;+... ",
"...+=;;;;;;;;;;!'=,]22-%=;;;;;;==;=;;;===;=;;===;;;;;===;;;;=;=,;;,=;=;;;;;;;;;;;;;;;;;;;;;=....",
"...+;;;;;;;;;;;[2^=<2<$==;;;;;;;;;;;;;;;;;;;;;;;;;;;;;;;;;;;;;;;;;;;;;;;;;;;;;;;;;;;;;;;;;;;+...",
"...+;;;;;;;;;;;22('2|*%=;;;;;;;;;;;;;;;;;;;;;;;;;;;;;;;;;;;;;;;;;;;;;;;;;;;;;;;;;;;;;;;;;;;;+...",
"...+;;;;;;;;;;;^|<[[-%=;;;;;;;;;;;;;;;;;;;;;;;;;;;;;;;;;;;;;;;;;;;;;;;;;;;;;;;;;;;;;;;;;;;;;+...",
"...+;;;;;;;;;;;;*~*%===;;;;;;;;;;;;;;;;;;;;;;;;;;;;;;;;;;;;;;;;;;;;;;;;;;;;;;;;;;;;;;;;;;;;;@...",
"...+;;;;;;;;;;;;;====;;;;;;;;;;;;;;;;;;;;;;;;;;;;;;;;;;;;;;;;;;;;;;;;;;;;;;;;;;;;;;;;;;;;;;;+...",
"....$=;;;;;;;;;;;;;;;;;;;;;;;;;;;;;;;;;;;;;;;;;;;;;;;;;;;;;;;;;;;;;;;;;;;;;;;;;;;;;;;;;;;;=$....",
" .....++++++++++++++++++++++++++++++++++++++++++++++++++++++++++++++++++++++++++++++++++++..... ",
" .............................................................................................  ",
"  ............................................................................................  ",
"     ......................................................................................     "};
