/* XPM */
static const char * blue_xpm[] = {
"32 32 32 1",
" 	c #000100",
".	c #0000A5",
"+	c #020681",
"@	c #0A008F",
"#	c #0001B2",
"$	c #0100BA",
"%	c #0000D0",
"&	c #0C00C4",
"*	c #0008C4",
"=	c #0B00DB",
"-	c #13252E",
";	c #171F44",
">	c #1718B3",
",	c #1616C2",
"'	c #2628CF",
")	c #2C2BC6",
"!	c #2D30BD",
"~	c #3D40D1",
"{	c #4342BC",
"]	c #4344CA",
"^	c #5253E1",
"/	c #5858D4",
"(	c #5F5ECF",
"_	c #6A69E7",
":	c #6E6EDD",
"<	c #7273D2",
"[	c #7E7FDD",
"}	c #7E7FEC",
"|	c #8D8DDF",
"1	c #8F90EF",
"2	c #9D9EED",
"3	c #A6A6E8",
"     ;+.*$##$$**$*$#$*&&.+;     ",
"   -@&)_133333333333333|:!$@-   ",
"  ;%%}22122222222233333333['$;  ",
" -&'1111111|2|21111|2223|332'&- ",
" @*}}}}1}}}1}1111111[|[||||||*. ",
";&/}[}}}}}}}[[[}}}}}[}[[||||[:&;",
"+'::::_____:::<::__}_}:<<<<<[<)+",
">)/_/_____::(::::_____:(<<<<<<].",
"*^//^/////(((((//_^_^_///(((((/$",
"#]]]]^^{/{{{{/{//^^^^^^///{(((($",
".]~~~~]{{{{{{{]{]~~~~~~~]{]{{{(.",
"#))))!!!{{{]!~!!~~'~''~~~]{{{{{.",
"#))))!!!@!>!!))))''''''~)!!!{{+.",
"$,,>>>@!>>)>,'''''''''''))!>!!!.",
"$,,#>>>>.>,,&*%*'*''*',,,,,>>>>#",
"&%%$#...#&&%*%***%%&*$,***,>#>>#",
"$&%&*###&&%%&&&&,*&*,##$*$$#$$#$",
"$&%%$$$*&%&**$$$&&&&&$#$***#,#.#",
"$$$&$*&%%=&&$##$$**&&$**&&&$$#..",
".#$$&&%%%%%&,....##$#$$&%%&&$#.#",
".#$$&%%===%%&#.....###$&%%%&&#.#",
"$$&&%=====%%$##.@..#.##&&&%%&$$#",
"$$&&%==%==%&$###.....##$%&%&&$$$",
"$$$&&%%%%%&&$$###..###$$&%&%&&$$",
".$$&&&&$$&$$*&&*$$#$$$$$$%%%%%&.",
"+$$$$&####$&$&&&&&$$&$$$$&%=%%=+",
";##$$$#....$$&&&$&&%&&$$*&%==%%;",
" @$,#$#.@..##.#$&&%%%&$&&=%%%%. ",
" -$*$&&$.......#&&&%&&$&%==%%&- ",
"  ;$&&$#...#...$&%%%&&$&%=%=%;  ",
"   -@%&$#..#...#$%&&&&&&&=%.-   ",
"     ;+.#$#....#&&%%&&&&#+;     "};
