/* XPM */
static const char * magenta_bomb_xpm[] = {
"32 32 32 1",
" 	c #000100",
".	c #3A033B",
"+	c #410142",
"@	c #48004B",
"#	c #6C006C",
"$	c #541954",
"%	c #840084",
"&	c #9B009D",
"*	c #612F61",
"=	c #AC00AC",
"-	c #792A7D",
";	c #BA00B9",
">	c #C200C2",
",	c #813285",
"'	c #D000D0",
")	c #734472",
"!	c #B91EBA",
"~	c #8E488B",
"{	c #B034B1",
"]	c #855A85",
"^	c #CD31CD",
"/	c #C643C7",
"(	c #967098",
"_	c #AC6DAC",
":	c #C960CA",
"<	c #D859D8",
"[	c #E770E7",
"}	c #E376E3",
"|	c #DD7CDD",
"1	c #EF8BEF",
"2	c #E894E8",
"3	c #E7A2E8",
"     @%&>;;=;;>>>>;=;>>>=%@     ",
"   .&'^[1333333333333332:^;%.   ",
"  @>'[22233333332333333333|^;@  ",
" .'^121111112221112333333333^'. ",
" &^1111111111222111122222_322'& ",
"@><}}}1[1[[[}}1111[}}}|2|2|_2[>@",
"%>}[}[[[[[[2_((((((2|[}|||||||>%",
"=^<<<<<<[:_]((((((](]_:::::|:|/=",
";<<<<<<<:]]]]]]]]]]]]]]::::::::>",
";//<^<^:)))])])])])]]]]]<<:{::<=",
"=/^^^</))))))))))))~))))~//<{:{&",
";^/^^^%**) )***)*)*)*)*)){/{{{{=",
";^^!/!-**************-***,{/{{{&",
";>;!={*.*.*.*$*$$$$$*$*$**!!{{{=",
";'>!=&..*.*.$$$$$$$$$$$$$$!;!!=!",
">>>>!{.....$.@+@@@$+$+$+$$;!;!!=",
";''>>=...++@+++++@@++...++;!;;;;",
";>'';;.++@@+.+..+++++..+++>;;===",
";;;>>>+++@++..++.+++++++++>;;===",
"==;;;>%+@+@++.......++++@#>>;===",
"=;;>>>=+@+@@+.........++@=''>===",
";;>>'''#@@+++...........#>'>';==",
";;>>'''^@@@++..........+=''>>>>;",
";;;>''''=@++++......+.+&>>''>>;;",
"=;;>>'>;>=#.++++.....#&;>>'''''=",
"%!;;>;;===;%#++++++#&;;;;>'''''%",
"@;;;;;;=&==>;;>;>>>'>>;;>''''''@",
" &=!;;==&&======>>''>>;>>'''''& ",
" .;;;>;==&===&=;;>''';;>'''''>. ",
"  @;>>>;=&&==&=;>'>'>>>''''''@  ",
"   .&>>==;==&=&=>'>>>>;>'''{.   ",
"     @%======&&=;>'>'>>>!%@     "};
