#define sudoku_width 32
#define sudoku_height 32
static unsigned char sudoku_bits[] = {
   0xff, 0xff, 0xff, 0xff, 0xff, 0xff, 0xff, 0xff, 0x03, 0x0c, 0x30, 0xc0,
   0x63, 0xcc, 0x33, 0xcf, 0x63, 0x4c, 0x33, 0xcc, 0x63, 0x4c, 0x33, 0xcc,
   0x63, 0xcc, 0x33, 0xcc, 0x63, 0x0c, 0x33, 0xcc, 0x63, 0x0c, 0x33, 0xcc,
   0x03, 0x0c, 0x30, 0xc0, 0xff, 0xff, 0xff, 0xff, 0xff, 0xff, 0xff, 0xff,
   0x03, 0x0c, 0x30, 0xc0, 0xd3, 0xcc, 0x33, 0xcf, 0xd3, 0xcc, 0x30, 0xcc,
   0xd3, 0xcc, 0x33, 0xce, 0xf3, 0xcc, 0x32, 0xce, 0xc3, 0xcc, 0x32, 0xcc,
   0xc3, 0xcc, 0x33, 0xcf, 0x03, 0x0c, 0x30, 0xc0, 0xff, 0xff, 0xff, 0xff,
   0xff, 0xff, 0xff, 0xff, 0x03, 0x0c, 0x30, 0xc0, 0xf3, 0xcc, 0x33, 0xcf,
   0x83, 0x4c, 0x33, 0xc1, 0xf3, 0xcc, 0x33, 0xcf, 0x33, 0x4c, 0x33, 0xcc,
   0x33, 0x4c, 0x33, 0xcc, 0xf3, 0xcc, 0x33, 0xcf, 0x03, 0x0c, 0x30, 0xc0,
   0xff, 0xff, 0xff, 0xff, 0xff, 0xff, 0xff, 0xff };
