/* XPM */
static const char * yellow_xpm[] = {
"32 32 32 1",
" 	c #000100",
".	c #2A4602",
"+	c #435B00",
"@	c #818600",
"#	c #969900",
"$	c #A3A400",
"%	c #B0AF00",
"&	c #B4B425",
"*	c #BAB800",
"=	c #BABE02",
"-	c #B4B73F",
";	c #C0C300",
">	c #C7C905",
",	c #C6C821",
"'	c #CBCC00",
")	c #CAC835",
"!	c #C9C943",
"~	c #D1D201",
"{	c #C7C94E",
"]	c #CACB5D",
"^	c #D8D700",
"/	c #D9DB3C",
"(	c #D5D67B",
"_	c #DADB6D",
":	c #DFDE57",
"<	c #DFDF64",
"[	c #D9DB8A",
"}	c #EAEB76",
"|	c #E7E7A1",
"1	c #EBEC82",
"2	c #EEED91",
"3	c #EEEF9C",
"     +@$;**%**==;=*%*=;;$@+     ",
"   .#'/<2||||||||||||||[_)*#.   ",
"  +>^}32233||3|333||||||||(*=+  ",
" .>'2222222233322223||||||||,'. ",
" #,1111111112222212122[[[[[[[^# ",
"+*:_111}}}}1_1(111}1111([[[[[_'+",
"@,___}}}}}}_____1}}}}}_(((((((,@",
"$/<<:<<<<<__](]]<}:}<}__](](](!$",
"*:!<!::::{{]{]]{<:::::::<{]]]]{*",
"*!!!:!!{{{]{{{{{!}///:::!<{]]]]*",
"%!))/!!----{!!!!!::///::!!!{---$",
"%))!))-&-&-&!&!!))/////)!!!!---$",
"*,,)&*&&&&&&&),))))///,))&&----$",
"=,,*&&$&&&&&)','''',,',,)))*&$&%",
"=;,*&$$%%*>>'''/,/'),,'>>,)*&&&%",
"*>';*&$&*;''',>;;>>'****,*****%%",
"*'~'**%%;>~'>,;***''****;;******",
"*>'>;***>'^****;'*>>;***;,**%*%%",
"%*;*;*''^'~>*%%*****,*;*'>,*%%$%",
"%****''^~^~;*%%%%%*****''''>=%%$",
"%**>;'^^^^^'*%$$$$%%%**>''''*%%%",
"%**>^^^^^^~^*%%$#$$%%%**>'~''=%%",
"*;*>'^^^^^~;*%%$$$#$$%**'>~';==*",
";***'^~'^~;;****%%%%%****>'';;*=",
"%**;;>;**;;*;;;***%***;*;;'^~~>%",
"@***,**%%****>''>;*;*;***>^~^~~@",
"+*****%$#%%*****;>>'';***'^~^^~+",
" #*****$$#%%%%****'''>*;'^~~~~# ",
" .%;*,;%$$$$$$%**~^'>**>~^^^~>. ",
"  +*>'*%%$%%$$$**>'^';;*~^^~>+  ",
"   .#';*%$$%$$$*;';>>*>;~~^$.   ",
"     +@#%**%$$$%>*>>>'*>$@+     "};
