/* XPM */
static const char * fl_cursor_wait_xpm[] = {
"17 32 11 1",
" 	c None",
".	c #FFFFFF",
"+	c #2E2E2E",
"@	c #202020",
"#	c #242424",
"$	c #000000",
"%	c #494949",
"&	c #929292",
"*	c #B6B6B6",
"=	c #DBDBDB",
"-	c #6D6D6D",
".................",
".+@@@@@@@@@@@@@+.",
".................",
" .#$$$$$$$$$$$#. ",
" .%$$$$$$$$$$$%. ",
" .&$$$$$$$$$$$&. ",
"  *$$$$$$$$$$$*  ",
"  =$$$$$$$$$$$=  ",
"  .#$$$$$$$$$#.  ",
"  .-$$$$$$$$$-.  ",
"   *$$$$$$$$$*   ",
"   .$=.....=$.   ",
"   .%-.....-%.   ",
"    =#=...=#=    ",
"    .-%...%-.    ",
"     .##.##.     ",
"     .#$.$#.     ",
"    .-$$.$$-.    ",
"    =$$$.$$$=    ",
"   .%$$$.$$$%.   ",
"   .$$$$.$$$$.   ",
"   *$$$$.$$$$*   ",
"  .-$$$$.$$$$-.  ",
"  .#$$$$.$$$$#.  ",
"  =$$#&*.*&#$$=  ",
"  *$%.......%$*  ",
" .&#.........#&. ",
" .%-.........-%. ",
" .#$$$$$$$$$$$#. ",
".................",
".+@@@@@@@@@@@@@+.",
"................."};
