/* XPM */
static const char * const fl_cursor_help_xpm[] = {
"16 27 9 1",
" 	c None",
".	c #FFFFFF",
"+	c #DBDBDB",
"@	c #242424",
"#	c #000000",
"$	c #494949",
"%	c #6D6D6D",
"&	c #929292",
"*	c #B6B6B6",
"                ",
".               ",
".+              ",
".@+             ",
".#@+            ",
".##@.           ",
".###@.          ",
".####@.         ",
".#####$.        ",
".######$.       ",
".#######$.      ",
".#####@@@%.     ",
".#####+.....    ",
".##$%#%.        ",
".#$..@#.        ",
".$. .&#%.       ",
"..   .##. ....  ",
".    .&#.+%$%&. ",
"      ...*#@##%.",
"         ++.*#@.",
"           .%#$.",
"          .%#@. ",
"          .##+  ",
"          .++.  ",
"          +##.  ",
"          +##.  ",
"          ....  "};
