/* XPM */
static const char * const fl_cursor_wait_xpm[] = {
/* width height ncolors chars_per_pixel */
"13 18 3 1",
/* colors */
"  c None",
". c #FFFFFF",
"B c #000000",
/* pixels */
"  ........   ",
"  .BBBBBB.   ",
"  .BBBBBB.   ",
"  .BBBBBB.   ",
"  .BBBBBB.   ",
" .B......B.  ",
".B....B...B. ",
".B....B...B. ",
".B....B...BB.",
".B.BBBB...BB.",
".B........B. ",
".B........B. ",
" .B......B.  ",
"  .BBBBBB.   ",
"  .BBBBBB.   ",
"  .BBBBBB.   ",
"  .BBBBBB.   ",
"  ........   ",
};
